<?xml version="1.0" encoding="UTF-8" standalone="no"?>
<!DOCTYPE svg PUBLIC "-//W3C//DTD SVG 1.1//EN" "http://www.w3.org/Graphics/SVG/1.1/DTD/svg11.dtd">
<!-- Created with Vectornator (http://vectornator.io/) -->
<svg height="100%" stroke-miterlimit="10" style="fill-rule:nonzero;clip-rule:evenodd;stroke-linecap:round;stroke-linejoin:round;" version="1.1" viewBox="0 0 3000 1000" width="100%" xml:space="preserve" xmlns="http://www.w3.org/2000/svg" xmlns:xlink="http://www.w3.org/1999/xlink">
<defs/>
<g id="Layer-1">
<g fill="#1c1f1a" opacity="1" stroke="none">
<path d="M786.7 684.8L782.5 727.5C769.433 733.1 753.567 738 734.9 742.2C716.233 746.4 697.333 749.55 678.2 751.65C659.067 753.75 642.033 754.8 627.1 754.8C589.3 754.8 554.3 748.383 522.1 735.55C489.9 722.717 461.783 704.867 437.75 682C413.717 659.133 394.933 632.183 381.4 601.15C367.867 570.117 361.1 536.4 361.1 500C361.1 463.6 367.867 429.883 381.4 398.85C394.933 367.817 413.717 340.867 437.75 318C461.783 295.133 489.9 277.283 522.1 264.45C554.3 251.617 589.3 245.2 627.1 245.2C642.5 245.2 659.767 246.367 678.9 248.7C698.033 251.033 716.7 254.183 734.9 258.15C753.1 262.117 768.5 266.667 781.1 271.8L777.6 311L773.4 311C756.133 295.133 734.433 283 708.3 274.6C682.167 266.2 655.1 262 627.1 262C585.1 262 548.117 271.917 516.15 291.75C484.183 311.583 459.217 339.35 441.25 375.05C423.283 410.75 414.3 452.4 414.3 500C414.3 548.067 423.283 589.833 441.25 625.3C459.217 660.767 484.067 688.417 515.8 708.25C547.533 728.083 584.633 738 627.1 738C658.833 738 688.35 732.867 715.65 722.6C742.95 712.333 765.233 699.733 782.5 684.8L786.7 684.8Z"/>
<path d="M919.7 255L967.3 255L967.3 550.4C967.3 606.867 981.183 650.85 1008.95 682.35C1036.72 713.85 1075.8 729.6 1126.2 729.6C1157.93 729.6 1185.58 723.417 1209.15 711.05C1232.72 698.683 1250.92 681.533 1263.75 659.6C1276.58 637.667 1282.53 612.467 1281.6 584L1269.7 255L1317.3 255L1305.4 584C1303.53 640 1286.85 682.467 1255.35 711.4C1223.85 740.333 1178.93 754.8 1120.6 754.8C1057.6 754.8 1008.37 736.483 972.9 699.85C937.433 663.217 919.7 612.933 919.7 549L919.7 255Z"/>
<path d="M1485.3 255L1579.1 255C1628.57 255 1666.95 265.383 1694.25 286.15C1721.55 306.917 1735.2 335.967 1735.2 373.3C1735.2 402.233 1726.68 426.267 1709.65 445.4C1692.62 464.533 1668 477.367 1635.8 483.9L1635.8 488.1C1666.6 494.167 1691.8 508.633 1711.4 531.5C1731 554.367 1745.7 582.6 1755.5 616.2C1764.37 647 1773.12 670.917 1781.75 687.95C1790.38 704.983 1799.95 717.233 1810.45 724.7C1820.95 732.167 1833.43 737.533 1847.9 740.8L1847.9 745L1819.2 745C1798.67 745 1781.75 741.267 1768.45 733.8C1755.15 726.333 1743.83 713.733 1734.5 696C1725.17 678.267 1716.3 653.767 1707.9 622.5C1694.37 574.433 1676.4 540.367 1654 520.3C1631.6 500.233 1604.3 490.2 1572.1 490.2L1567.9 490.2L1567.9 477.6L1572.1 477.6C1647.23 477.6 1684.8 443.067 1684.8 374C1684.8 305.867 1649.57 271.8 1579.1 271.8L1532.9 271.8L1532.9 745L1485.3 745L1485.3 255Z"/>
<path d="M1934.7 745L1934.7 255L1982.3 255L1982.3 745L1934.7 745Z"/>
<path d="M2129.3 500C2129.3 464.067 2135.72 430.583 2148.55 399.55C2161.38 368.517 2179.35 341.45 2202.45 318.35C2225.55 295.25 2252.62 277.283 2283.65 264.45C2314.68 251.617 2348.17 245.2 2384.1 245.2C2420.03 245.2 2453.52 251.617 2484.55 264.45C2515.58 277.283 2542.65 295.25 2565.75 318.35C2588.85 341.45 2606.82 368.517 2619.65 399.55C2632.48 430.583 2638.9 464.067 2638.9 500C2638.9 535.933 2632.48 569.417 2619.65 600.45C2606.82 631.483 2588.85 658.55 2565.75 681.65C2542.65 704.75 2515.58 722.717 2484.55 735.55C2453.52 748.383 2420.03 754.8 2384.1 754.8C2348.17 754.8 2314.68 748.383 2283.65 735.55C2252.62 722.717 2225.55 704.75 2202.45 681.65C2179.35 658.55 2161.38 631.483 2148.55 600.45C2135.72 569.417 2129.3 535.933 2129.3 500ZM2182.5 500C2182.5 547.6 2190.9 589.25 2207.7 624.95C2224.5 660.65 2248.07 688.417 2278.4 708.25C2308.73 728.083 2343.97 738 2384.1 738C2424.23 738 2459.47 728.083 2489.8 708.25C2520.13 688.417 2543.7 660.533 2560.5 624.6C2577.3 588.667 2585.7 547.133 2585.7 500C2585.7 452.867 2577.3 411.45 2560.5 375.75C2543.7 340.05 2520.13 312.167 2489.8 292.1C2459.47 272.033 2424.23 262 2384.1 262C2343.97 262 2308.85 271.917 2278.75 291.75C2248.65 311.583 2225.08 339.35 2208.05 375.05C2191.02 410.75 2182.5 452.4 2182.5 500Z"/>
</g>
</g>
</svg>
