<?xml version="1.0" encoding="UTF-8" standalone="no"?>
<!DOCTYPE svg PUBLIC "-//W3C//DTD SVG 1.1//EN" "http://www.w3.org/Graphics/SVG/1.1/DTD/svg11.dtd">
<!-- Created with Vectornator (http://vectornator.io/) -->
<svg height="100%" stroke-miterlimit="10" style="fill-rule:nonzero;clip-rule:evenodd;stroke-linecap:round;stroke-linejoin:round;" version="1.1" viewBox="0 0 300 300" width="100%" xml:space="preserve" xmlns="http://www.w3.org/2000/svg" xmlns:xlink="http://www.w3.org/1999/xlink">
<defs/>
<g id="Layer-1">
<path d="M110.732 198.124C110.732 198.124 58.4492 215.647 81.6975 230.073C102.864 243.207 180.845 246.392 187.227 246.41C222.684 246.513 254.707 221.584 250.792 207.916C246.121 191.606 201.289 186.074 201.289 186.074L110.732 198.124Z" fill="#2e302d" fill-rule="nonzero" opacity="1" stroke="none"/>
<path d="M230.517 22.3468C181.053-0.478012 89.3043 31.6088 66.1598 80.9908C53.2984 108.432 64.7466 161.721 88.2549 191.697C107.051 215.664 137.939 219.875 137.939 219.875C137.939 219.875 80.3931 213.57 49.3262 220.915C18.2592 228.261 2.63367 239.645 13.671 249.257C24.7082 258.87 60.0213 258.649 88.2549 264.287C116.489 269.925 126.606 271.808 126.606 271.808L143.89 289.617C143.89 289.617 165.008 287.735 152.004 276.698C147.479 272.858 117.71 258.918 110.438 255.894C82.2603 244.178 27.4386 254.296 31.1813 242.751C34.924 231.205 166.974 226.993 166.974 226.993C166.974 226.993 268.693 205.566 284.579 154.404C300.465 103.243 279.98 45.1717 230.517 22.3468Z" fill="#799464" fill-rule="nonzero" opacity="1" stroke="none"/>
<path d="M140.386 286.232C130.873 274.851 124.744 271.408 106.418 267.439C102.041 266.505 97.7222 265.63 96.7884 265.455C95.7962 265.338 92.4112 264.813 89.2012 264.287C85.9912 263.762 78.3456 262.536 72.2758 261.544C66.1476 260.552 58.5604 259.21 55.3504 258.568C52.1404 257.926 48.8137 257.225 48.055 257.109C41.6934 256 31.2463 252.556 27.336 250.222C26.052 249.463 23.9509 247.77 22.6669 246.428C20.3908 244.094 20.3324 243.86 20.3324 240.3C20.3324 237.032 20.5075 236.331 22.0833 234.405C26.694 228.744 38.9503 225.067 60.6031 223.024C68.9491 222.207 100.057 221.974 115.173 222.558C129.063 223.141 150.775 223.55 150.775 223.316C150.775 223.2 149.607 222.791 148.265 222.441C140.503 220.456 129.063 215.32 121.418 210.418C111.379 203.998 99.9984 193.843 94.4539 186.372C92.9364 184.33 91.2439 182.87 89.7265 182.228C87.5086 181.236 87.1001 180.653 82.3143 171.023C73.1513 152.697 69.6495 138.573 69.6495 119.429C69.5911 80.5594 89.4346 44.6076 121.593 25.2893C132.507 18.8109 142.195 14.9006 154.627 12.0408C160.988 10.5817 162.564 10.4066 174.704 10.4066C187.894 10.2899 192.154 10.5817 198.049 11.8073C226.705 17.7604 252.152 35.6196 267.501 60.5408C287.17 92.4655 289.037 133.437 272.345 166.762C267.034 177.268 262.249 184.271 254.545 192.734C252.035 195.535 249.992 198.045 249.992 198.453C249.992 198.804 249.467 199.387 248.825 199.737C248.183 200.029 247.658 200.146 247.658 199.971C247.658 199.796 246.257 200.788 244.565 202.247C240.537 205.632 232.95 210.768 227.522 213.745C225.071 215.087 222.97 216.371 222.795 216.663C222.62 216.955 222.036 217.246 221.453 217.246C220.927 217.246 219.06 217.888 217.309 218.706C214.099 220.165 214.099 220.165 216.433 219.814C218.359 219.523 218.534 219.581 217.659 220.165C217.075 220.515 215.85 220.69 214.916 220.515C212.815 220.106 203.477 223.024 200.967 224.892C199.45 226.001 198.924 226.118 197.173 225.534C195.773 225.126 194.314 225.126 192.388 225.534C190.52 225.943 169.451 226.176 132.098 226.293C67.6651 226.41 59.3191 226.76 44.5532 229.736C33.4642 231.954 23.5424 236.506 23.5424 239.366C23.5424 240.417 27.1025 244.094 28.2114 244.094C28.5033 244.094 28.7951 243.568 28.7951 242.985C28.7951 239.891 34.4563 237.557 46.0706 235.923C50.8564 235.222 56.2259 234.405 57.9768 234.113C59.786 233.822 63.0544 233.53 65.2722 233.53C67.49 233.53 72.1007 233.296 75.5442 232.946C79.221 232.596 82.3143 232.596 83.1314 232.888C84.5321 233.413 81.7307 233.822 71.6922 234.405C67.1982 234.639 55.8173 235.748 52.8992 236.156C47.4714 236.973 37.3161 239.425 34.6898 240.592C30.8378 242.226 29.9623 243.218 31.4214 244.327C34.2812 246.428 38.2499 247.07 59.2608 249.054C67.8985 249.813 77.2367 250.864 79.9798 251.331C82.7812 251.798 86.3997 252.323 88.0339 252.498C93.5784 253.082 96.0297 253.548 112.838 257.4C122.877 259.735 140.269 266.564 145.755 270.299C151.358 274.151 152.701 278.295 150.074 283.547C148.732 286.174 146.339 288.858 145.755 288.275C145.58 288.1 146.222 286.349 147.214 284.423C149.549 279.812 149.491 278.061 147.098 275.785C144.588 273.509 140.269 270.766 135.542 268.665C130.056 266.155 109.687 259.91 104.376 259.035C102.158 258.684 96.0297 257.576 94.1621 257.167C90.3685 256.35 83.3648 255.183 80.2716 254.832C78.4623 254.657 73.1513 253.957 68.5405 253.373C60.8366 252.323 56.1675 251.973 57.685 252.556C58.1519 252.731 72.8011 255.008 80.7385 256.116C104.025 259.385 121.068 263.704 129.005 268.314C133.557 270.999 139.919 277.944 142.254 282.789C144.296 287.049 144.88 289.617 143.771 289.617C143.421 289.617 141.903 288.1 140.386 286.232M168.692 219.931C168.634 219.814 166.299 219.523 163.614 219.289C153.167 218.472 135.308 212.694 125.211 206.858C118.383 202.947 110.912 197.461 105.835 192.675C101.049 188.181 101.049 188.123 108.169 190.166C111.146 190.983 114.006 191.216 122.176 191.216C133.499 191.275 136.359 190.983 144.705 188.94C161.455 184.855 177.972 176.392 193.963 163.727C200.15 158.766 212.815 146.101 218.009 139.623C220.227 136.88 224.021 131.686 226.472 128.067C228.923 124.449 231.083 121.53 231.258 121.53C231.608 121.53 233.534 124.799 235.518 128.768C237.503 132.736 241.471 143.475 242.055 146.51C242.172 147.035 242.93 150.887 243.747 155.089C245.673 164.778 247.074 177.618 247.074 186.022L247.074 192.559L244.973 194.368C240.888 197.987 240.304 198.22 236.861 197.461L233.767 196.761L233.417 187.89C233.009 177.618 232.833 175.984 230.966 165.011C229.507 156.198 227.172 145.985 225.83 142.191C224.779 139.448 224.663 140.324 225.48 145.459C225.772 147.502 226.297 151.179 226.647 153.63C226.997 156.023 227.347 158.65 227.522 159.467C229.04 169.155 230.207 193.959 229.157 194.31C228.865 194.368 226.822 193.317 224.604 191.975L220.577 189.407L219.235 182.695C217.834 175.575 214.624 165.945 211.414 159.175C210.364 156.899 209.371 155.381 209.255 155.79C209.138 156.14 209.838 159 210.83 162.035C212.815 168.221 215.791 179.894 216.433 183.863C216.784 186.197 216.725 186.372 215.733 185.789C213.807 184.738 202.893 173.591 199.099 168.746C197.057 166.178 195.306 164.369 195.189 164.661C195.072 165.011 195.948 166.996 197.115 169.097C203.827 181.12 218.943 196.352 229.507 201.78C232.658 203.414 232.658 203.414 231.316 204.348C230.557 204.815 227.347 206.624 224.196 208.317L218.418 211.352L214.391 209.367C205.578 204.932 194.547 194.66 186.668 183.571C182.057 177.034 181.007 176.801 184.1 182.929C190.111 194.893 198.924 205.749 207.679 212.052C209.138 213.103 210.305 214.095 210.305 214.328C210.305 214.562 207.037 215.554 203.127 216.488L196.006 218.239L192.504 215.904C184.45 210.36 173.42 197.111 167.992 186.372C167.116 184.68 166.299 183.337 166.182 183.512C165.832 183.863 167.817 189.407 169.918 193.901C173.77 202.072 178.789 209.776 183.983 215.554L187.485 219.406L185.442 219.756C183.283 220.165 168.926 220.281 168.692 219.931M250.809 182.345C250.518 177.501 249.876 172.423 248.475 163.844C247.658 158.825 244.448 147.094 242.347 141.257C241.004 137.639 239.02 131.802 237.911 128.359C236.627 124.274 235.285 121.355 234.234 120.188L232.6 118.321L233.884 116.278C236.277 112.426 241.705 101.22 244.331 94.5666C249.642 81.2598 252.619 69.2369 253.377 58.2062L253.786 52.3699L257.638 57.3308C262.482 63.5173 266.101 69.4704 269.777 77.2327C275.847 90.131 278.474 101.22 278.941 115.986C279.407 129.76 277.832 139.973 273.338 152.755C271.237 158.65 264.35 172.365 264.116 171.081C264.058 170.614 263.591 166.937 263.124 162.969C262.074 154.739 259.039 142.541 256.12 134.546C251.977 123.515 246.724 113.009 244.039 110.617L242.814 109.566L243.689 111.609C244.156 112.718 245.207 115.227 246.024 117.153C249.876 126.141 254.545 141.841 256.646 152.755C257.113 155.323 257.696 158.183 257.871 159.175C258.046 160.109 258.397 165.011 258.572 170.089L258.864 179.252L256.471 182.462C255.128 184.271 253.377 186.255 252.619 186.897L251.16 188.065L250.809 182.345M111.204 185.497C100.64 183.804 95.6795 182.053 93.5784 179.194C92.8781 178.26 92.4112 177.326 92.5863 177.151C92.703 177.034 94.3955 177.268 96.2632 177.734C109.161 181.061 125.503 180.244 141.145 175.575C155.385 171.256 167.466 164.953 181.357 154.506C210.539 132.561 233.767 95.909 240.946 60.4824C242.347 53.3621 242.989 43.6154 242.113 42.2147C241.238 40.7556 242.814 41.7478 245.907 44.4908L249.117 47.4674L249.058 56.3386C249.058 64.3927 248.883 65.7935 247.191 72.3302C238.378 105.889 218.359 136.121 189.703 159.35C176.688 169.855 156.436 180.011 141.436 183.396C134.725 184.913 124.744 186.314 120.134 186.314C118.033 186.314 114.006 185.905 111.204 185.497M105.951 175.867C96.8468 175.283 92.4112 174.641 92.4112 174.058C92.4112 173.824 91.6524 172.715 90.777 171.606C88.7926 169.097 86.8083 165.42 87.1585 165.011C87.3336 164.894 88.7926 165.361 90.3685 166.12C91.9443 166.879 94.5706 167.696 96.2048 167.929C100.349 168.513 101.633 169.097 101.808 170.614C102.099 172.482 103.383 172.598 103.792 170.789C104.317 168.863 106.068 168.221 110.679 168.163C121.068 168.104 141.903 159.934 156.611 150.187C176.279 137.055 193.672 117.679 205.694 95.3837C207.796 91.5317 208.963 90.0143 209.722 90.0143C211.472 90.0143 212.932 87.3296 212.114 85.637C211.589 84.4114 211.881 83.2441 214.157 77.8747C215.558 74.4312 217.834 68.0696 219.176 63.7507C220.752 58.3813 221.978 55.4631 222.853 54.7044C224.604 53.1286 224.838 52.0781 223.962 49.8603C223.379 48.4595 223.32 47.0588 223.787 44.0239C224.079 41.8645 224.371 37.779 224.371 34.9776C224.371 32.1762 224.546 29.9 224.663 29.9C225.363 29.9 232.133 33.9854 236.102 36.7285C240.479 39.8801 240.537 39.9969 239.779 41.4559C239.37 42.3314 238.962 44.841 238.903 47.1172C238.845 49.335 238.728 51.7279 238.553 52.3699C238.436 53.0119 238.203 54.471 238.028 55.6966C236.802 64.276 232.892 77.116 228.339 87.2128C219.935 105.772 208.321 122.464 193.73 136.997C177.33 153.222 161.922 162.969 141.145 170.206C133.791 172.715 129.822 173.707 121.009 175.225C114.939 176.217 112.897 176.275 105.951 175.867M92.061 164.894L87.6254 163.961L88.0339 162.151C91.0688 147.502 104.142 125.733 120.017 108.866C122.468 106.239 124.511 103.963 124.511 103.73C124.511 103.555 123.344 104.138 122.001 105.072C108.636 114.352 90.3685 140.207 85.8745 156.257L84.5321 160.926L82.9563 157.599C82.0809 155.731 80.9136 152.813 80.3883 151.062L79.3961 147.911L80.9719 143.884C84.8823 133.962 92.9948 120.597 101.107 110.558C106.185 104.313 106.827 103.496 111.613 98.477L114.881 95.0335L111.963 97.0179C102.625 103.496 87.0417 123.223 80.5634 136.822C79.221 139.623 77.9371 141.958 77.762 141.958C77.0616 141.958 75.4858 132.269 74.7854 124.157C73.6182 111.142 76.0111 95.8506 81.2054 82.427C87.2168 67.0191 97.1386 53.187 110.037 42.273C122.877 31.4174 139.335 23.48 156.319 20.0366C164.84 18.2857 167.583 18.0522 177.914 18.1106C190.987 18.1689 202.309 20.3284 214.157 24.9975L219.527 27.0985L219.935 30.9505C220.344 34.6858 219.935 42.915 219.235 45.5414C219.001 46.4168 218.593 46.767 218.009 46.5336C216.9 46.125 202.718 46.0666 200.85 46.4752C200.092 46.6503 198.166 46.8837 196.59 47.0588C189.178 47.7592 170.676 52.6033 168.05 54.5293C167.175 55.1713 168.05 55.113 172.019 54.2959C184.334 51.8446 200.442 50.8524 209.43 52.0197C216.433 52.9535 217.309 53.187 217.309 54.2959C217.309 54.7628 216.317 58.1479 215.091 61.7664L212.932 68.3615L211.531 67.4276C207.562 64.8013 186.493 69.0035 173.536 74.9565C170.735 76.2405 171.785 76.1821 178.556 74.7814C181.707 74.1394 185.501 73.3807 186.96 73.1473C190.345 72.622 208.554 72.622 209.838 73.2056C210.714 73.5558 210.655 73.9643 209.021 77.6412L207.27 81.6683L200.967 82.0185C189.294 82.6605 174.353 86.8043 165.482 91.7652L162.447 93.5161L162.389 92.1737C161.922 66.9607 164.723 44.4325 170.676 25.8145C171.61 22.7213 172.544 19.8615 172.778 19.3946C173.069 18.6359 172.953 18.6359 172.194 19.2195C169.684 21.3206 164.548 38.1876 161.864 53.3621C155.794 86.9794 158.128 119.079 167.466 131.802L168.809 133.67L165.482 136.647C163.614 138.281 159.121 141.783 155.444 144.351L148.732 149.02L147.681 147.677C132.74 128.884 125.036 94.5666 127.371 56.9806C127.779 50.2688 128.188 43.4403 128.305 41.8645C128.713 36.962 127.546 41.3976 126.554 48.8097C123.169 73.8476 124.102 97.3681 129.414 119.488C132.273 131.16 136.709 142.833 140.619 148.611C141.67 150.245 142.604 151.821 142.604 152.171C142.604 152.93 132.04 157.949 125.97 160.109C121.359 161.685 111.671 164.252 107.411 164.953C105.251 165.303 105.251 165.303 105.251 163.494C105.251 160.692 108.403 151.763 111.788 145.226C113.422 141.958 117.274 136.063 120.251 132.094C125.386 125.266 125.562 125.032 123.169 126.666C120.601 128.417 120.367 128.651 115.29 134.837C108.695 142.716 103.909 151.996 102.333 159.934C100.991 166.412 100.465 166.704 92.061 164.894M154.977 140.557C151.417 138.806 147.856 132.678 145.288 123.807C143.771 118.554 143.596 117.62 142.254 108.165C140.97 98.9439 141.086 77.5829 142.604 65.2682C144.238 51.1443 149.257 30.4253 152.467 24.0636C154.335 20.4451 154.51 21.4957 152.817 25.9896C149.841 33.8687 148.031 42.0979 146.105 56.1051C144.53 67.486 144.296 71.6298 144.238 83.0107C144.238 104.955 147.331 121.18 153.459 131.219C157.136 137.23 157.778 138.456 157.778 139.623C157.778 141.199 156.903 141.491 154.977 140.557M129.53 33.2267C129.705 32.1762 130.114 30.9505 130.406 30.4836C131.106 29.258 130.522 32.4096 129.764 33.9854C129.297 34.8609 129.238 34.7441 129.53 33.2267M170.326 128.067C169.918 126.55 168.575 122.873 167.466 119.838C164.898 113.243 163.673 107.465 162.681 98.1268L162.331 94.3332L168.4 92.699C171.727 91.8235 176.513 90.7146 179.081 90.2477C184.742 89.1972 200.967 88.4385 202.251 89.1972C203.01 89.6057 202.718 90.3645 200.442 94.3915C196.123 101.862 190.287 110.266 185.151 116.453C179.139 123.69 172.486 130.869 171.785 130.869C171.435 130.869 170.793 129.585 170.326 128.067" fill="#000000" fill-rule="evenodd" opacity="1" stroke="#000000" stroke-linecap="butt" stroke-linejoin="miter" stroke-width="0.1"/>
</g>
</svg>
