<?xml version="1.0" encoding="UTF-8" standalone="no"?>
<!DOCTYPE svg PUBLIC "-//W3C//DTD SVG 1.1//EN" "http://www.w3.org/Graphics/SVG/1.1/DTD/svg11.dtd">
<!-- Created with Vectornator (http://vectornator.io/) -->
<svg height="100%" stroke-miterlimit="10" style="fill-rule:nonzero;clip-rule:evenodd;stroke-linecap:round;stroke-linejoin:round;" version="1.1" viewBox="0 0 4000 1000" width="100%" xml:space="preserve" xmlns="http://www.w3.org/2000/svg" xmlns:xlink="http://www.w3.org/1999/xlink">
<defs/>
<g id="Layer-1">
<g fill="#1c1f1a" opacity="1" stroke="none">
<path d="M1873.04 696.515L1868.84 739.215C1855.78 744.815 1839.91 749.715 1821.24 753.915C1802.58 758.115 1783.68 761.265 1764.54 763.365C1745.41 765.465 1728.38 766.515 1713.44 766.515C1675.64 766.515 1640.64 760.098 1608.44 747.265C1576.24 734.431 1548.13 716.581 1524.09 693.715C1500.06 670.848 1481.28 643.898 1467.74 612.865C1454.21 581.831 1447.44 548.115 1447.44 511.715C1447.44 475.315 1454.21 441.598 1467.74 410.565C1481.28 379.531 1500.06 352.581 1524.09 329.715C1548.13 306.848 1576.24 288.998 1608.44 276.165C1640.64 263.331 1675.64 256.915 1713.44 256.915C1728.84 256.915 1746.11 258.081 1765.24 260.415C1784.38 262.748 1803.04 265.898 1821.24 269.865C1839.44 273.831 1854.84 278.381 1867.44 283.515L1863.94 322.715L1859.74 322.715C1842.48 306.848 1820.78 294.715 1794.64 286.315C1768.51 277.915 1741.44 273.715 1713.44 273.715C1671.44 273.715 1634.46 283.631 1602.49 303.465C1570.53 323.298 1545.56 351.065 1527.59 386.765C1509.63 422.465 1500.64 464.115 1500.64 511.715C1500.64 559.781 1509.63 601.548 1527.59 637.015C1545.56 672.481 1570.41 700.131 1602.14 719.965C1633.88 739.798 1670.98 749.715 1713.44 749.715C1745.18 749.715 1774.69 744.581 1801.99 734.315C1829.29 724.048 1851.58 711.448 1868.84 696.515L1873.04 696.515Z"/>
<path d="M2006.04 266.715L2053.64 266.715L2053.64 562.115C2053.64 618.581 2067.53 662.565 2095.29 694.065C2123.06 725.565 2162.14 741.315 2212.54 741.315C2244.28 741.315 2271.93 735.131 2295.49 722.765C2319.06 710.398 2337.26 693.248 2350.09 671.315C2362.93 649.381 2368.88 624.181 2367.94 595.715L2356.04 266.715L2403.64 266.715L2391.74 595.715C2389.88 651.715 2373.19 694.181 2341.69 723.115C2310.19 752.048 2265.28 766.515 2206.94 766.515C2143.94 766.515 2094.71 748.198 2059.24 711.565C2023.78 674.931 2006.04 624.648 2006.04 560.715L2006.04 266.715Z"/>
<path d="M2571.64 266.715L2665.44 266.715C2714.91 266.715 2753.29 277.098 2780.59 297.865C2807.89 318.631 2821.54 347.681 2821.54 385.015C2821.54 413.948 2813.03 437.981 2795.99 457.115C2778.96 476.248 2754.34 489.081 2722.14 495.615L2722.14 499.815C2752.94 505.881 2778.14 520.348 2797.74 543.215C2817.34 566.081 2832.04 594.315 2841.84 627.915C2850.71 658.715 2859.46 682.631 2868.09 699.665C2876.73 716.698 2886.29 728.948 2896.79 736.415C2907.29 743.881 2919.78 749.248 2934.24 752.515L2934.24 756.715L2905.54 756.715C2885.01 756.715 2868.09 752.981 2854.79 745.515C2841.49 738.048 2830.18 725.448 2820.84 707.715C2811.51 689.981 2802.64 665.481 2794.24 634.215C2780.71 586.148 2762.74 552.081 2740.34 532.015C2717.94 511.948 2690.64 501.915 2658.44 501.915L2654.24 501.915L2654.24 489.315L2658.44 489.315C2733.58 489.315 2771.14 454.781 2771.14 385.715C2771.14 317.581 2735.91 283.515 2665.44 283.515L2619.24 283.515L2619.24 756.715L2571.64 756.715L2571.64 266.715Z"/>
<path d="M3021.04 756.715L3021.04 266.715L3068.64 266.715L3068.64 756.715L3021.04 756.715Z"/>
<path d="M3215.64 511.715C3215.64 475.781 3222.06 442.298 3234.89 411.265C3247.73 380.231 3265.69 353.165 3288.79 330.065C3311.89 306.965 3338.96 288.998 3369.99 276.165C3401.03 263.331 3434.51 256.915 3470.44 256.915C3506.38 256.915 3539.86 263.331 3570.89 276.165C3601.93 288.998 3628.99 306.965 3652.09 330.065C3675.19 353.165 3693.16 380.231 3705.99 411.265C3718.83 442.298 3725.24 475.781 3725.24 511.715C3725.24 547.648 3718.83 581.131 3705.99 612.165C3693.16 643.198 3675.19 670.265 3652.09 693.365C3628.99 716.465 3601.93 734.431 3570.89 747.265C3539.86 760.098 3506.38 766.515 3470.44 766.515C3434.51 766.515 3401.03 760.098 3369.99 747.265C3338.96 734.431 3311.89 716.465 3288.79 693.365C3265.69 670.265 3247.73 643.198 3234.89 612.165C3222.06 581.131 3215.64 547.648 3215.64 511.715ZM3268.84 511.715C3268.84 559.315 3277.24 600.965 3294.04 636.665C3310.84 672.365 3334.41 700.131 3364.74 719.965C3395.08 739.798 3430.31 749.715 3470.44 749.715C3510.58 749.715 3545.81 739.798 3576.14 719.965C3606.48 700.131 3630.04 672.248 3646.84 636.315C3663.64 600.381 3672.04 558.848 3672.04 511.715C3672.04 464.581 3663.64 423.165 3646.84 387.465C3630.04 351.765 3606.48 323.881 3576.14 303.815C3545.81 283.748 3510.58 273.715 3470.44 273.715C3430.31 273.715 3395.19 283.631 3365.09 303.465C3334.99 323.298 3311.43 351.065 3294.39 386.765C3277.36 422.465 3268.84 464.115 3268.84 511.715Z"/>
</g>
<path d="M1193.89 328.189L1294.17 347.614C1294.17 347.614 1191.3 389.114 1110.57 453.061C1029.83 517.007 948.712 616.472 948.712 616.472L871.975 572.287L768.247 494.798L883.57 548.3L1070 423.751L1193.89 328.189Z" fill="#cf5656" fill-rule="nonzero" opacity="1" stroke="none"/>
<path d="M837.583 33.8967L851.238 146.096L761.53 143.058C761.53 143.058 797.844 69.5946 817.193 43.1632C836.542 16.7319 837.583 33.8967 837.583 33.8967Z" fill="#cca690" fill-rule="nonzero" opacity="1" stroke="none"/>
<path d="M1106.6 201.379C1100.75 209.267 1070.83 230.318 1055.87 243.995C1034.28 263.736 1027.03 275.855 1027.03 275.855L1001.29 220.19L1041.64 202.432L1091.97 189.167C1091.97 189.167 1120.89 182.107 1106.6 201.379Z" fill="#cca690" fill-rule="nonzero" opacity="1" stroke="none"/>
<path d="M240.601 403.235C240.601 403.235 245.345 540.109 342.876 671.418C440.407 802.728 465.458 908.571 648.977 932.829C741.458 945.054 789.404 941.156 894.748 902.416C1000.09 863.676 1070.35 777.868 1070.35 777.868L1103.95 683.491C1103.95 683.491 1110.12 682.503 1117.31 690.113C1119.75 692.695 1129.06 696.607 1121.76 721.398C1114.46 746.189 1117.35 750.617 1087.25 789.205C1057.16 827.793 1004.96 873.255 1004.96 873.255C1004.96 873.255 964.617 915.418 861.171 947.937C765.937 977.874 702.19 983.664 612.445 972.141C527.702 961.261 439.489 942.159 363.794 851.29C288.099 760.422 253.478 675.943 253.478 675.943C253.478 675.943 220.068 602.933 219.698 534.924C219.329 466.914 240.601 403.235 240.601 403.235Z" fill="#766d60" fill-rule="nonzero" opacity="1" stroke="none"/>
<path d="M628.554 857.855L672.099 832.896C672.099 832.896 699.047 817.761 724.968 790.905C750.888 764.049 747.966 745.841 775.039 732.335C802.111 718.829 830.652 742.317 855.173 743.762C879.695 745.208 880.977 728.291 880.977 728.291C880.977 728.291 828.21 696.373 794.606 690.449C761.002 684.525 758.578 689.169 736.622 717.777C717.515 742.674 721.57 749.651 686.679 786.154C651.788 822.657 606.998 850.608 606.998 850.608L628.554 857.855Z" fill="#766d60" fill-rule="nonzero" opacity="1" stroke="none"/>
<path d="M1011.73 497.826C1011.73 497.826 986.117 521.63 964.617 558.698C943.117 595.766 943.825 606.258 925.728 646.097C907.63 685.936 893.619 714.355 893.619 714.355C893.619 714.355 893.763 693.919 912.326 646.115C930.889 598.311 938.785 559.684 966.48 526.839C994.176 493.994 1011.73 497.826 1011.73 497.826Z" fill="#766d60" fill-rule="nonzero" opacity="1" stroke="none"/>
<path d="M599.939 349.544C599.939 349.544 595.871 377.871 640.93 414.921C656.215 427.489 682.301 432.015 699.912 442.788C734.217 463.772 757.91 486.725 757.91 486.725C757.91 486.725 784.239 483.029 813.259 495.162C842.28 507.296 882.637 540.506 882.637 540.506C882.637 540.506 866.8 515.362 831.891 490.987C796.982 466.612 776.216 466.041 731.535 442.484C686.853 418.927 686.769 418.813 653.165 396.759C619.561 374.704 599.939 349.544 599.939 349.544Z" fill="#766d60" fill-rule="nonzero" opacity="1" stroke="none"/>
<path d="M702.562 276.113C702.562 276.113 705.375 301.476 724.968 332.031C744.56 362.586 788.604 403.235 788.604 403.235C788.604 403.235 825.925 428.193 849.184 438.732C872.443 449.272 881.639 445.393 881.639 445.393L840.248 420.301C840.248 420.301 856.696 430.566 888.139 423.842C919.582 417.117 944.457 407.455 973.133 384.385C992.475 368.825 1008.26 350.356 1016.7 327.762C1025.71 303.64 1027.95 298.036 1026.71 275.855C1025.47 253.674 1011.73 239.038 1011.73 239.038C1011.73 239.038 1000.01 327.075 963.271 365.774C926.532 404.474 908.56 390.467 861.171 385.25C813.783 380.034 773.716 344.909 773.716 344.909L702.562 276.113Z" fill="#766d60" fill-rule="nonzero" opacity="1" stroke="none"/>
<path d="M882.637 83.6839C882.637 83.6839 917.443 94.1379 947.383 113.802C977.322 133.465 1002.4 165.259 1002.4 165.259L1080.66 184.752L1011.29 210.356C1011.29 210.356 1010.13 225.83 1013.34 243.902C1016.55 261.973 1005.07 327.449 985.992 351.974C957.411 388.717 912.326 396.759 912.326 396.759C912.326 396.759 873.074 430.119 822.55 401.59C772.025 373.061 720.735 324.898 705.06 273.06C704.913 272.575 719.78 339.299 761.53 379.291C805.972 421.859 882.637 447.454 882.637 447.454L912.326 477.05L893.619 522.532L885.787 541.75L860.959 519.883C860.959 519.883 829.202 493.686 817.193 486.725C782.699 466.733 706.258 436.077 670.188 411.578C617.708 375.934 599.844 351.974 599.844 351.974C599.844 351.974 627.161 400.35 640.93 411.578C650.158 419.105 670.914 426.993 689.742 439.087C721.079 459.215 723.532 455.145 752.037 484.036C780.542 512.927 803.762 554.65 803.762 554.65C803.762 554.65 836.46 596.219 849.184 603.36C861.908 610.502 868.089 587.579 868.089 587.579C868.089 587.579 893.04 526.346 908.481 495.162C923.923 463.978 920.484 472.465 929.854 462.842C939.224 453.219 951.575 445.543 951.575 445.543C951.575 445.543 977.46 433.639 980.44 435.36C988.148 439.813 987.081 439.087 987.081 439.087C987.081 439.087 999.574 438.298 1004.84 441.331C1012.3 445.636 1016.46 456.53 1018.02 460.63C1018.65 462.273 1029.55 466.734 1021.61 484.036C1014.68 499.117 988.407 499.268 967.412 530.765C946.416 562.262 954.212 562.258 929.854 612.713C899.606 675.37 894.748 703.689 894.748 703.689C894.748 703.689 887.707 736.705 861.171 734.679C834.635 732.654 821.013 697.137 788.604 695.587C756.195 694.037 735.348 720.694 731.535 728.479C700.742 791.334 613.587 851.075 613.587 851.075C613.587 851.075 687.939 875.92 775.039 857.986C888.981 834.525 957.63 772.316 1053.24 699.667C1089.14 672.384 1103.5 678.936 1103.92 689.329C1105.36 725.104 1055.81 864.655 912.326 903.692C768.843 942.728 671.989 979.458 527.702 904.444C383.414 829.43 305.486 630.911 305.486 630.911C305.486 630.911 224.604 517.396 243.448 392.399C262.292 267.403 296.36 198.961 380.862 130.924C465.363 62.8875 518.31 49.4333 618.589 25.8031C718.868 2.17301 807.473 60.4314 807.473 60.4314L770.497 138.291C770.497 138.291 784.963 132.52 807.473 133.66C829.983 134.8 849.184 143.442 849.184 143.442C849.184 143.442 841.318 110.959 839.43 83.6839C837.542 56.4091 841.634 34.3429 841.634 34.3429L882.637 83.6839Z" fill="#a39f8d" fill-rule="nonzero" opacity="1" stroke="none"/>
<path d="M880.942 82.6906C880.942 82.6906 899.152 116.718 905.389 134.9C906.865 140.393 903.797 147.991 900.971 150.464C899.108 152.094 897.119 150.399 896.08 148.368C895.615 147.125 892.61 138.114 891.655 134.85C891.809 134.695 888.468 125.878 886.754 120.884C881.97 109.339 871.538 86.9593 871.538 86.9593L858.079 61.8064C858.079 61.8064 851.961 50.6773 848.831 45.1613C848.435 44.6853 843.483 35.2396 839.486 31.919C839.333 32.1519 839.174 32.3848 839.021 32.6177C841.978 41.5833 848.086 59.8084 848.086 59.8084C848.086 59.8084 861.638 104.727 868.093 128.127C869.263 132.586 868.058 138.542 866.27 142.778C865.184 144.175 857.217 150.935 853.22 140.27C849.224 129.604 848.459 118.257 844.239 105.083C839.032 85.3388 838.824 85.2527 834.331 70.098C829.837 54.9432 831.494 58.7257 828.635 47.4276C827.079 41.2804 825.381 40.1518 823.63 42.1534C821.52 44.1092 813.635 61.8542 813.635 61.8542C813.635 61.8542 796.965 97.5405 788.948 108.278C780.54 119.539 775.599 129.514 771.831 133.88C762.362 144.855 764.028 135.791 764.028 135.791C764.028 135.791 763.795 131.722 764.726 129.736C774.834 105.25 794.168 70.5318 794.168 70.5318C794.168 70.5318 785.766 64.2211 773.105 60.1142C760.443 56.0072 737.946 47.6186 699.882 48.3073C686.931 48.5416 646.518 50.8013 608.993 62.7735C536.224 85.9897 447.899 131.493 406.641 169.814C344.107 227.896 336.907 242.954 296.574 312.842C252.96 388.417 243.82 483.555 243.82 483.555C243.82 483.555 240.37 534.06 253.004 583.4C267.6 640.406 299.269 698.689 311.381 721.555C333.976 764.214 362.664 797.481 362.664 797.481C362.664 797.481 398.345 839.597 440.441 873.892C482.537 908.186 506.903 916.603 533.477 928.402C550.366 934.983 584.463 947.866 640.554 951.369C670.374 953.231 718.431 954.618 765.232 946.061C816.651 936.659 866.791 916.618 895.164 904.017C950.844 879.289 994.432 846.964 994.432 846.964C994.432 846.964 1041.21 810.587 1054.24 792.324C1070.08 770.135 1077.17 762.224 1090.91 736.077C1104.65 709.931 1105.7 696.927 1100.44 692.912C1097.71 691.383 1077.03 700.528 1056.82 715.007C1032.75 732.249 1007.71 756.26 991.663 767.814C974.162 780.411 924.667 815.341 885.846 830.909C867.858 838.123 829.748 859.887 782.316 870.247C750.91 877.106 734.005 882.311 697.759 879.251C661.513 876.191 650.407 872.819 626.593 864.968C602.667 857.08 600.524 852.791 600.524 852.791C600.524 852.791 592.506 854.337 587.045 855.375C579.759 856.759 571.206 856.941 570.261 856.811C570.231 856.646 581.665 853.263 591.812 848.765C601.752 844.36 614.775 838.924 614.775 838.924C614.775 838.924 636.234 828.03 662.41 811.179C691.114 792.699 710.964 765.209 715.959 755.661C727.649 733.31 734.303 720.254 740.628 711.488C756.619 693.024 778.314 707.41 801.291 716.404C815.563 722.064 829.379 728.585 842.747 735.968C851.415 739.759 859.8 739.135 867.9 734.104C872.418 731.608 878.38 718.901 878.38 718.901C878.38 718.901 894.897 691.253 901.67 676.306C909.332 658.913 921.377 631.389 921.377 631.389C921.377 631.389 942.464 576.079 955.236 551.28C966.83 530.841 980.725 512.13 996.925 495.152C1002.53 490.317 1008.28 485.659 1014.16 481.178C1018.89 477.74 1021.95 474.577 1018.62 469.789C1014.97 465.089 1011.11 463.098 1005.32 463.33C1003.19 463.415 998.69 465.923 995.704 466.195C992.718 466.466 991.192 462.872 989.874 462.467C991.486 461.548 993.707 460.54 995.941 459.636C997.862 458.858 999.451 457.591 1003.43 456.513C1008.81 455.053 1013.07 456.797 1013.07 456.797C1013.07 456.797 1014.82 458.23 1017.96 455.668C1021.1 453.106 1023.62 450.515 1027.2 447.641C1027.78 447.105 1050.49 429.94 1050.49 429.94L1069.59 415.268L1090.08 398.732L1112.44 384.293L1134.33 370.319L1153.9 359.373C1153.9 359.373 1167.64 352.413 1169.11 351.678C1171.02 350.157 1155.63 304.21 1155.63 304.21L1170.85 295.543C1171.15 296.725 1171.68 305.634 1173.33 313.964C1175.47 324.852 1182.08 335.92 1182.08 335.92C1182.08 335.92 1185.12 341.152 1185.95 344.051C1186.37 344.954 1190.86 347.654 1191.1 348.199C1191.52 349.175 1190.07 354.189 1189.63 355.612C1186.42 357.172 1164.93 369.04 1143.92 382.618C1130.04 391.593 1108.81 405.486 1108.81 405.486C1108.81 405.486 1083.63 423.109 1071.68 431.537C1057.99 441.181 1045.25 452.156 1030.73 463.764C1029.25 465.171 1021.99 459.835 1020.68 461.382C1021.15 461.837 1027.46 463.517 1030.45 466.406C1033.89 469.735 1033.99 474.471 1033.16 477.517C1031.44 483.684 1026.17 490.148 1020.91 493.763C1013.06 498.696 991.047 522.557 991.047 522.557L965.188 558.482C965.188 558.482 982.638 535 998.754 519.028C1009.6 508.279 1030.28 489.071 1037.4 482.747C1046.8 474.404 1080.2 443.419 1120.01 416.199C1155.21 392.132 1196.98 371.555 1208.86 364.263C1214.4 361.265 1225.16 355.18 1225.16 355.18C1225.16 355.18 1227.18 354.244 1223.77 353.317C1216.13 351.242 1204.84 347.363 1195.82 343.303C1192.13 341.632 1189.57 338.915 1188.13 335.151C1187.64 332.105 1188.96 330.397 1192.09 330.028C1199.68 332.261 1206.77 334.22 1214.92 336.316C1223.07 338.412 1218.82 337.422 1225.16 338.878C1231.51 340.333 1234.1 340.226 1241 342.292C1247.59 344.599 1289.64 352.793 1284.1 359.984C1281.89 362.212 1259.33 368.027 1254.02 371.403C1241.68 378.077 1239.18 379.575 1226.84 386.099C1212.32 394.935 1174.39 414.557 1137.17 439.832C1094.96 468.492 1053.22 503.207 1039.3 515.645C1013.1 539.051 972.675 577.421 952.898 603.058C951.686 604.353 952.395 607.718 939.711 638.441C927.026 669.165 924.974 688.969 902.159 725.953C894.357 737.039 877.092 759.389 859.624 758.772C848.546 758.381 812.556 740.124 797.492 734.488C773.517 726.383 761.49 722.447 747.949 743.964C742.552 752.538 734.144 779.429 717.75 798.296C700.594 818.039 675.42 829.662 669.336 833.083C655.084 841.096 638.997 845.039 638.101 845.412C658.335 851.551 701.961 852.198 709.995 852.183C734.283 852.138 761.88 847.834 787.317 840.306C798.496 836.997 874.468 809.614 902.834 794.192C932.804 778.504 961.217 760.338 988.075 739.694C995.157 734.126 1026.51 705.36 1055.21 687.499C1066.4 680.54 1083.29 671.453 1095.72 670.252C1099.75 669.863 1108.25 670.75 1113.74 675.606C1119.39 680.603 1121.98 689.68 1122.92 697.074C1124.79 711.653 1120.36 729.286 1118.03 735.594C1110.24 756.704 1096.61 774.009 1093.34 779.598C1091.97 781.49 1069.93 813.999 1044.44 838.996C1016.37 866.516 996.79 881.268 988.541 886.419C983.494 889.133 955.796 907.218 925.3 921.954C895.293 936.453 862.551 947.591 849.268 952.096C834.535 957.093 795.308 968.075 755.135 974.578C722.276 979.897 688.401 981.378 669.984 981.155C651.313 980.929 610.78 982.734 555.331 969.711C499.882 956.689 466.275 939.105 448.189 929.063C411.818 908.871 383.248 883.056 381.46 881.624C360.782 861.805 346.739 846.277 325.022 818.911C303.304 791.546 277.122 751.782 263.323 724.183C256.744 711.024 239.017 678.137 228.277 649.623C223.806 637.753 213.733 596.745 210.308 574.985C204.705 539.395 207.031 520.535 207.636 507.029C212.355 463.567 221.361 421.492 234.654 380.804C246.478 344.614 261.693 309.523 280.3 275.53C288.443 261.792 295.089 251.075 305.919 235.005C316.748 218.936 323.619 211.25 323.619 211.25C323.619 211.25 362.131 168.28 396.774 139.518C431.418 110.755 476.458 85.3689 512.033 71.2786C531.039 63.7508 569.299 45.6173 605.199 35.5534C636.496 26.78 666.173 25.5466 677.488 24.7313C700.728 23.0566 720.729 27.3619 733.617 29.5991C765.654 35.1599 797.099 48.4547 797.099 48.4547C797.099 48.4547 802.809 50.7299 802.981 51.1566C807.923 43.5027 819.457 23.1631 823.249 19.7425C830.232 16.3776 835.369 22.8094 837.856 30.0558C838.08 29.6142 838.695 26.984 840.15 27.2751C841.606 27.5663 841.075 27.2017 844.182 30.5289C847.29 33.8561 851.611 39.5173 852.58 40.584C860.117 48.9706 871.039 66.1456 871.859 67.3194C874.659 72.6066 880.942 82.6906 880.942 82.6906Z" fill="#0a0b08" fill-rule="evenodd" opacity="1" stroke="none"/>
<path d="M918.234 92.3202C925.249 94.935 939.578 99.7855 953.343 106.774C964.713 112.547 975.698 120.213 981.861 125.439C995.485 136.992 996.355 137.42 1003.57 147.027C1010.79 156.634 1008.26 162.792 1008.26 162.792L1013.43 162.103C1013.43 162.103 1019.08 161.139 1030.95 162.37C1040.26 163.336 1039.35 163.056 1056.16 166.001C1072.98 168.945 1095.73 173.52 1098.22 174.149C1103.6 175.509 1106.07 175.76 1110.69 176.432C1111.87 177.156 1113.14 180.175 1113.66 181.469C1114.37 184.224 1114.37 188.037 1113.96 190.871C1113.14 193.767 1110.99 195.701 1108.09 196.532C1106.43 196.756 1101.93 197.073 1101.93 197.073C1101.93 197.073 1098.83 203.027 1097.51 204.425C1086.56 216.016 1072.76 232.38 1058.07 246.134C1055.73 248.893 1050.77 252.394 1047.38 256.425C1043.15 261.45 1040.57 266.962 1039.33 268.968C1055.82 270.386 1059.95 268.823 1079.16 270.407C1098.36 271.99 1099.57 272.458 1116.16 275.302C1132.76 278.145 1147.24 282.745 1147.24 282.745C1147.24 282.745 1168.06 288.539 1173.88 292.107C1179.7 295.676 1163.16 300.75 1161.6 301.409C1158.27 302.807 1127.04 318.331 1120.58 321.533C1114.12 324.736 1097.04 333.307 1097.04 333.307C1097.04 333.307 1056.89 355.678 1050.27 359.542C1043.83 363.303 1023.7 374.748 1007.96 385.52C1004.31 388.022 1001.01 390.45 998.163 392.639C991.141 398.04 986.643 401.566 986.643 401.566C986.643 401.566 992.265 403.354 999.506 406.332C1005.92 408.97 1013.53 412.64 1020.63 415.384C1024.99 416.981 1037.3 423.618 1040.86 426.524C1041.17 426.836 1041.14 427.197 1040.83 427.509C1034.3 423.522 1026.9 420.268 1019.61 417.892C1006.23 413.123 995.819 408.376 982.181 404.763C981.378 405.432 977.104 408.271 976.198 408.842C986.572 413.328 995.683 417.143 1005.08 422.458C1009.16 424.77 1011.9 426.86 1016.15 429.334C1020.72 432.437 1026.96 437.278 1030.93 441.163C1031.5 441.805 1031.41 443.466 1030.99 444.067C1023.79 437.905 1016.39 432.457 1008.06 427.906C1007.72 427.731 999.972 423.115 999.632 422.941C988.56 417.291 983.995 416.024 972.48 411.32C970.156 412.717 965.25 416.768 964.337 417.383C962.334 418.762 960.879 419.379 959.155 421.103C962.477 423.311 966.059 424.784 969.571 426.768C970.964 426.497 980.602 423.791 980.816 423.729C985.772 422.35 988.904 423.953 988.14 428.905C987.586 430.866 985.647 433.216 983.873 434.204C992.425 431.889 1000.6 430.247 1009.13 432.869C1017.45 435.827 1021.92 440.468 1022.91 449.308C1022.8 450.099 1021.44 453.219 1019.25 455.232C1016.93 457.37 1013.77 458.339 1013.35 456.66C1011.41 452.234 1011.05 444.27 1002.51 441.818C990.65 438.414 976.618 441.352 965.401 450.267C964.229 451.199 963.018 452.164 961.877 453.243C961.956 453.312 960.915 450.988 961.465 449.711C962.41 447.515 962.785 446.771 965.836 444.077C968.887 441.382 969.555 441.035 973.006 439.043C976.458 437.051 979.642 436.108 979.642 436.108C979.642 436.108 973.583 436.251 968.572 437.678C963.561 439.105 955.971 443.617 955.435 444.372C955.264 444.613 963.691 455.778 963.691 455.778C963.691 455.778 964.682 457.563 964.026 457.035C963.389 456.523 961.732 454.963 961.733 454.973C958.859 452.099 956.07 449.286 953.196 446.412C952.884 446.1 941.589 453.615 935.673 459.9C933.281 462.441 926.302 469.629 921.874 476.422C915.347 486.433 911.108 497.043 908.691 502.557C898.733 527.84 891.493 557.998 881.269 583.02C877.212 592.224 871.835 605.351 866.576 613.847C864.783 616.73 855.16 635.283 851.376 634.239C847.592 633.194 841.333 617.868 841.333 617.868C841.333 617.868 845.051 615.032 848.613 611.548C849.648 610.535 851.629 608.108 852.61 606.995C856.828 602.209 859.12 597.914 859.49 597.368C860.688 595.601 865.363 588.39 867.99 582.688C869.059 580.368 854.22 569.512 838.015 558.568C821.81 547.624 802.436 537.671 803.17 538.911C803.516 539.494 813.269 549.935 819.72 557.912C828.845 569.197 835.711 579.227 837.634 581.251C840.617 584.39 856.348 602.471 856.348 602.471C856.348 602.471 852.057 608.116 848.88 611.29C845.703 614.463 841.284 617.879 841.284 617.879C841.284 617.879 815.509 584.413 810.073 578.437C802.376 569.976 765.446 521.804 747.686 501.658C732.128 485.239 712.419 467.761 693.041 456.386C652.471 431.765 614.529 426.489 566.909 426.112C538.905 425.478 512.964 433.548 491.918 445.887C466.74 460.647 464.102 459.875 456.784 464.859C456.008 465.171 455.059 456.851 464.993 446.623C474.927 436.396 488.603 428.405 496.522 423.948C516.096 414.008 536.901 408.573 558.938 407.645C637.2 404.065 699.577 418.908 754.844 473.727C758.626 473.238 776.143 475.294 799.001 483.768C821.859 492.242 838.685 503.496 848.197 511.051C857.047 518.081 868.095 524.452 874.523 529.562C876.074 530.616 882.784 534.687 884.156 540.478C884.176 540.561 883.781 551.813 877.759 549.608C871.727 547.401 864.305 542.337 850.905 533.941C850.905 533.941 823.643 518.197 812.529 513.498C788.604 503.381 780.237 502.2 780.237 502.2L796.831 513.172C796.831 513.172 872.528 564.902 873.094 566.668C873.704 568.569 879.949 556.112 883.79 543.413C885.305 538.402 888.07 529.004 888.368 521.389C888.571 516.206 886.94 512.048 885.693 509.887C885.381 509.267 882.56 505.14 882.872 504.52C884.135 503.854 886.341 504.236 888.23 506.338C890.081 508.4 890.758 508.4 891.997 511.19C896.618 498.069 898.013 491.892 904.883 479.861C905.195 479.241 907.129 476.376 906.817 475.757C900.542 469.483 896.772 466.719 890.104 460.844C884.412 456.265 882.157 454.817 872.841 447.946C863.525 441.076 857.299 438.267 850.345 433.953C841.397 429.407 824.717 417.843 824.717 417.843L800.277 403.653C800.277 403.653 798.938 401.921 799.156 401.23C799.375 400.54 799.547 400.693 801.152 400.891C802.757 401.089 803.239 401.36 806.511 402.381C811.345 403.89 820.249 407.645 820.249 407.645L850.993 422.53C850.993 422.53 866.618 430.471 878.729 438.855C890.84 447.24 894.964 449.18 894.964 449.18C894.964 449.18 898.479 449.378 899.985 449.463C901.491 449.548 904.737 449.489 904.737 449.489L918.446 440.468C918.446 440.468 922.335 437.923 925.918 435.025C928.899 432.615 931.364 430.461 932.807 429.236C930.722 427.436 928.901 426.217 926.848 424.532C923.427 421.724 920.518 419.603 920.518 419.603C920.518 419.603 906.847 423.275 897.146 425.407C887.445 427.54 887.712 427.233 881.9 428.047C877.083 428.722 872.471 428.758 870.977 428.543C867.679 428.069 863.414 424.652 862.194 423.841C861.575 423.222 862.926 421.031 865.016 420.418C867.106 419.804 868.165 419.782 871.076 419.549C873.987 419.316 873.624 419.28 878.573 418.698C883.522 418.116 896.742 415.638 896.742 415.638C896.742 415.638 908.517 413.351 911.098 412.583C903.992 407.618 898.711 403.343 891.635 399.575C889.511 397.621 890.17 396.375 892.913 396.466C900.305 400.704 915.881 411.379 915.881 411.379C915.881 411.379 918.335 410.956 920.836 409.98C923.337 409.004 924.42 408.529 924.42 408.529C924.42 408.529 915.501 403.155 905.955 398.912C902.308 397.29 897.985 395.392 895.147 394.36C892.995 392.274 893.868 390.964 896.64 390.876C907.781 395.555 928.828 406.334 928.828 406.334C928.828 406.334 932.122 404.845 934.933 403.346C937.743 401.848 940.071 400.342 940.071 400.342C940.071 400.342 942.796 401.036 932.432 398.23C922.068 395.424 911.479 393.039 900.616 390.4C899.456 389.494 899.36 387.486 899.9 386.218C915.234 389.586 929.052 393.369 944.148 397.919C945.611 397.546 948.147 395.331 948.147 395.331C948.147 395.331 919.054 388.978 904.558 386.218C903.072 385.74 902.874 383.565 903.121 382.025C904.835 381.948 906.946 382.061 908.646 382.294C923.421 385.699 939.431 389.113 953.289 391.444C962.323 387.451 975.359 374.55 975.359 374.55C975.359 374.55 986.313 365.073 994.918 352.017C1003.52 338.962 1009.78 320.431 1009.78 320.431C1009.78 320.431 1020.11 283.362 1022.17 270.766C1022.67 268.476 1022.81 265.443 1027.09 258.993C1031.37 252.543 1035.25 249.624 1039.29 244.966C1044.53 240.194 1048.86 234.743 1060.13 225.121C1071.39 215.499 1074.92 213.614 1082.72 206.685C1090.52 199.757 1095.74 198.364 1096.25 197.409C1095.64 196.884 1077.72 199.834 1077.72 199.834C1077.72 199.834 1059.72 203.516 1042.98 208.889C1026.24 214.262 1021.09 218.758 1011.76 224.587C1009.05 226.922 1006.23 227.538 1002.54 228.413C1001.63 227.969 999.107 225.631 998.881 224.82C997.661 218.026 999.157 212.259 1004.57 208.029C1008.76 205.463 1025.31 195.602 1031.71 193.157C1038.12 190.712 1048.73 187.86 1059.21 185.354C1069.69 182.847 1070.43 184.254 1073.64 183.132C1069.29 181.729 1070.52 181.311 1058.32 177.855C1048.09 174.956 1014.76 172.674 1008.34 173.133C1004.45 173.411 1000.3 172.945 1000.15 173.256C999.685 172.79 1000.5 172.106 995.416 165.071C992.784 161.426 980.105 146.124 961.071 133.507C943.363 121.768 919.366 112.66 913.226 109.535C900.486 103.051 895.316 100.995 893.155 100.38C895.33 99.518 891.893 90.86 894.026 90.8946C897.128 90.945 905.425 87.5458 918.234 92.3202Z" fill="#0a0b08" fill-rule="evenodd" opacity="1" stroke="none"/>
<path d="M704.041 236.65C704.695 252.672 704.294 262.763 708.211 276.899C726 283.659 742.626 292.617 759.46 301.539C769.423 307.312 778.572 313.703 787.24 321.283C789.104 322.369 791.565 323.877 793.428 324.963C794.411 325.552 794.649 327.542 794.598 328.661C792.413 328.475 790.09 328.173 788.241 326.961C777.09 317.813 765.147 309.952 752.697 302.641C748.048 300.255 741.96 296.642 735.823 293.658C722.708 287.281 709.368 281.6 709.368 281.6C709.368 281.6 713.489 294.545 716.256 300.664C739.965 306.002 761.702 315.176 782.709 327.227C784.624 328.536 786.757 330.124 788.415 331.766C788.643 332.368 788.617 333.611 788.542 334.25C787.541 334.31 785.628 334.887 784.767 334.362C767.565 323.2 752.236 316.138 734.689 309.938C725.223 306.987 722.347 305.932 718.195 304.998C720.743 310.559 722.933 315.683 725.975 320.991C738.449 322.009 748.388 323.716 761.992 327.496C775.596 331.277 776.421 333.184 780.391 336.114C780.917 336.973 781.52 338.33 781.46 339.334C780.668 339.409 779.042 340.46 778.282 340.23C762.035 331.355 746.797 326.955 728.263 326.204C732.813 333.704 735.88 339.111 740.798 346.361C746.332 354.062 752.467 361.126 759.197 367.555C759.64 367.78 765.315 373.113 771.774 379.258C778.232 385.403 786.429 392.367 786.429 392.367C786.429 392.367 789.783 396.28 786.348 396.688C782.913 397.096 778.828 396.281 771.556 393.324C764.284 390.368 762.501 388.122 757.261 384.862C752.02 381.601 747.903 378.1 737.089 366.861C723.152 352.378 721.567 345.705 711.38 323.677C698.063 322.165 683.919 321.885 670.527 321.378C671.789 320.886 672.053 319.899 677.322 319.348C682.591 318.798 687.234 319.155 691.604 319.177C697.644 319.209 702.996 319.609 709.793 319.816C707.156 313.478 704.716 308.376 702.075 301.983C690.231 298.856 671.797 294.502 660.278 291.796C656.231 290.846 655.18 289.752 655.18 289.752C655.18 289.752 662.182 290.468 665.573 291.164C677.856 293.637 700.795 298.129 701.107 297.974C698.773 291.109 697.007 283.984 695.614 276.875C688.003 273.743 676.295 270.316 668.381 268.014C670.109 267.809 672.834 268.035 679.414 269.223C685.994 270.412 694.7 272.768 694.7 272.768C694.7 272.768 692.969 262.96 692.638 250.042C692.33 238.011 691.956 235.032 692.547 225.017C694.671 208.351 698.185 195.451 704.911 179.977C708.386 173.407 711.377 169.11 715.337 163.055C719.296 156.999 721.47 154.882 721.47 154.882C721.47 154.882 728.018 146.135 724.224 156.652C722.362 161.813 714.529 177.158 709.916 193.705C705.127 210.882 703.597 229.311 704.041 236.65Z" fill="#0a0b08" fill-rule="evenodd" opacity="1" stroke="none"/>
<path d="M787.315 240.265C787.886 240.452 793.32 254.505 795.23 258.218C796.79 261.25 795.058 258.305 802.502 266.337C809.945 274.369 819.434 276.078 825.122 287.817C825.434 288.683 829.248 296.732 830.522 302.553C831.604 307.496 830.082 312.845 830.038 313.744C829.805 318.519 827.523 320.889 827.09 324.155C826.899 325.318 822.445 328.37 821.551 329.07C821.411 324.893 822.914 320.697 822.572 315.839C821.296 309.781 819.917 305.67 813.466 299.427C806.213 292.407 802.564 293.743 796.567 285.767C790.57 277.79 790.353 274.376 788.201 269.141C786.65 264.099 785.61 245.161 787.315 240.265Z" fill="#0a0b08" fill-rule="evenodd" opacity="1" stroke="none"/>
<path d="M595.054 346.859C583.164 327.045 580.014 305.463 586.159 283.045C586.493 282.602 589.077 275.752 589.519 276.039C589.5 281.53 589.256 291.178 589.953 300.462C590.611 309.242 592.214 315.425 593.519 320.018C596.416 330.209 598.37 333.19 601.76 340.207C604.057 344.962 607.608 349.09 607.727 349.719C608.021 351.277 607.559 351.005 606.97 351.149C613.568 357.437 615.063 360.568 621.351 367.167C629.134 376.192 641.004 386.567 646.574 397.105C647.147 399.01 652.083 404.356 649.498 407.923C646.912 411.49 639.653 412.145 636.232 411.372C634.489 410.561 626.254 406.595 625.047 405.076C600.452 369.363 578.665 344.548 545.966 315.825C544.011 314.179 539.769 309.96 537.088 307.082C532.316 301.957 528.015 297.906 527.702 297.951C527.702 297.174 527.702 296.398 527.702 295.622C529.973 296.406 532.147 297.415 534.223 298.65C542.294 303.72 557.978 314.487 557.978 314.487C557.978 314.487 566.875 321.299 576.144 329.392C585.413 337.485 588.77 341.304 595.054 346.859Z" fill="#0a0b08" fill-rule="evenodd" opacity="1" stroke="none"/>
<path d="M961.077 347.585C969.257 348.702 969.484 347.228 974.436 347.745C977.682 347.905 980.831 349.525 979.136 352.159C978.485 352.701 974.295 356.622 972.501 357.717C971.663 358.228 969.359 360.948 966.287 361.717C961.806 362.84 960.197 363.304 952.82 362.473C945.442 361.641 943.357 360.932 936.776 358.392C930.649 356.028 926.49 354.469 920.963 353.636C913.933 352.577 911.814 353.632 907.324 353.846C906.723 353.736 906.258 353.891 905.927 354.312C903.276 356.464 900.141 359.968 897.347 361.132C894.552 362.297 892.08 361.758 891.526 360.88C893.617 357.161 899.941 352.844 904.064 351.75C905.437 351.704 906.393 351.051 906.393 351.051C906.393 351.051 912.192 344.705 921.974 343.191C926.786 342.446 934.048 342.762 941.713 343.276C949.627 343.807 952.896 346.468 961.077 347.585Z" fill="#0a0b08" fill-rule="evenodd" opacity="1" stroke="none"/>
<path d="M848.32 372.111C853.628 375.304 858.067 377.361 859.176 377.757C862.012 378.819 869.654 382.667 868.854 385.695C868.053 388.724 859.903 389.897 856.412 391.029C852.921 392.161 848.476 392.329 848.476 392.329C848.476 392.329 843.155 393.051 841.632 393.51C840.494 395.382 838.459 398.97 838.616 402.067C838.69 403.524 840.738 407.983 845.307 410.346C850.445 413.002 858.39 413.478 862.963 413.128C863.439 413.361 863.311 415.158 861.447 416.859C859.583 418.56 857.634 419.777 855.508 419.931C849.122 420.391 841.769 418.63 836.026 413.758C835.218 413.059 834.181 412.744 833.129 411.579C828.806 407.568 828.694 404.392 830.222 398.622C828.465 399.114 824.512 401.876 820.835 402.402C815.603 403.149 810.358 401.52 807.883 400.828C806.477 400.434 801.538 398.477 798.789 395.673C794.571 391.371 792.318 385.385 790.979 382.401C790.746 380.856 791.751 376.594 791.751 376.594C791.751 376.594 791.977 376.127 793.724 377.583C795.47 379.038 799.245 383.564 801.898 385.366C807.87 389.422 811.798 391.107 820.453 391.11C825.406 391.111 826.913 387.99 830.63 385.818C829.004 382.992 826.593 378.412 825.584 376.083C823.749 373.302 821.98 367.788 824.281 365.29C825.678 363.991 827.295 362.827 828.874 362.655C831.137 362.651 833.084 362.623 837.946 364.987C842.807 367.351 843.013 368.919 848.32 372.111Z" fill="#0a0b08" fill-rule="evenodd" opacity="1" stroke="none"/>
<path d="M1140.13 296.874C1137.26 298.771 1141.65 296.093 1122.62 305.117C1103.59 314.141 1091.31 320.437 1069.37 332.155C1047.44 343.874 1026.22 357.904 1025.66 358.378C1017.91 362.768 993.602 382.861 993.602 382.861L980.872 392.836L974.116 397.878C974.116 397.878 972.578 397.522 967.967 395.829C975.322 390.259 981.519 386.448 988.757 380.683C1007.66 362.138 1019.97 342.085 1026.37 316.225C1029.12 304.536 1034.26 284.769 1034.26 284.769C1034.26 284.769 1037.73 283.978 1050.09 284.523C1062.45 285.068 1064.25 284.535 1083.69 286.949C1103.14 289.362 1119.01 293.164 1127.28 294.529C1135.55 295.895 1138.43 296.411 1140.13 296.874Z" fill="#fdfdfd" fill-rule="evenodd" opacity="1" stroke="none"/>
<path d="M1168.98 351.757C1167.51 352.492 1133.6 371.477 1133.6 371.477L1074.76 410.851C1074.76 410.851 1031.57 444.575 1030.99 445.111C1028.5 447.11 1019.7 454.366 1019.9 454.086C1021.77 451.524 1022.49 450.158 1022.49 449.075C1021.49 440.234 1016.43 436.266 1008.11 433.309C999.586 430.686 992.063 431.98 983.511 434.295C985.285 433.307 987.566 430.592 988.12 428.631C988.884 423.68 984.414 422.848 979.458 424.226C978.477 424.5 969.51 426.977 969.51 426.977C969.51 426.977 962.094 423.507 958.773 421.299C960.497 419.576 970.211 412.488 972.535 411.091C974.256 411.794 988.456 417.078 998.222 422.092C1001.61 423.942 1011.62 429.503 1011.62 429.503C1011.62 429.503 1026.49 439.573 1030.76 443.231C1031.18 442.63 1031.1 442.01 1030.53 441.367C1026.56 437.483 1018.93 430.65 1005.15 422.582C991.359 414.515 990.858 415.27 975.971 408.833C977.76 407.705 980.4 405.865 982.025 404.509C995.579 408.59 1006.67 413.075 1020.05 417.845C1027.34 420.22 1034.24 423.406 1040.77 427.394C1041.09 427.082 1041.09 426.774 1040.77 426.462C1037.22 423.556 1025.32 417.253 1020.96 415.655C1005.85 409.814 1000.92 407.382 986.529 401.585C988.452 399.818 989.002 399.96 994.374 395.747C999.746 391.533 1008.38 385.27 1008.38 385.27C1008.38 385.27 1040.43 362.283 1068.6 346.114C1096.78 329.946 1121.11 319.094 1121.11 319.094L1155.57 303.846C1155.57 303.846 1171.93 349.979 1168.98 351.757Z" fill="#fdfdfd" fill-rule="evenodd" opacity="1" stroke="none"/>
<path d="M963.528 399.114C963.528 399.114 965.728 399.148 970.409 401.019C968.783 402.375 967.226 403.431 965.437 404.559C960.989 402.637 958.858 401.904 958.858 401.904L963.528 399.114Z" fill="#f9f9f9" fill-rule="evenodd" opacity="1" stroke="none"/>
<path d="M954.02 404.621C954.02 404.621 957.433 405.217 961.969 407.298C960.924 408.311 958.253 410.027 955.776 411.694C952.358 413.994 948.775 416.389 948.775 416.389L940.042 412.154C940.042 412.154 943.893 410.363 947.613 408.373C951.334 406.383 954.02 404.621 954.02 404.621Z" fill="#fbfbfb" fill-rule="evenodd" opacity="1" stroke="none"/>
<path d="M934.959 414.319L945.673 419.237L941.44 422.511L936.727 425.924C936.727 425.924 931.723 422.566 926.078 418.317C929.874 416.832 934.959 414.319 934.959 414.319Z" fill="#fbfbfb" fill-rule="evenodd" opacity="1" stroke="none"/>
<path d="M955.4 423.82C955.4 423.82 961.488 426.216 965.27 428.419C963.116 429.096 962.231 429.483 957.371 432.418C954.884 433.92 952.59 435.947 949.712 437.698C947.765 435.825 946.014 434.536 943.928 432.835C948.199 429.724 955.4 423.82 955.4 423.82Z" fill="#f9f9f9" fill-rule="evenodd" opacity="1" stroke="none"/>
<path d="M940.452 435.823C940.452 435.823 944.01 438.451 945.887 440.314C941.685 443.035 934.336 448.425 934.336 448.425C934.336 448.425 921.427 457.998 915.833 465.768C914.729 462.898 913.602 460.058 913.602 460.058C913.602 460.058 920.586 453.898 925.708 449.059C930.83 444.219 940.452 435.823 940.452 435.823Z" fill="#fafafa" fill-rule="evenodd" opacity="1" stroke="none"/>
<path d="M906.393 462.842C907.324 462.842 908.733 462.938 908.733 462.938C908.733 462.938 909.097 463.643 909.417 464.562C909.737 465.482 910.119 465.851 910.119 466.317C908.754 465.73 907.203 464.118 906.393 462.842Z" fill="#f7f7f7" fill-rule="evenodd" opacity="1" stroke="none"/>
<path d="M871.094 428.543C874.683 429.047 880.617 428.098 880.617 428.098C880.617 428.098 885.483 427.505 892.244 426.284C904.653 424.042 920.506 419.628 920.506 419.628C920.506 419.628 923.297 421.801 927.751 425.354C932.205 428.908 932.912 429.129 932.912 429.129C932.912 429.129 928.27 433.838 921.172 438.761C914.074 443.684 904.618 449.611 904.618 449.611C904.618 449.611 902.59 449.673 901.093 449.585C899.597 449.497 895.068 449.212 895.068 449.212C895.068 449.212 885.239 443.535 878.636 438.821C872.033 434.107 860.932 427.83 860.932 427.83L851.281 422.568C851.281 422.568 852.436 423.087 855.433 423.842C858.43 424.597 858.383 424.771 861.171 425.652C863.96 426.534 866.507 426.747 866.507 426.747C866.507 426.747 868.672 428.204 871.094 428.543Z" fill="#ffffff" fill-rule="nonzero" opacity="1" stroke="none"/>
</g>
</svg>
