<?xml version="1.0" encoding="UTF-8" standalone="no"?>
<!DOCTYPE svg PUBLIC "-//W3C//DTD SVG 1.1//EN" "http://www.w3.org/Graphics/SVG/1.1/DTD/svg11.dtd">
<svg height="100%" stroke-miterlimit="10" style="fill-rule:nonzero;clip-rule:evenodd;stroke-linecap:round;stroke-linejoin:round;" version="1.1" viewBox="0 0 1024 1024" width="100%" xml:space="preserve" xmlns="http://www.w3.org/2000/svg" xmlns:xlink="http://www.w3.org/1999/xlink">
<defs/>
<g id="Layer-1" >
<path d="M290.213 457.969C290.213 412.66 416.773 375.931 572.894 375.931C729.014 375.931 855.575 412.66 855.575 457.969C855.575 503.277 729.014 540.007 572.894 540.007C416.773 540.007 290.213 503.277 290.213 457.969Z" fill="#ccb9ac" fill-rule="nonzero" opacity="1" stroke="none" />
<path d="M216.276 582.381L270.572 716.868C270.572 716.868 35.6541 773.574 80.4953 839.783C125.336 905.992 211.535 934.508 405.161 966.295C598.787 998.083 781.755 948.535 910.848 904.473C974.929 882.601 937.028 830.066 814.832 790.312C770.374 775.848 675.132 794.875 622.403 784.405C528.094 765.678 482.089 722.578 482.089 722.578C482.089 722.578 427.072 636.639 360.619 601.59C294.165 566.541 216.276 582.381 216.276 582.381Z" fill="#ddd7d3" fill-rule="nonzero" opacity="1" stroke="none" >
</g>
<g id="Layer-3" >
<path d="M209.168 731.485C209.168 731.485 160.961 737.756 126.191 757.3C85.6915 780.064 57.7524 818.541 57.7524 850.582C57.7524 910.13 129.675 941.305 300.018 971.079C383.02 985.587 450.195 989.72 512 990.09C577.034 990.479 636.642 986.345 723.982 971.079C894.325 941.305 966.248 911.531 966.248 851.983C966.248 792.435 883.157 747.702 814.832 732.887C644.155 695.878 346.049 729.828 209.168 698.161C155.417 685.726 126.557 645.204 126.041 613.401C125.219 562.66 209.168 537.919 209.168 537.919C209.168 537.919 289.158 794.51 330.301 839.783C348.523 859.834 417.365 887.326 512 887.326C606.635 887.326 685.721 859.938 708.841 839.783C756.353 798.362 814.832 480.683 814.832 480.683C814.832 480.683 814.832 513.239 723.982 529.722C597.016 552.758 427.031 552.534 300.018 529.722C193.84 510.652 209.168 479.281 209.168 479.281C209.168 479.281 231.363 442.534 307.071 422.32C382.779 402.106 429.798 398.847 512 398.426C543.939 398.262 610.601 401.723 663.302 411.242C706.026 418.959 739.35 433.103 739.35 433.103C739.35 433.103 690.228 453.475 637.232 465.735C584.237 477.995 512 480.683 512 480.683C512 480.683 463.604 398.134 458.141 336.973C452.678 275.812 579.64 283.159 572.894 227.176C569.682 200.525 508.294 159.739 493.071 111.416C477.847 63.0938 501.044 48.3047 512 33.8856" fill="none" opacity="1" stroke="#000000" stroke-linecap="butt" stroke-linejoin="round" stroke-width="20" />
</g>
</svg>
