<?xml version="1.0" encoding="UTF-8" standalone="no"?>
<!DOCTYPE svg PUBLIC "-//W3C//DTD SVG 1.1//EN" "http://www.w3.org/Graphics/SVG/1.1/DTD/svg11.dtd">
<svg height="100%" stroke-miterlimit="10" style="fill-rule:nonzero;clip-rule:evenodd;stroke-linecap:round;stroke-linejoin:round;" version="1.1" viewBox="0 0 100 100" width="100%" xml:space="preserve" xmlns="http://www.w3.org/2000/svg" xmlns:xlink="http://www.w3.org/1999/xlink">
<defs/>
<g id="Layer-1">
<path d="M23.9972 52.8519C23.9972 52.8519 20.0067 53.6104 18.555 55.8862C17.1032 58.1619 16.8348 59.7966 18.1902 61.9549C19.5455 64.1132 22.0287 65.6811 24.5195 66.8224C27.0104 67.9638 28.1535 66.5203 28.1535 66.5203L27.2558 63.3174C27.2558 63.3174 22.5037 63.7373 21.4353 60.5506C20.5163 57.8096 25.1059 56.3983 25.1059 56.3983L23.9972 52.8519Z" fill="#f8f0ec" fill-rule="nonzero" opacity="1" stroke="none"/>
<path d="M24.7114 47.0824C23.1856 53.3786 31.2617 70.6457 31.2617 70.6457L65.7526 80.0977C65.7526 80.0977 79.7886 87.5117 84.7262 86.1824C89.6639 84.8531 88.3368 78.9477 85.5032 74.7804C82.6696 70.6131 71.3078 68.1022 71.3078 68.1022L75.1047 50.5338L35.5174 41.3178C35.5174 41.3178 26.2372 40.7861 24.7114 47.0824Z" fill="#f8f0ec" fill-rule="nonzero" opacity="1" stroke="none"/>
<path d="M31.2617 44.8557C31.2617 40.7199 41.9518 37.3672 55.1388 37.3672C68.3257 37.3672 79.0158 40.7199 79.0158 44.8557C79.0158 48.9914 68.3257 52.3441 55.1388 52.3441C41.9518 52.3441 31.2617 48.9914 31.2617 44.8557Z" fill="#ccb9ac" fill-rule="nonzero" opacity="1" stroke="none"/>
<path d="M25.0164 56.2121L29.6027 68.488C29.6027 68.488 9.75998 73.6641 13.5476 79.7077C17.3351 85.7513 24.6161 88.3542 40.971 91.2558C57.3259 94.1573 72.7806 89.6347 83.6846 85.6126C89.0973 83.6161 85.8959 78.8208 75.5744 75.192C71.8192 73.8717 63.7744 75.6085 59.3206 74.6528C51.3546 72.9434 47.4688 69.0092 47.4688 69.0092C47.4688 69.0092 42.8217 61.1647 37.2086 57.9655C31.5955 54.7662 25.0164 56.2121 25.0164 56.2121Z" fill="#ddd7d3" fill-rule="nonzero" opacity="1" stroke="none"/>
<path d="M49.1875 5.57702C49.0636 5.75321 48.4408 6.50142 48.4062 6.54577C46.9466 8.42027 46.5225 10.3759 47.4375 13.5145C47.9758 15.3609 49.0283 17.0433 50.8438 19.2645C54.3335 23.5345 54.0719 23.1334 54.1562 23.8895C54.3165 25.3262 53.3725 26.1323 50.2188 27.577C50.0507 27.654 50.0444 27.6557 49.875 27.7333C45.7725 29.6133 44.1958 30.9659 44.4375 33.8895C44.5331 35.0458 44.7847 36.3045 45.1562 37.6708C45.2403 37.9801 45.4039 38.3235 45.5 38.6395C40.7487 38.8554 36.9911 39.3166 32.4062 40.6395C30.4927 41.1917 28.8396 41.9207 27.4375 42.7645C25.2928 44.0552 24.0587 45.3833 23.5312 46.327C23.4604 46.475 23.4336 46.5591 23.4062 46.6708C23.0813 47.9959 23.8914 49.4573 26.25 50.6395C27.6091 51.3208 29.4748 51.9176 31.9062 52.3895C42.7983 54.5036 57.2796 54.5098 68.0938 52.3895C70.5226 51.9133 72.401 51.2505 73.7812 50.452C73.8602 50.4064 73.8621 50.3422 73.9375 50.2958C73.8074 51.0066 73.7378 51.4937 73.6562 51.9208C72.9156 55.7974 72.0905 59.6807 71.25 63.2958C70.7659 65.3779 70.3464 66.3996 69.875 68.1395C65.2834 67.5741 60.0012 67.2379 52.2812 67.202C51.0331 67.1962 50.0516 67.1723 47.8125 67.1708C38.7894 67.1646 33.9289 66.9305 30.0312 66.5145C29.9585 66.3038 29.8858 66.1352 29.8125 65.9208C28.7627 62.8506 27.6958 59.5566 26.6875 56.2645C26.3345 55.1121 25.3904 51.943 25.375 51.8895C25.2189 51.3485 24.6615 51.0312 24.125 51.202C23.8769 51.2811 23.4626 51.4151 22.9375 51.6395C22.0661 52.0119 21.1946 52.4858 20.375 53.0145C17.895 54.6142 16.3694 56.5911 16.4062 59.0458C16.4625 62.7935 19.6076 66.6195 24.1875 67.7645C25.4038 68.0686 27.1165 68.1671 28.5312 68.3583C28.8871 69.3685 29.2532 70.415 29.5938 71.327C31.3041 75.9075 32.7296 78.9962 33.875 80.3583C36.0018 82.8874 42.7095 85.0458 50 85.0458C57.3061 85.0458 64.7296 82.8542 67.3125 80.4208C68.0564 79.72 68.7618 78.4529 69.5 76.6083C70.0753 75.1707 70.7115 72.4383 71.3125 70.3583C72.6117 70.5557 74.1923 70.651 75.3438 70.9208C81.8827 72.453 87.375 76.598 87.375 80.827C87.375 85.3452 82.2343 87.9602 67.7188 90.702C60.8504 91.9994 55.8665 92.4587 50 92.4208C44.0491 92.3823 38.5705 91.89 32.2812 90.702C17.8802 87.9818 12.625 85.2605 12.625 80.702C12.625 78.1493 14.8078 74.9468 17.9375 73.0458C18.4935 72.708 19.1175 72.389 19.8125 72.1083C20.8477 71.6902 21.9747 71.3638 23.0938 71.1083C23.486 71.0187 23.8311 70.9475 24.1562 70.8895C24.3481 70.8553 24.4964 70.8363 24.5625 70.827L24.2812 68.827C24.1917 68.8396 24.0292 68.8822 23.8125 68.9208C23.4568 68.9842 23.0498 69.0425 22.625 69.1395C21.4095 69.4171 20.2062 69.8026 19.0625 70.2645C18.2725 70.5836 17.5296 70.9294 16.875 71.327C13.1925 73.5639 10.625 77.3798 10.625 80.702C10.625 86.6911 16.5584 89.7717 31.9062 92.6708C38.3188 93.882 43.9333 94.3816 50 94.4208C55.9965 94.4595 61.0998 93.9919 68.0938 92.6708C83.5707 89.7474 89.375 86.7871 89.375 80.827C89.375 75.4003 83.1504 70.7027 75.8125 68.9833C74.6774 68.7173 73.1364 68.6181 71.875 68.4208C72.3302 66.7258 72.7539 65.7327 73.2188 63.7333C74.0659 60.0895 74.8485 56.1965 75.5938 52.2958C75.8545 50.9308 76.5511 47.175 76.5625 47.1083L76.5 47.1083C76.5048 47.0561 76.5625 46.968 76.5625 46.9208C76.5625 45.6954 74.7995 45.5566 74.5938 46.7645C74.5934 46.7664 74.564 46.9122 74.5625 46.9208C74.5625 46.9181 74.5311 47.0479 74.4062 47.2645C74.1376 47.7307 73.6419 48.2354 72.7812 48.7333C71.6073 49.4123 69.9434 49.9846 67.7188 50.4208C57.1584 52.4913 42.9213 52.4859 32.2812 50.4208C30.0161 49.9811 28.3356 49.4494 27.1562 48.8583C26.2137 48.3858 25.6592 47.9232 25.4375 47.5145C25.3425 47.3394 25.3327 47.2417 25.3438 47.1708C25.3447 47.1647 25.3424 47.1449 25.3438 47.1395C25.3989 47.0577 25.6028 46.8445 25.9375 46.4833C26.5673 45.8035 27.3905 45.1009 28.4688 44.452C29.7208 43.6985 31.2215 43.0812 32.9688 42.577C37.5786 41.2469 41.2614 40.7963 46.1875 40.6083C46.4008 41.1968 46.5361 41.756 46.7812 42.3583C47.2926 43.6144 47.8276 44.831 48.375 45.952C48.5669 46.3449 49.0861 47.3491 49.125 47.4208C49.3068 47.7558 49.6504 47.9361 50.0312 47.9208C50.1557 47.9158 51.8366 47.8156 52.4688 47.7645C54.2768 47.6186 56.0562 47.4135 57.75 47.1395C58.8571 46.9605 59.8909 46.7762 60.8125 46.5458C62.0233 46.2431 63.2617 45.8763 64.5312 45.452C65.7969 45.0291 67.0306 44.5612 68.1562 44.1083C68.5508 43.9495 69.5222 43.5153 69.5938 43.4833C70.378 43.1318 70.4062 42.0291 69.625 41.6708C69.5757 41.6482 68.921 41.3684 68.6562 41.2645C67.9038 40.9693 67.0595 40.6958 66.1562 40.4208C65.1105 40.1024 64.0435 39.8181 62.9688 39.6083C59.0524 38.8438 53.5633 38.401 50 38.4208C48.9995 38.4263 48.4444 38.5251 47.5625 38.5458C47.4181 38.0937 47.2122 37.6064 47.0938 37.1708C46.7522 35.9145 46.5221 34.7564 46.4375 33.7333C46.2948 32.0066 47.3627 31.0838 50.7188 29.5458C50.887 29.4688 50.8935 29.4669 51.0625 29.3895C55.001 27.5853 56.4243 26.3549 56.125 23.6708C56.0304 22.8221 55.5761 21.9611 54.75 20.8583C54.4503 20.4582 54.1153 20.0401 53.625 19.452C53.4932 19.2939 52.5898 18.2079 52.4062 17.9833C50.7486 15.955 49.7874 14.4737 49.3438 12.952C48.6149 10.452 48.9223 9.14847 50 7.76452C49.9957 7.77003 50.6411 6.97705 50.8125 6.73327L49.1875 5.57702ZM50 40.4208C53.4385 40.4017 58.8169 40.8398 62.5938 41.577C63.5978 41.773 64.5796 42.0277 65.5625 42.327C65.871 42.421 66.115 42.5416 66.4062 42.6395C65.5942 42.9509 64.7803 43.2537 63.9062 43.5458C62.6832 43.9545 61.5011 44.3189 60.3438 44.6083C59.4813 44.8239 58.4923 45.0002 57.4375 45.1708C55.8022 45.4353 54.0402 45.6225 52.2812 45.7645C51.8314 45.8008 51.1334 45.8573 50.5938 45.8895C50.4315 45.5729 50.2967 45.3006 50.1875 45.077C49.6588 43.9944 49.1181 42.8197 48.625 41.6083C48.4699 41.2272 48.3917 40.8893 48.25 40.5145C48.9072 40.5029 49.2759 40.4248 50 40.4208ZM23.7812 53.452C24.0639 54.4035 24.509 55.9694 24.7812 56.8583C25.7591 60.0508 26.7614 63.2364 27.7812 66.2333C26.8214 66.0789 25.5146 66.0104 24.6562 65.7958C20.9398 64.8666 18.4486 61.8384 18.4062 59.0145C18.382 57.3996 19.4771 55.9353 21.4375 54.6708C22.1539 54.2087 22.9444 53.8142 23.7188 53.4833C23.7488 53.4704 23.7521 53.4643 23.7812 53.452ZM30.7812 68.6708C34.6607 69.0119 39.4968 69.1651 47.8125 69.1708C50.049 69.1723 51.0366 69.1962 52.2812 69.202C59.7543 69.2367 64.8711 69.5515 69.3125 70.077C68.7576 71.9755 68.1799 74.5498 67.6562 75.8583C67.0192 77.4501 66.4111 78.5371 65.9375 78.9833C63.783 81.0131 56.8423 83.0458 50 83.0458C43.2423 83.0458 37.0827 81.0706 35.4062 79.077C34.4653 77.9581 33.0927 74.9573 31.4688 70.6083C31.2465 70.013 31.0106 69.3101 30.7812 68.6708Z" fill="#292622" fill-rule="nonzero" opacity="1" stroke="none"/>
</g>
</svg>
