<?xml version="1.0" encoding="UTF-8" standalone="no"?>
<!DOCTYPE svg PUBLIC "-//W3C//DTD SVG 1.1//EN" "http://www.w3.org/Graphics/SVG/1.1/DTD/svg11.dtd">
<svg height="100%" stroke-miterlimit="10" style="fill-rule:nonzero;clip-rule:evenodd;stroke-linecap:round;stroke-linejoin:round;" version="1.1" viewBox="0 0 288 96" width="100%" xml:space="preserve" xmlns="http://www.w3.org/2000/svg" xmlns:xlink="http://www.w3.org/1999/xlink">
<defs/>
<g id="Layer-1" >
<g fill="#000000" opacity="1" stroke="none" >
<path d="M70.632 68.7766L70.2 73.1686C68.856 73.7446 67.224 74.2486 65.304 74.6806C63.384 75.1126 61.44 75.4366 59.472 75.6526C57.504 75.8686 55.752 75.9766 54.216 75.9766C50.328 75.9766 46.728 75.3166 43.416 73.9966C40.104 72.6766 37.212 70.8406 34.74 68.4886C32.268 66.1366 30.336 63.3646 28.944 60.1726C27.552 56.9806 26.856 53.5126 26.856 49.7686C26.856 46.0246 27.552 42.5566 28.944 39.3646C30.336 36.1726 32.268 33.4006 34.74 31.0486C37.212 28.6966 40.104 26.8606 43.416 25.5406C46.728 24.2206 50.328 23.5606 54.216 23.5606C55.8 23.5606 57.576 23.6806 59.544 23.9206C61.512 24.1606 63.432 24.4846 65.304 24.8926C67.176 25.3006 68.76 25.7686 70.056 26.2966L69.696 30.3286L69.264 30.3286C67.488 28.6966 65.256 27.4486 62.568 26.5846C59.88 25.7206 57.096 25.2886 54.216 25.2886C49.896 25.2886 46.092 26.3086 42.804 28.3486C39.516 30.3886 36.948 33.2446 35.1 36.9166C33.252 40.5886 32.328 44.8726 32.328 49.7686C32.328 54.7126 33.252 59.0086 35.1 62.6566C36.948 66.3046 39.504 69.1486 42.768 71.1886C46.032 73.2286 49.848 74.2486 54.216 74.2486C57.48 74.2486 60.516 73.7206 63.324 72.6646C66.132 71.6086 68.424 70.3126 70.2 68.7766L70.632 68.7766Z"/>
<path d="M84.312 24.5686L89.208 24.5686L89.208 54.9526C89.208 60.7606 90.636 65.2846 93.492 68.5246C96.348 71.7646 100.368 73.3846 105.552 73.3846C108.816 73.3846 111.66 72.7486 114.084 71.4766C116.508 70.2046 118.38 68.4406 119.7 66.1846C121.02 63.9286 121.632 61.3366 121.536 58.4086L120.312 24.5686L125.208 24.5686L123.984 58.4086C123.792 64.1686 122.076 68.5366 118.836 71.5126C115.596 74.4886 110.976 75.9766 104.976 75.9766C98.496 75.9766 93.432 74.0926 89.784 70.3246C86.136 66.5566 84.312 61.3846 84.312 54.8086L84.312 24.5686Z"/>
<path d="M142.488 24.5686L152.136 24.5686C157.224 24.5686 161.172 25.6366 163.98 27.7726C166.788 29.9086 168.192 32.8966 168.192 36.7366C168.192 39.7126 167.316 42.1846 165.564 44.1526C163.812 46.1206 161.28 47.4406 157.968 48.1126L157.968 48.5446C161.136 49.1686 163.728 50.6566 165.744 53.0086C167.76 55.3606 169.272 58.2646 170.28 61.7206C171.192 64.8886 172.092 67.3486 172.98 69.1006C173.868 70.8526 174.852 72.1126 175.932 72.8806C177.012 73.6486 178.296 74.2006 179.784 74.5366L179.784 74.9686L176.832 74.9686C174.72 74.9686 172.98 74.5846 171.612 73.8166C170.244 73.0486 169.08 71.7526 168.12 69.9286C167.16 68.1046 166.248 65.5846 165.384 62.3686C163.992 57.4246 162.144 53.9206 159.84 51.8566C157.536 49.7926 154.728 48.7606 151.416 48.7606L150.984 48.7606L150.984 47.4646L151.416 47.4646C159.144 47.4646 163.008 43.9126 163.008 36.8086C163.008 29.8006 159.384 26.2966 152.136 26.2966L147.384 26.2966L147.384 74.9686L142.488 74.9686L142.488 24.5686Z"/>
<path d="M188.712 74.9686L188.712 24.5686L193.608 24.5686L193.608 74.9686L188.712 74.9686Z"/>
<path d="M208.728 49.7686C208.728 46.0726 209.388 42.6286 210.708 39.4366C212.028 36.2446 213.876 33.4606 216.252 31.0846C218.628 28.7086 221.412 26.8606 224.604 25.5406C227.796 24.2206 231.24 23.5606 234.936 23.5606C238.632 23.5606 242.076 24.2206 245.268 25.5406C248.46 26.8606 251.244 28.7086 253.62 31.0846C255.996 33.4606 257.844 36.2446 259.164 39.4366C260.484 42.6286 261.144 46.0726 261.144 49.7686C261.144 53.4646 260.484 56.9086 259.164 60.1006C257.844 63.2926 255.996 66.0766 253.62 68.4526C251.244 70.8286 248.46 72.6766 245.268 73.9966C242.076 75.3166 238.632 75.9766 234.936 75.9766C231.24 75.9766 227.796 75.3166 224.604 73.9966C221.412 72.6766 218.628 70.8286 216.252 68.4526C213.876 66.0766 212.028 63.2926 210.708 60.1006C209.388 56.9086 208.728 53.4646 208.728 49.7686ZM214.2 49.7686C214.2 54.6646 215.064 58.9486 216.792 62.6206C218.52 66.2926 220.944 69.1486 224.064 71.1886C227.184 73.2286 230.808 74.2486 234.936 74.2486C239.064 74.2486 242.688 73.2286 245.808 71.1886C248.928 69.1486 251.352 66.2806 253.08 62.5846C254.808 58.8886 255.672 54.6166 255.672 49.7686C255.672 44.9206 254.808 40.6606 253.08 36.9886C251.352 33.3166 248.928 30.4486 245.808 28.3846C242.688 26.3206 239.064 25.2886 234.936 25.2886C230.808 25.2886 227.196 26.3086 224.1 28.3486C221.004 30.3886 218.58 33.2446 216.828 36.9166C215.076 40.5886 214.2 44.8726 214.2 49.7686Z"/>
</g>
</g>
</svg>
