<?xml version="1.0" encoding="UTF-8" standalone="no"?>
<!DOCTYPE svg PUBLIC "-//W3C//DTD SVG 1.1//EN" "http://www.w3.org/Graphics/SVG/1.1/DTD/svg11.dtd">
<svg height="100%" stroke-miterlimit="10" style="fill-rule:nonzero;clip-rule:evenodd;stroke-linecap:round;stroke-linejoin:round;" version="1.1" viewBox="0 0 3072 1024" width="100%" xml:space="preserve" xmlns="http://www.w3.org/2000/svg" xmlns:xlink="http://www.w3.org/1999/xlink">
<defs/>
<g id="Layer-1" visibility="hidden">
<path d="M418.849 426.503C418.849 394.166 502.434 367.952 605.541 367.952C708.648 367.952 792.232 394.166 792.232 426.503C792.232 458.84 708.648 485.054 605.541 485.054C502.434 485.054 418.849 458.84 418.849 426.503Z" fill="#ccb9ac" fill-rule="nonzero" opacity="1" stroke="none" />
<path d="M370.018 515.298L405.877 611.282C405.877 611.282 250.73 651.753 280.345 699.007C309.959 746.261 366.888 766.613 494.765 789.3C622.641 811.987 743.48 776.625 828.737 745.177C871.058 729.566 846.027 692.072 765.324 663.699C735.963 653.376 673.062 666.956 638.238 659.483C575.953 646.118 545.57 615.357 545.57 615.357C545.57 615.357 509.235 554.022 465.347 529.007C421.459 503.992 370.018 515.298 370.018 515.298Z" fill="#ddd7d3" fill-rule="nonzero" opacity="1" stroke="none" />
</g>
<g id="Layer-3" >
<path d="M365.324 621.714C365.324 621.714 333.487 626.19 310.523 640.138C283.776 656.386 265.324 683.847 265.324 706.714C265.324 749.214 312.824 771.464 425.324 792.714C480.142 803.069 524.507 806.019 565.324 806.282C608.275 806.56 647.642 803.61 705.324 792.714C817.824 771.464 865.324 750.214 865.324 707.714C865.324 665.214 810.449 633.288 765.324 622.714C652.604 596.301 455.725 620.531 365.324 597.931C329.825 589.056 310.765 560.134 310.425 537.437C309.881 501.222 365.324 483.564 365.324 483.564C365.324 483.564 418.152 666.695 445.324 699.007C457.359 713.318 502.824 732.939 565.324 732.939C627.824 732.939 680.056 713.392 695.324 699.007C726.703 669.445 765.324 442.714 765.324 442.714C765.324 442.714 765.324 465.95 705.324 477.714C621.472 494.155 509.208 493.995 425.324 477.714C355.201 464.104 365.324 441.714 365.324 441.714C365.324 441.714 379.983 415.487 429.983 401.061C479.983 386.634 511.035 384.308 565.324 384.007C586.418 383.89 630.444 386.36 665.249 393.154C693.466 398.662 715.474 408.756 715.474 408.756C715.474 408.756 683.032 423.296 648.032 432.046C613.032 440.796 565.324 442.714 565.324 442.714C565.324 442.714 533.362 383.799 529.754 340.148C526.146 296.497 609.996 301.74 605.541 261.785C603.42 242.764 562.877 213.654 552.823 179.166C542.769 144.678 558.089 134.123 565.324 123.832" fill="none" opacity="1" stroke="#000000" stroke-linecap="butt" stroke-linejoin="round" stroke-width="20" />
</g>
<g id="Layer-2" >
<g fill="#000000" opacity="1" stroke="none" >
<path d="M1333.14 729.728L1329.9 762.668C1319.82 766.988 1307.58 770.768 1293.18 774.008C1278.78 777.248 1264.2 779.678 1249.44 781.298C1234.68 782.918 1221.54 783.728 1210.02 783.728C1180.86 783.728 1153.86 778.778 1129.02 768.878C1104.18 758.978 1082.49 745.208 1063.95 727.568C1045.41 709.928 1030.92 689.138 1020.48 665.198C1010.04 641.258 1004.82 615.248 1004.82 587.168C1004.82 559.088 1010.04 533.078 1020.48 509.138C1030.92 485.198 1045.41 464.408 1063.95 446.768C1082.49 429.128 1104.18 415.358 1129.02 405.458C1153.86 395.558 1180.86 390.608 1210.02 390.608C1221.9 390.608 1235.22 391.508 1249.98 393.308C1264.74 395.108 1279.14 397.538 1293.18 400.598C1307.22 403.658 1319.1 407.168 1328.82 411.128L1326.12 441.368L1322.88 441.368C1309.56 429.128 1292.82 419.768 1272.66 413.288C1252.5 406.808 1231.62 403.568 1210.02 403.568C1177.62 403.568 1149.09 411.218 1124.43 426.518C1099.77 441.818 1080.51 463.238 1066.65 490.778C1052.79 518.318 1045.86 550.448 1045.86 587.168C1045.86 624.248 1052.79 656.468 1066.65 683.828C1080.51 711.188 1099.68 732.518 1124.16 747.818C1148.64 763.118 1177.26 770.768 1210.02 770.768C1234.5 770.768 1257.27 766.808 1278.33 758.888C1299.39 750.968 1316.58 741.248 1329.9 729.728L1333.14 729.728Z"/>
<path d="M1435.74 398.168L1472.46 398.168L1472.46 626.048C1472.46 669.608 1483.17 703.538 1504.59 727.838C1526.01 752.138 1556.16 764.288 1595.04 764.288C1619.52 764.288 1640.85 759.518 1659.03 749.978C1677.21 740.438 1691.25 727.208 1701.15 710.288C1711.05 693.368 1715.64 673.928 1714.92 651.968L1705.74 398.168L1742.46 398.168L1733.28 651.968C1731.84 695.168 1718.97 727.928 1694.67 750.248C1670.37 772.568 1635.72 783.728 1590.72 783.728C1542.12 783.728 1504.14 769.598 1476.78 741.338C1449.42 713.078 1435.74 674.288 1435.74 624.968L1435.74 398.168Z"/>
<path d="M1872.06 398.168L1944.42 398.168C1982.58 398.168 2012.19 406.178 2033.25 422.198C2054.31 438.218 2064.84 460.628 2064.84 489.428C2064.84 511.748 2058.27 530.288 2045.13 545.048C2031.99 559.808 2013 569.708 1988.16 574.748L1988.16 577.988C2011.92 582.668 2031.36 593.828 2046.48 611.468C2061.6 629.108 2072.94 650.888 2080.5 676.808C2087.34 700.568 2094.09 719.018 2100.75 732.158C2107.41 745.298 2114.79 754.748 2122.89 760.508C2130.99 766.268 2140.62 770.408 2151.78 772.928L2151.78 776.168L2129.64 776.168C2113.8 776.168 2100.75 773.288 2090.49 767.528C2080.23 761.768 2071.5 752.048 2064.3 738.368C2057.1 724.688 2050.26 705.788 2043.78 681.668C2033.34 644.588 2019.48 618.308 2002.2 602.828C1984.92 587.348 1963.86 579.608 1939.02 579.608L1935.78 579.608L1935.78 569.888L1939.02 569.888C1996.98 569.888 2025.96 543.248 2025.96 489.968C2025.96 437.408 1998.78 411.128 1944.42 411.128L1908.78 411.128L1908.78 776.168L1872.06 776.168L1872.06 398.168Z"/>
<path d="M2218.74 776.168L2218.74 398.168L2255.46 398.168L2255.46 776.168L2218.74 776.168Z"/>
<path d="M2368.86 587.168C2368.86 559.448 2373.81 533.618 2383.71 509.678C2393.61 485.738 2407.47 464.858 2425.29 447.038C2443.11 429.218 2463.99 415.358 2487.93 405.458C2511.87 395.558 2537.7 390.608 2565.42 390.608C2593.14 390.608 2618.97 395.558 2642.91 405.458C2666.85 415.358 2687.73 429.218 2705.55 447.038C2723.37 464.858 2737.23 485.738 2747.13 509.678C2757.03 533.618 2761.98 559.448 2761.98 587.168C2761.98 614.888 2757.03 640.718 2747.13 664.658C2737.23 688.598 2723.37 709.478 2705.55 727.298C2687.73 745.118 2666.85 758.978 2642.91 768.878C2618.97 778.778 2593.14 783.728 2565.42 783.728C2537.7 783.728 2511.87 778.778 2487.93 768.878C2463.99 758.978 2443.11 745.118 2425.29 727.298C2407.47 709.478 2393.61 688.598 2383.71 664.658C2373.81 640.718 2368.86 614.888 2368.86 587.168ZM2409.9 587.168C2409.9 623.888 2416.38 656.018 2429.34 683.558C2442.3 711.098 2460.48 732.518 2483.88 747.818C2507.28 763.118 2534.46 770.768 2565.42 770.768C2596.38 770.768 2623.56 763.118 2646.96 747.818C2670.36 732.518 2688.54 711.008 2701.5 683.288C2714.46 655.568 2720.94 623.528 2720.94 587.168C2720.94 550.808 2714.46 518.858 2701.5 491.318C2688.54 463.778 2670.36 442.268 2646.96 426.788C2623.56 411.308 2596.38 403.568 2565.42 403.568C2534.46 403.568 2507.37 411.218 2484.15 426.518C2460.93 441.818 2442.75 463.238 2429.61 490.778C2416.47 518.318 2409.9 550.448 2409.9 587.168Z"/>
</g>
</g>
</svg>
