<?xml version="1.0" encoding="UTF-8" standalone="no"?>
<!DOCTYPE svg PUBLIC "-//W3C//DTD SVG 1.1//EN" "http://www.w3.org/Graphics/SVG/1.1/DTD/svg11.dtd">
<!-- Created with Vectornator (http://vectornator.io/) -->
<svg height="100%" stroke-miterlimit="10" style="fill-rule:nonzero;clip-rule:evenodd;stroke-linecap:round;stroke-linejoin:round;" version="1.1" viewBox="0 0 3000 1000" width="100%" xml:space="preserve" xmlns="http://www.w3.org/2000/svg" xmlns:xlink="http://www.w3.org/1999/xlink">
<defs/>
<g id="Layer-1">
<path d="M936.606 387.262L994.356 401.026C994.356 401.026 942.365 421.801 885.829 466.583C829.292 511.364 768.21 580.153 768.21 580.153L713.714 566.942L660.654 529.328L743.27 552.623L857.421 446.057L936.606 387.262Z" fill="#4b8795" fill-rule="nonzero" opacity="1" stroke="none"/>
<path d="M694.658 173.041L704.221 251.615L641.398 249.487C641.398 249.487 666.828 198.041 680.378 179.531C693.929 161.021 694.658 173.041 694.658 173.041Z" fill="#cca690" fill-rule="nonzero" opacity="1" stroke="none"/>
<path d="M883.051 290.33C878.956 295.853 858.002 310.595 847.525 320.174C832.404 333.998 827.326 342.485 827.326 342.485L809.303 303.503L837.56 291.067L872.808 281.778C872.808 281.778 893.057 276.833 883.051 290.33Z" fill="#cca690" fill-rule="nonzero" opacity="1" stroke="none"/>
<path d="M276.59 431.689C276.59 431.689 279.912 527.543 348.213 619.499C416.515 711.455 434.058 785.577 562.576 802.566C627.341 811.127 660.918 808.397 734.69 781.267C808.463 754.137 857.667 694.046 857.667 694.046L881.197 627.954C881.197 627.954 885.517 627.262 890.554 632.591C892.263 634.399 898.781 637.139 893.667 654.5C888.553 671.861 890.577 674.962 869.502 701.986C848.427 729.009 811.875 760.846 811.875 760.846C811.875 760.846 783.62 790.373 711.177 813.146C644.484 834.111 599.842 838.165 536.993 830.096C477.647 822.476 415.871 809.1 362.862 745.464C309.853 681.828 285.608 622.668 285.608 622.668C285.608 622.668 262.21 571.539 261.952 523.912C261.693 476.285 276.59 431.689 276.59 431.689Z" fill="#73695a" fill-rule="nonzero" opacity="1" stroke="none"/>
<path d="M548.274 750.061L578.769 732.582C578.769 732.582 597.641 721.983 615.793 703.176C633.945 684.368 631.899 671.618 650.858 662.159C669.816 652.701 689.804 669.15 706.976 670.162C724.149 671.174 725.047 659.327 725.047 659.327C725.047 659.327 688.094 636.975 664.561 632.826C641.028 628.678 639.33 631.93 623.955 651.964C610.574 669.4 613.413 674.286 588.979 699.849C564.545 725.412 533.178 744.986 533.178 744.986L548.274 750.061Z" fill="#73695a" fill-rule="nonzero" opacity="1" stroke="none"/>
<path d="M816.612 497.932C816.612 497.932 798.676 514.602 783.62 540.561C768.563 566.519 769.059 573.867 756.386 601.767C743.712 629.666 733.9 649.568 733.9 649.568C733.9 649.568 734 635.256 747 601.779C760 568.302 765.529 541.251 784.925 518.25C804.32 495.248 816.612 497.932 816.612 497.932Z" fill="#73695a" fill-rule="nonzero" opacity="1" stroke="none"/>
<path d="M528.235 394.09C528.235 394.09 525.386 413.927 556.941 439.873C567.645 448.675 585.913 451.844 598.246 459.389C622.27 474.084 638.863 490.158 638.863 490.158C638.863 490.158 657.301 487.569 677.624 496.067C697.947 504.564 726.209 527.821 726.209 527.821C726.209 527.821 715.118 510.212 690.671 493.143C666.224 476.073 651.682 475.673 620.392 459.176C589.101 442.679 589.043 442.599 565.509 427.154C541.976 411.71 528.235 394.09 528.235 394.09Z" fill="#73695a" fill-rule="nonzero" opacity="1" stroke="none"/>
<path d="M600.102 342.666C600.102 342.666 602.072 360.428 615.793 381.825C629.513 403.223 660.357 431.689 660.357 431.689C660.357 431.689 686.493 449.168 702.782 456.549C719.07 463.929 725.51 461.213 725.51 461.213L696.524 443.641C696.524 443.641 708.042 450.83 730.062 446.121C752.082 441.412 769.502 434.645 789.583 418.489C803.129 407.592 814.181 394.658 820.091 378.836C826.401 361.943 827.975 358.019 827.105 342.485C826.236 326.952 816.612 316.702 816.612 316.702C816.612 316.702 808.405 378.354 782.677 405.456C756.949 432.557 744.363 422.748 711.177 419.095C677.99 415.442 649.932 390.844 649.932 390.844L600.102 342.666Z" fill="#73695a" fill-rule="nonzero" opacity="1" stroke="none"/>
<path d="M726.209 207.907C726.209 207.907 750.584 215.228 771.551 228.999C792.517 242.769 810.077 265.034 810.077 265.034L864.888 278.685L816.305 296.616C816.305 296.616 815.49 307.453 817.738 320.108C819.986 332.764 811.949 378.616 798.589 395.792C778.573 421.523 747 427.154 747 427.154C747 427.154 719.512 450.517 684.13 430.538C648.747 410.559 612.829 376.83 601.851 340.528C601.749 340.188 612.16 386.915 641.398 414.921C672.52 444.732 726.209 462.657 726.209 462.657L747 483.382L733.9 515.234L728.415 528.692L711.028 513.379C711.028 513.379 688.789 495.033 680.378 490.158C656.222 476.158 602.691 454.689 577.431 437.533C540.679 412.571 528.168 395.792 528.168 395.792C528.168 395.792 547.299 429.669 556.941 437.533C563.404 442.803 577.939 448.327 591.124 456.797C613.069 470.893 614.788 468.042 634.75 488.275C654.712 508.507 670.973 537.726 670.973 537.726C670.973 537.726 693.871 566.837 702.782 571.838C711.692 576.839 716.021 560.786 716.021 560.786C716.021 560.786 733.494 517.905 744.308 496.067C755.121 474.228 752.713 480.172 759.275 473.433C765.837 466.694 774.486 461.318 774.486 461.318C774.486 461.318 792.614 452.982 794.701 454.187C800.099 457.305 799.352 456.797 799.352 456.797C799.352 456.797 808.1 456.244 811.786 458.369C817.015 461.383 819.927 469.012 821.02 471.884C821.458 473.034 829.095 476.158 823.53 488.275C818.679 498.836 800.28 498.942 785.577 521C770.874 543.057 776.333 543.054 759.275 578.388C738.093 622.267 734.69 642.098 734.69 642.098C734.69 642.098 729.76 665.219 711.177 663.801C692.593 662.383 683.054 637.51 660.357 636.424C637.661 635.339 623.063 654.007 620.392 659.459C598.827 703.476 537.793 745.313 537.793 745.313C537.793 745.313 589.861 762.712 650.858 750.153C730.652 733.723 778.727 690.158 845.68 639.282C870.823 620.176 880.882 624.764 881.176 632.042C882.185 657.095 847.482 754.823 747 782.161C646.519 809.498 578.692 835.22 477.647 782.688C376.602 730.155 322.029 591.132 322.029 591.132C322.029 591.132 265.387 511.637 278.583 424.101C291.78 336.566 315.638 288.636 374.815 240.99C433.991 193.344 471.07 183.922 541.296 167.373C611.521 150.825 673.571 191.624 673.571 191.624L647.677 246.149C647.677 246.149 657.808 242.107 673.571 242.906C689.335 243.704 702.782 249.756 702.782 249.756C702.782 249.756 697.273 227.008 695.951 207.907C694.629 188.807 697.494 173.354 697.494 173.354L726.209 207.907Z" fill="#9fa38d" fill-rule="nonzero" opacity="1" stroke="none"/>
<path d="M727.188 209.432C727.188 209.432 738.641 233.559 743.008 246.292C744.042 250.139 743.193 255.162 741.214 256.894C739.909 258.035 738.517 256.848 737.789 255.426C737.463 254.556 736.011 248.089 735.343 245.803C735.45 245.694 733.444 238.372 732.244 234.875C728.894 226.79 721.805 210.737 721.805 210.737L712.998 194.753C712.998 194.753 707.851 187.036 705.659 183.173C705.381 182.84 700.955 176.202 698.156 173.876C698.049 174.04 697.938 174.203 697.83 174.366C699.901 180.644 703.212 193.448 703.212 193.448C703.212 193.448 713.044 225.991 717.565 242.378C718.384 245.5 718.165 248.545 716.913 251.511C716.152 252.489 713.977 253.468 713.977 253.468L712.02 251.185C712.02 251.185 707.472 232.358 704.517 223.132C700.87 209.305 693.753 181.705 693.753 181.705L692.122 177.138C692.122 177.138 689.597 175.9 688.37 177.301C686.893 178.671 685.532 180.139 684.293 181.705C670.717 201.919 658.647 223.013 648.085 244.987C647.521 246.153 646.594 246.697 645.312 246.618C644.986 245.182 645.149 243.769 645.802 242.378C652.88 225.23 660.98 208.54 670.103 192.307C669.017 192.198 669.451 192.203 666.026 191.259C661.222 189.934 660.377 188.006 651.51 185.13C642.643 182.254 639.691 181.671 630.557 179.754C621.424 177.838 614.976 177.465 614.976 177.465C614.976 177.465 610.073 176.833 601.276 176.486C591.168 176.087 573.891 178.176 573.549 178.117C561.617 179.993 558.707 179.218 537.993 184.804C517.28 190.39 490.695 200.461 490.695 200.461C490.695 200.461 427.205 221.674 382.472 263.102C338.728 303.614 320.773 335.718 307.067 360.954C286.525 400.288 275.91 435.306 267.964 479.044C263.992 502.384 262.776 509.804 265.245 537.46C267.714 565.117 273.181 574.228 277.84 589.67C286.859 619.567 290.733 623.512 306.557 653.386C322.38 683.26 341.46 709.166 341.46 709.166C341.46 709.166 362.777 740.799 392.257 764.815C421.737 788.832 440.77 796.968 459.38 805.231C471.207 809.84 483.168 814.081 495.262 817.952C513.687 822.549 532.389 825.811 551.368 827.738C562.732 828.397 573.427 829.165 585.618 829.206C597.81 829.247 616.992 827.826 625.414 827.086C649.938 824.594 655.747 823.292 680.388 816.931C700.775 811.668 726.209 802.566 726.209 802.566C726.209 802.566 743.66 796.095 759.318 789.326C774.975 782.557 807.758 758.971 807.758 758.971C807.758 758.971 840.052 734.183 851.143 718.644C862.233 703.104 870.551 696.561 880.174 678.251C889.797 659.94 889.325 653.383 889.634 645.402C889.878 639.09 887.445 635.158 883.762 632.346C879.577 630.001 875.121 629.238 870.388 630.063C865.583 631.084 860.909 632.5 856.362 634.304C852.395 636.342 848.588 638.626 844.945 641.154C837.589 646.745 834.751 649.961 823.742 659.095C812.733 668.228 808.434 671.356 800.908 677.688C785.593 688.658 779.053 694.568 753.936 709.003C728.819 723.437 718.443 728.016 700.44 735.425C693.946 738.097 683.151 741.459 683.151 741.459L665.21 746.678C665.21 746.678 642.091 752.632 633.895 753.692C625.7 754.752 620.073 755.771 607.963 756.464C595.853 757.157 595.853 756.913 585.455 756.464C575.058 756.016 566.373 754.67 566.373 754.67L556.587 752.387C556.587 752.387 548.024 749.859 545.496 748.146C542.968 746.434 543.042 745.259 541.908 743.743C538.487 744.95 536.451 745.783 531.47 747.005C525.382 748.498 518.452 748.663 517.294 748.503C517.254 748.275 525.186 746.444 525.186 746.444C525.608 746.285 528.512 745.804 530.98 745.047C533.448 744.29 537.341 742.764 537.341 742.764L554.956 735.425C554.956 735.425 567.351 730.042 574.201 724.66C581.051 719.278 586.76 714.14 592.795 709.329C598.829 704.517 611.714 695.202 618.401 682.418C626.588 666.765 626.041 669.311 630.47 663.172C641.669 650.242 655.317 646.924 671.408 653.223C681.403 657.186 691.078 661.753 700.44 666.923C706.51 669.578 712.382 669.141 718.054 665.618C721.218 663.87 723.231 660.553 725.394 657.627C731.96 648.307 736.961 639.389 741.704 628.921C747.069 616.741 752.83 604.453 757.687 592.061C762.662 573.112 770.272 554.953 779.216 537.586C787.335 523.273 797.066 510.169 808.411 498.279C812.338 494.893 816.363 491.631 820.48 488.493C823.791 486.086 824.28 483.203 821.948 479.849C819.391 476.558 816.021 474.819 811.836 474.63C810.564 474.819 809.849 474.766 807.758 474.956C805.668 475.146 804.396 475.674 803.473 475.39C804.602 474.747 806.158 474.041 807.721 473.408C809.067 472.863 810.013 472.601 812.797 471.846C816.566 470.823 819.175 472.021 819.175 472.021C819.175 472.021 820.072 472.428 820.806 472.184C821.54 471.939 819.909 472.836 822.111 471.042C824.313 469.248 827.108 467.02 829.614 465.007C830.018 464.632 845.923 452.612 845.923 452.612L859.298 442.337L873.65 430.757L889.308 420.644L904.639 410.859L918.339 403.193C918.339 403.193 929.052 397.673 930.082 397.158C932.147 395.913 934.323 394.88 936.606 394.059C933.204 385.976 930.758 377.604 929.267 368.942C928.839 366.335 928.797 364.009 928.217 361.276C927.936 359.948 927.561 358.86 927.377 358.435C927.219 358.068 927.142 357.959 927.142 357.959L928.125 357.307C928.611 359.216 929.227 363.37 929.898 365.822C932.447 375.13 935.791 386.557 935.791 386.557C935.791 386.557 937.494 390.399 938.074 392.428C938.371 393.061 939.376 393.025 939.542 393.407C939.839 394.09 939.526 395.509 939.216 396.506C935.478 398.32 928.451 402.377 928.451 402.377C928.451 402.377 920.486 406.317 916.708 408.575C906.652 414.963 896.539 421.27 886.372 427.495C866.5 441.619 847.036 456.298 827.983 471.531C826.945 472.516 825.967 473.547 825.047 474.63C828.677 478.169 829.819 482.41 828.472 487.352C827.265 491.671 824.819 495.096 821.132 497.627C815.633 501.081 810.306 504.78 805.149 508.718C798.269 514.922 792.342 521.935 787.371 529.757C783.29 536.829 775.263 552.373 775.302 552.917C779.582 548.501 774.364 552.224 787.697 539.217C801.031 526.21 816.24 511.898 828.635 500.889C841.031 489.88 836.953 492.082 855.709 476.75C874.466 461.419 898.816 442.956 903.66 439.564C921.376 428.481 939.102 417.499 956.83 406.618C960.706 404.518 968.247 400.257 968.247 400.257C968.247 400.257 969.657 399.601 967.269 398.952C961.92 397.499 954.015 394.783 947.697 391.939C945.113 390.769 943.319 388.866 942.315 386.231C941.972 384.097 942.895 382.902 945.087 382.643C950.398 384.207 955.363 385.578 961.071 387.046C966.779 388.514 963.803 387.821 968.247 388.84C972.692 389.86 974.503 389.784 979.338 391.231C983.95 392.847 987.626 395.221 983.742 400.257C982.2 401.817 980.449 401.318 976.728 403.682C968.088 408.356 959.443 412.651 950.796 417.219C929.11 430.424 916.015 437.484 887.35 459.136C858.686 480.787 854.486 487.433 836.138 503.825C817.789 520.216 782.954 557.797 769.104 575.751C768.256 576.658 767.222 577.199 766.005 577.382C756.865 606.502 744.307 634.01 728.329 659.91C722.866 667.673 718.217 673.716 705.985 673.284C698.227 673.01 679.674 662.389 669.125 658.442C652.335 652.766 639.301 657.237 629.818 672.305C622.084 684.594 618.669 691.711 611.551 700.358C607.907 704.217 604.156 707.969 600.297 711.612C592.038 718.133 574.854 730.205 574.854 730.205C574.854 730.205 570.042 733.141 565.068 735.425C560.093 737.708 558.544 737.871 554.956 739.339C551.368 740.807 551.866 740.817 550.715 741.296C564.885 745.595 579.802 748.285 594.099 748.309C600.271 748.32 601.847 748.32 607.473 748.309C624.482 748.278 643.808 745.264 661.622 739.991C669.451 737.674 675.322 736.634 680.542 734.772C701.052 727.456 722.654 718.498 742.519 707.698C763.507 696.712 783.405 683.99 802.213 669.533C810.375 663.117 818.203 656.319 825.699 649.146C826.224 648.842 830.266 644.823 835.811 640.501C841.357 636.179 849.512 631.042 849.512 631.042C849.512 631.042 861.362 625.014 868.594 623.05C870.714 622.474 873.321 621.838 878.217 622.071C881.724 622.238 886.285 622.97 888.655 625.17C890.856 627.213 895.342 629.476 896.647 639.686C897.952 649.896 894.853 662.244 893.222 666.662C887.764 681.445 878.217 693.564 875.934 697.478C874.968 698.803 859.534 721.569 841.683 739.074C822.03 758.347 808.316 768.677 802.539 772.285C795.086 776.294 768.289 794.132 751.653 801.316C734.119 808.889 723.763 811.918 705.006 818.279C686.25 824.64 686.067 824.418 676.627 826.76C663.83 829.102 650.998 831.278 638.136 833.284C631.514 834.096 626.23 834.629 613.345 835.404C600.46 836.179 586.597 836.383 586.597 836.383C586.597 836.383 570.124 837.117 552.183 835.73C534.242 834.344 531.918 834.058 514.833 830.837C497.749 827.616 498.605 827.575 483.845 822.845C472.21 819.117 470.152 818.86 461.534 815.303C459.219 814.348 456.431 813.154 452.856 811.592C435.975 804.211 431.245 801.765 416.322 793.325C401.398 784.884 379.631 766.583 377.178 764.619C362.697 750.74 353.553 739.431 338.344 720.267C323.135 701.103 304.862 672.023 295.199 652.696C285.535 633.368 277.958 615.218 269.533 595.649C264.525 581.385 260.556 566.813 257.627 551.939C255.64 536.95 254.988 521.837 255.67 506.597C258.974 476.161 265.281 446.695 274.591 418.201C282.871 392.858 293.526 368.283 306.557 344.477C312.259 334.857 316.913 327.352 324.497 316.098C332.082 304.845 336.893 299.462 336.893 299.462C336.893 299.462 363.863 269.371 388.124 249.228C412.385 229.085 433.937 218.892 433.937 218.892C433.937 218.892 443.926 211.308 468.84 201.44C493.753 191.573 497.832 188.714 533.59 179.422C562.354 171.947 572.786 172.028 583.824 171.267C589.114 170.902 599.756 170.891 612.366 171.919C624.977 172.948 634.266 175.381 634.266 175.381L651.999 180.4L668.472 185.456C668.472 185.456 671.08 186.179 671.734 187.087C672.06 187.54 672.103 187.604 672.224 187.903C675.684 182.543 683.151 172.245 683.151 172.245C683.151 172.245 685.884 169.409 687.066 168.494C691.955 166.138 695.273 167.497 697.015 172.572C697.171 172.262 697.463 171.063 698.482 171.267C699.502 171.471 699.42 171.919 701.092 173.387C702.764 174.855 704.491 176.391 705.169 177.138C710.447 183.012 720.253 197.845 720.827 198.667C722.787 202.37 727.188 209.432 727.188 209.432Z" fill="#020202" fill-rule="evenodd" opacity="1" stroke="none"/>
<path d="M748.717 211.823C757.687 215.166 759.155 215.382 770.246 221.539C781.336 227.696 784.097 228.634 793.639 236.725C803.18 244.816 803.355 247.174 808.411 253.902C813.467 260.63 813.304 263.362 813.304 263.362C813.304 263.362 814.751 263.759 816.633 263.803C820.979 263.907 823.253 263.688 829.777 264.34C836.301 264.993 846.902 266.624 846.902 266.624L859.134 268.581C859.134 268.581 864.437 269.546 868.193 270.343C871.95 271.141 875.809 271.651 877.552 272.091C881.321 273.044 882.487 273.819 885.72 274.289C886.551 274.797 887.152 275.504 887.514 276.41C888.013 278.339 888.12 280.296 887.84 282.281C887.259 284.309 885.954 285.614 883.925 286.196C882.761 286.353 878.543 286.522 878.543 286.522C878.543 286.522 878.325 288.153 877.401 289.131C869.737 297.249 858.329 309.51 848.044 319.142C844.358 323.483 840.659 327.832 836.953 332.189C835.146 334.551 833.463 336.997 831.897 339.529C843.444 340.522 854.553 341.038 866.148 342.465C872.185 343.207 884.741 345.564 884.741 345.564L907.901 349.478L918.072 351.433C918.072 351.433 922.2 352.269 922.906 352.414C924.986 352.689 926.572 353.435 927.799 355.023C928.083 355.746 928.125 357.307 928.125 357.307L927.147 357.959C927.147 357.959 926.434 358.218 925.314 358.743C924.315 359.211 922.969 359.92 921.872 360.381C919.544 361.361 916.043 362.964 913.232 364.259C910.42 365.554 909.777 365.706 906.596 367.093C903.416 368.479 901.051 369.865 901.051 369.865C901.051 369.865 897.596 371.79 893.072 374.033C888.548 376.275 877.565 381.445 877.565 381.445L859.941 390.911C859.941 390.911 848.545 397.881 843.91 400.587C839.4 403.22 836.434 404.909 836.434 404.909L814.282 419.284C814.282 419.284 805.886 425.073 801.482 428.172C797.078 431.27 798.015 430.442 796.668 431.68C807.396 435.31 818.053 439.169 828.635 443.26C831.688 444.378 834.461 445.954 836.953 447.989C837.172 448.208 837.172 448.423 836.953 448.642C832.38 445.85 827.542 443.618 822.437 441.955C813.069 438.615 803.609 435.678 794.058 433.147C792.92 434.097 791.723 434.967 790.47 435.757C800.895 440.265 811.007 445.373 820.806 451.088C824.006 453.261 826.998 455.707 829.777 458.428C830.181 458.878 830.237 459.312 829.94 459.733C824.9 455.417 819.466 451.666 813.63 448.479C805.632 444.372 797.477 440.621 789.165 437.225C787.537 438.204 783.281 441.361 782.641 441.792C781.239 442.757 779.934 443.847 778.727 445.054C781.053 446.6 783.444 448.068 785.903 449.457C787.22 449.201 788.306 448.862 789.489 448.542C790.649 448.229 791.905 447.937 793.406 447.5C796.876 446.535 798.344 447.784 797.809 451.251C797.421 452.625 796.606 453.659 795.363 454.35C801.352 452.729 807.331 452.84 813.304 454.676C819.13 456.748 822.392 460.881 823.09 467.072C822.933 468.214 822.918 468.214 822.522 469.192C822.316 469.704 822.058 470.185 821.798 470.605C821.423 471.213 821.257 471.532 820.806 471.965C820.19 472.219 819.648 472.164 819.175 471.802C818.353 469.929 817.954 468.214 817.381 465.93C816.021 462.831 813.793 460.603 810.694 459.243C800.62 456.051 791.753 457.575 783.897 463.818C783.077 464.471 782.267 465.175 781.468 465.93C781.523 465.979 781.216 465.505 781.718 464.67C782.721 463.007 782.788 462.326 784.925 460.439C787.061 458.552 790.265 456.797 790.265 456.797L794.448 454.711C794.448 454.711 789.827 454.83 786.06 456.085C782.293 457.34 779.372 458.917 779.372 458.917C779.372 458.917 777.474 460.21 777.099 460.739C776.979 460.907 777.267 461.197 777.267 461.197C777.267 461.197 782.233 466.995 783.533 468.703C783.716 468.943 783.71 469.073 783.25 468.703C782.804 468.344 781.906 467.489 781.907 467.496C779.894 465.484 778.13 463.539 776.117 461.527C775.899 461.308 775.683 461.308 775.465 461.527C760.917 470.53 750.207 482.87 743.334 498.55C736.36 516.256 729.292 533.871 722.132 551.394C719.291 557.84 716.029 564.037 712.346 569.987C711.09 572.006 709.348 573.419 707.127 574.228C705.724 574.035 704.364 573.709 703.049 573.249C703.063 573.027 703.713 572.698 704.353 572.424C704.888 572.196 705.412 572.007 705.599 571.944C705.547 571.918 707.673 571.443 709.063 569.282C709.64 568.384 709.778 568.419 710.305 567.642C711.144 566.404 712.25 564.555 712.25 564.555C712.25 564.555 715.326 558.426 717.166 554.433C717.914 552.808 718.217 550.741 718.217 550.741C718.217 550.741 715.593 549.593 712.718 548.45C709.522 547.178 705.736 545.371 702.376 543.987C697.734 542.075 693.443 539.982 693.443 539.982C693.443 539.982 691.47 539.075 688.181 537.822C685.884 536.947 682.654 535.842 680.239 535.019C678.659 534.48 678.167 534.28 676.769 533.821C675.482 533.398 674.302 532.809 673.37 532.809C672.387 532.809 672.06 533.136 672.06 533.136C672.06 533.136 672.872 534.535 673.387 535.404C673.971 536.39 674.668 537.646 675.507 538.917C677.717 542.264 681.18 546.487 684.631 550.698C685.72 552.027 688.339 554.931 690.639 557.351C692.728 559.549 694.563 561.338 694.563 561.338L699.053 565.154C699.053 565.154 700.23 566.305 702.216 568.102C704.202 569.899 704.468 570.153 705.163 570.944C705.208 570.994 705.279 571.209 705.313 571.416C705.347 571.623 705.316 571.737 705.322 571.944C705.323 571.957 705.334 572.023 705.307 572.037C705.2 572.091 704.675 572.292 704.675 572.292L704.102 572.537C704.102 572.537 703.812 572.69 703.702 572.678C703.469 572.655 702.726 572.27 702.723 572.27C701.503 571.661 700.309 570.953 699.135 570.15C696.042 567.57 693.793 566.277 689.675 562.648C685.557 559.019 682.662 555.634 682.662 555.634L674.507 546.501L668.635 538.998C668.635 538.998 646.823 508.417 634.385 494.309C623.49 482.811 611.257 473.08 597.688 465.115C569.276 447.872 538.396 439.12 505.048 438.856C485.436 438.412 467.06 443.034 449.92 452.719C444.607 455.971 439.387 459.341 434.263 462.831C433.719 463.05 433.176 463.05 432.632 462.831C435.267 460.196 438.095 457.801 441.113 455.655C446.125 452.497 450.572 449.317 456.118 446.195C469.825 439.234 484.396 435.429 499.828 434.778C554.635 432.271 601.39 450.211 640.093 488.601C642.742 488.258 644.198 487.912 647.922 487.785C654.532 487.561 659.665 488.723 666.515 489.906C673.365 491.088 680.4 494.531 680.4 494.531C680.4 494.531 695.736 501.903 702.397 507.194C708.595 512.117 717.467 520.578 721.969 524.156C723.802 525.403 725.759 526.437 727.84 527.255C729.014 524.336 730.156 521.4 731.265 518.448C731.683 514.139 730.812 510.117 728.656 506.379C728.437 505.945 728.437 505.508 728.656 505.074C729.54 504.607 730.355 504.718 731.102 505.4C732.299 507.142 733.333 508.992 734.201 510.945C737.437 501.756 741.459 492.949 746.27 484.523C746.489 484.09 746.489 483.653 746.27 483.219C741.876 478.825 737.473 474.421 733.059 470.008C729.073 466.801 727.84 465.033 721.316 460.222C714.792 455.41 711.834 453.783 706.964 450.762C700.697 447.578 688.696 440.487 688.696 440.487L669.451 431.027C669.451 431.027 668.543 430.555 668.543 430.31C668.543 430.066 668.327 429.91 669.451 430.049C670.575 430.187 670.913 430.377 673.204 431.092C676.589 432.149 682.825 434.778 682.825 434.778L703.702 445.217C703.702 445.217 714.466 451.088 722.947 456.96C731.428 462.831 737.626 468.703 737.626 468.703L739.605 470.585C739.605 470.585 740.812 470.712 741.867 470.772C742.921 470.832 743.824 470.823 743.824 470.823C743.824 470.823 757.86 458.31 765.027 452.23C761.135 448.87 752.548 442.3 752.548 442.3C752.548 442.3 747.113 443.613 744.02 444.215C741.885 444.63 737.844 445.166 734.092 445.72C730.341 446.274 718.89 448.371 716.58 448.039C714.271 447.706 713.054 446.688 712.199 446.121C711.765 445.687 712.918 445.498 714.381 445.068C715.845 444.638 716.015 444.564 718.054 444.401C720.093 444.238 719.893 444.157 723.359 443.749C726.825 443.341 735.08 441.893 737.561 441.204C740.041 440.515 746.234 439.369 748.042 438.831C743.644 435.381 738.014 431.546 733.059 428.907C731.572 427.538 731.79 426.886 733.712 426.95C738.888 429.918 750.165 438.004 750.165 438.004C750.165 438.004 751.984 437.575 753.736 436.892C755.487 436.208 757.459 435.457 757.459 435.457C757.459 435.457 749.53 431.063 742.845 428.091C740.291 426.955 737.657 426.042 735.669 425.319C734.162 423.858 734.38 423.097 736.321 423.035C744.124 426.312 759.664 434.266 759.664 434.266C759.664 434.266 761.667 433.328 764.02 432.259C766.374 431.19 768.289 429.917 768.289 429.917C768.289 429.917 769.16 429.73 761.903 427.765C754.645 425.8 746.864 423.904 739.257 422.057C738.445 421.422 738.226 420.661 738.605 419.773C749.343 422.132 760 424.905 770.572 428.091C771.596 427.83 773.508 426.666 773.508 426.666C773.508 426.666 752.018 421.706 741.867 419.773C740.826 419.439 740.389 418.732 740.562 417.653C741.762 417.599 742.959 417.653 744.15 417.816C754.497 420.201 764.828 422.647 775.139 425.156C781.741 421.715 786.759 418.224 794.711 411.292C802.662 404.361 803.368 402.428 806.943 397.429C814.158 386.685 819.27 374.942 822.274 362.2C823.876 353.406 825.399 344.598 826.841 335.778C827.193 334.174 827.738 332.651 828.472 331.211C831.3 327.949 834.125 324.687 836.953 321.425C840.62 318.083 851.485 308.698 851.795 308.54C857.474 303.646 863.457 298.55 868.92 293.698C874.384 288.846 876.085 287.525 876.447 286.855C876.02 286.488 863.212 288.805 863.212 288.805L857.014 290.11L847.881 291.904L839.4 294.351C839.4 294.351 822.77 300.218 816.24 304.3C814.342 305.935 812.136 307.438 809.552 308.051C808.913 307.74 808.08 307.313 807.922 306.746C807.067 301.988 808.535 298.128 812.325 295.166C815.261 293.369 821.459 290.436 821.459 290.436C821.459 290.436 828.064 287.309 832.549 285.596C837.035 283.884 841.683 282.934 841.683 282.934L851.143 280.324C851.143 280.324 858.029 278.337 860.276 277.551C857.226 276.569 858.087 276.276 849.549 273.856C839.557 271.025 819.828 268.092 819.828 268.092C819.828 268.092 813.956 266.95 813.956 266.95C813.956 266.95 812.27 266.732 812.162 266.95C811.836 266.624 811.803 264.453 808.245 259.526C804.688 254.6 797.932 247.244 797.932 247.244C797.932 247.244 795.811 244.239 786.229 237.755C776.647 231.272 771.345 228.354 759.275 222.197C747.206 216.04 738.238 212.726 738.238 212.726C738.238 212.726 729.354 209.317 727.84 208.887C729.363 208.283 733.197 207.884 734.69 207.908C736.863 207.944 739.746 208.479 748.717 211.823Z" fill="#040404" fill-rule="evenodd" opacity="1" stroke="none"/>
<path d="M612.693 260.752C612.693 260.752 611.738 262.04 608.615 267.929C605.618 273.581 604.701 273.474 602.091 285.217C599.482 296.96 597.567 304.811 598.177 314.901C599.133 325.008 600.979 335.011 603.722 344.911C616.18 349.645 628.304 355.136 640.093 361.384C647.07 365.427 653.594 370.103 659.665 375.411C660.97 376.172 662.275 376.933 663.579 377.694C664.268 378.106 664.594 378.704 664.558 379.488C663.028 379.358 661.612 378.869 660.317 378.02C652.508 371.614 644.246 365.852 635.526 360.732C625.313 355.489 603.991 346.177 603.991 346.177C603.991 346.177 607.493 356.446 609.431 360.732C626.034 364.47 641.692 370.559 656.403 378.999C657.744 379.915 658.993 380.948 660.154 382.098C660.314 382.519 660.37 382.955 660.317 383.402C659.616 383.444 658.964 383.281 658.36 382.913C646.314 375.096 633.373 369.116 619.543 364.972C616.428 363.949 613.273 363.188 610.083 362.689C611.867 366.583 613.824 370.389 615.955 374.106C624.69 374.819 633.279 376.341 641.724 378.673C646.252 380.202 650.544 382.213 654.609 384.707C654.978 385.309 655.141 385.961 655.098 386.664C654.544 386.717 653.999 386.662 653.467 386.501C642.089 380.286 629.913 376.915 616.933 376.389C620.12 381.642 623.438 386.806 626.882 391.884C630.757 397.277 635.053 402.224 639.767 406.725C640.077 406.883 644.051 410.618 648.574 414.921C653.097 419.225 658.837 424.101 658.837 424.101C658.837 424.101 661.186 426.842 658.781 427.128C656.375 427.413 650.531 425.319 650.531 425.319C650.531 425.319 645.068 422.243 641.398 419.96C637.728 417.677 634.283 414.921 626.709 407.051C616.95 396.908 614.281 390.674 607.147 375.247C597.821 374.189 588.472 373.482 579.094 373.127C579.978 372.782 580.901 372.619 581.867 372.638C590.081 372.932 598.291 373.204 606.495 373.453C604.649 369.015 602.799 364.557 600.949 360.079C589.741 357.12 578.435 354.619 567.025 352.577C569.432 352.524 571.827 352.742 574.201 353.229C582.803 354.961 600.466 358.772 600.685 358.663C599.051 353.856 597.684 348.585 596.709 343.606C591.379 341.413 585.941 339.51 580.399 337.898C581.609 337.755 582.806 337.863 583.987 338.224C588.042 339.376 596.457 342.119 596.457 342.119C596.457 342.119 594.363 331.124 593.61 322.73C592.858 314.335 593.033 315.554 593.447 308.54C594.934 296.869 598.033 285.615 602.744 274.779C605.177 270.178 607.57 266.743 610.343 262.502C613.116 258.262 612.872 259.069 613.834 257.817C613.997 257.98 614.16 258.143 614.324 258.306C613.736 259.103 612.693 260.752 612.693 260.752Z" fill="#030303" fill-rule="evenodd" opacity="1" stroke="none"/>
<path d="M661.296 327.297C662.023 327.534 662.624 327.969 663.09 328.601C664.94 331.32 662.32 330.157 668.635 336.756C674.118 342.485 681.289 349.412 685.271 357.633C685.956 359.533 686.39 361.49 686.576 363.504C686.579 365.758 686.902 366.685 686.739 370.028C686.576 373.372 686.227 374.592 685.924 376.878C685.79 377.693 685.408 378.345 684.782 378.836C684.684 375.91 684.859 373.431 684.619 370.028C683.725 365.786 682.449 364.451 677.932 360.079C672.852 355.163 670.878 353.759 666.678 348.173C662.478 342.587 662.64 341.401 661.133 337.735C660.047 334.204 660.102 330.725 661.296 327.297Z" fill="#030303" fill-rule="evenodd" opacity="1" stroke="none"/>
<path d="M912.035 353.971L920.296 355.676C920.296 355.676 922.694 356.167 923.885 356.491C921.878 357.819 914.425 360.569 914.425 360.569C914.425 360.569 910.51 362.159 904.313 364.972C898.115 367.786 889.634 371.822 889.634 371.822L875.281 379.162L862.56 386.338C862.56 386.338 853.566 391.246 845.085 396.424C836.604 401.603 829.023 406.719 828.635 407.052C823.204 410.126 819.475 412.864 812.951 417.104C806.427 421.345 802.539 424.014 802.539 424.014C802.539 424.014 795.692 428.683 793.406 430.538C790.111 429.766 786.849 428.788 783.62 427.602C788.77 423.702 793.915 419.407 798.984 415.37C812.221 402.383 821.051 387.16 825.536 369.05C827.461 360.864 829.94 344.259 829.94 344.259C829.94 344.259 833.936 343.647 843.314 344.259C852.692 344.87 867.452 346.705 867.452 346.705C867.452 346.705 873.245 347.369 878.666 348.187C884.088 349.006 882.746 348.882 889.138 349.978C895.53 351.075 898.444 351.617 904.235 352.573C910.027 353.529 912.035 353.971 912.035 353.971Z" fill="#fdfdfd" fill-rule="evenodd" opacity="1" stroke="none"/>
<path d="M524.814 392.21C516.488 378.334 514.282 363.22 518.585 347.521C518.819 347.211 519.091 347.156 519.4 347.358C519.376 354.357 519.757 361.37 520.542 368.397C521.099 371.278 521.86 374.105 522.825 376.878C525.283 382.011 527.566 387.23 529.675 392.536C529.893 393.623 529.893 394.711 529.675 395.798C529.327 396.023 528.947 396.186 528.534 396.287C533.155 400.691 537.667 405.203 542.071 409.824C547.521 416.145 552.197 422.995 556.097 430.375C556.499 431.709 556.771 433.069 556.913 434.452C557.134 436.951 556.047 437.93 553.651 437.388C552.431 436.82 551.398 436.006 550.552 434.942C533.329 409.932 513.267 387.37 490.369 367.256C486.561 364.05 482.647 361.006 478.626 358.122C478.316 357.965 477.99 357.91 477.647 357.959C477.647 357.415 477.647 356.872 477.647 356.328C479.238 356.877 480.76 357.584 482.214 358.448C487.866 361.999 498.85 369.539 498.85 369.539C498.85 369.539 505.08 374.31 511.572 379.977C518.063 385.645 520.413 388.32 524.814 392.21Z" fill="#020202" fill-rule="evenodd" opacity="1" stroke="none"/>
<path d="M927.147 357.959C927.3 358.297 927.468 358.628 927.621 359.087C927.898 359.916 927.897 359.91 928.125 360.86C928.697 363.236 928.839 366.117 929.267 368.724C930.758 377.385 933.204 385.758 936.606 393.841C934.323 394.662 932.147 395.694 930.082 396.94C929.052 397.454 918.665 402.974 918.665 402.974L904.639 410.64C904.639 410.64 898.9 414.413 895.345 416.687C895.141 416.818 885.72 422.872 885.72 422.872L873.65 430.864C873.65 430.864 859.901 441.57 859.298 442.118C856.955 443.749 846.978 451.716 846.978 451.716C846.978 451.716 830.334 464.291 829.93 464.666C827.607 466.532 822.111 470.823 822.111 470.823C822.111 470.823 820.52 472.454 821.09 471.671C822.395 469.877 823.09 467.83 823.09 467.072C822.392 460.881 819.13 456.748 813.304 454.676C807.331 452.84 801.352 452.729 795.363 454.35C796.606 453.659 797.421 452.625 797.809 451.251C798.344 447.784 796.876 446.535 793.406 447.5C790.445 448.326 785.93 449.486 785.93 449.486C785.93 449.486 781.053 446.6 778.727 445.054C779.934 443.847 781.01 443.014 783.62 441.057C786.229 439.1 787.537 438.204 789.165 437.225C797.477 440.621 805.632 444.372 813.63 448.479C819.466 451.666 824.9 455.417 829.94 459.733C830.237 459.312 830.181 458.878 829.777 458.428C826.998 455.707 824.006 453.261 820.806 451.088C811.007 445.373 800.895 440.265 790.47 435.757C791.723 434.967 792.92 434.097 794.058 433.147C803.609 435.678 813.069 438.615 822.437 441.955C827.542 443.618 832.38 445.85 836.953 448.642C837.172 448.423 837.172 448.208 836.953 447.989C834.461 445.954 831.688 444.378 828.635 443.26C818.053 439.169 807.396 435.31 796.668 431.68C798.015 430.442 801.449 428.172 801.449 428.172L814.282 419.284L836.449 404.913L844.053 400.516L859.251 391.244L877.565 381.445L893.209 373.993L901.051 369.865C901.051 369.865 903.416 368.479 906.596 367.093C909.777 365.706 910.847 365.312 913.244 364.243C915.642 363.175 919.915 361.204 921.994 360.323C924.074 359.443 925.14 358.682 927.147 357.959Z" fill="#fdfdfd" fill-rule="evenodd" opacity="1" stroke="none"/>
<path d="M770.246 390.905C774.016 391.769 775.508 392.188 780.483 392.718C785.457 393.248 786.676 392.663 790.144 393.025C792.417 393.137 792.962 394.116 791.775 395.961C791.319 396.341 790.413 397.328 789.156 398.094C787.714 398.974 786.627 399.503 783.62 399.993C779.727 400.628 778.528 400.91 773.508 400.116C768.289 399.291 768.207 398.678 763.396 397.918C758.584 397.159 759.237 397.282 754.262 397.079C749.288 396.875 746.642 396.953 743.498 397.103C743.077 397.025 742.751 397.134 742.519 397.429C740.663 398.936 738.598 400.186 736.321 401.18C735.623 401.469 735.078 401.305 734.69 400.691C736.155 398.086 738.327 396.401 741.214 395.635C742.176 395.603 742.313 395.374 742.845 395.146C746.355 393.012 746.612 392.128 753.462 391.068C760.312 390.007 766.495 390.045 770.246 390.905Z" fill="#040404" fill-rule="evenodd" opacity="1" stroke="none"/>
<path d="M702.376 411.845C702.376 411.845 707.818 415.092 708.595 415.37C710.581 416.113 710.922 417.961 709.899 419.284C709.337 419.949 707.306 420.812 704.861 421.605C702.416 422.398 700.12 422.455 700.12 422.455C700.12 422.455 697.918 422.55 696.851 422.872C695.768 424.654 695.008 426.556 694.568 428.581C694.832 430.232 694.852 431.689 696.036 433.311C699.882 438.122 704.827 440.298 710.878 439.834C711.211 439.998 711.266 440.216 711.041 440.487C709.968 441.133 708.953 442.358 708.105 442.77C702.886 443.462 698.264 442.105 694.242 438.693C693.676 438.204 693.674 438.204 692.937 437.388C689.91 434.579 688.931 431.154 690.001 427.113C687.02 427.949 684.032 428.492 681.031 428.744C679.142 428.794 673.342 428.026 672.387 427.765C671.473 427.569 670.606 427.243 669.777 426.787C666.867 424.368 664.639 421.432 663.09 417.979C662.927 416.897 662.927 414.717 662.927 414.717C662.927 414.717 663.008 413.861 664.232 414.88C665.455 415.9 665.962 417.533 667.82 418.795C672.001 421.635 676.6 423.197 682.662 423.198C686.13 423.199 688.54 422.436 691.143 420.915C690.005 418.936 687.768 414.444 687.061 412.813C685.776 410.866 685.943 408.638 687.555 406.889C688.533 405.979 689.059 405.378 690.164 405.258C691.749 405.255 694.568 407.052 694.568 407.052L702.376 411.845Z" fill="#040404" fill-rule="evenodd" opacity="1" stroke="none"/>
<path d="M780.994 428.764C780.994 428.764 787.844 430.696 791.122 432.006C789.984 432.955 788.787 433.825 787.534 434.615C784.419 433.269 777.849 430.538 777.849 430.538L780.994 428.764Z" fill="#f9f9f9" fill-rule="evenodd" opacity="1" stroke="none"/>
<path d="M775.485 431.843C775.485 431.843 782.4 434.463 785.577 435.92C783.835 437.61 782.767 438.057 780.361 440.014C777.955 441.971 777.197 442.506 775.954 443.749C772.284 441.671 764.537 437.208 764.537 437.208C764.537 437.208 768.814 435.205 771.551 433.864C774.287 432.523 775.485 431.843 775.485 431.843Z" fill="#fbfbfb" fill-rule="evenodd" opacity="1" stroke="none"/>
<path d="M762.091 438.204L774.486 444.727C774.486 444.727 772.706 446.097 770.626 447.728C768.547 449.359 767.734 449.904 766.168 451.251C762.404 448.029 758.637 444.558 754.684 441.583C757.342 440.542 762.091 438.204 762.091 438.204Z" fill="#fbfbfb" fill-rule="evenodd" opacity="1" stroke="none"/>
<path d="M776.935 446.121C776.935 446.121 782.276 448.567 784.925 450.11C780.678 452.122 776.545 454.354 772.529 456.797C771.166 455.485 769.75 454.236 768.289 453.045C771.28 450.866 776.935 446.121 776.935 446.121Z" fill="#f9f9f9" fill-rule="evenodd" opacity="1" stroke="none"/>
<path d="M767.31 454.187C767.31 454.187 770.236 456.307 771.551 457.612C768.608 459.517 765.78 461.585 763.069 463.81C758.18 468.481 753.776 473.537 749.858 478.978C749.085 476.969 748.214 475.012 747.249 473.107C747.111 472.901 747 472.525 747 472.525L747.743 471.657C747.743 471.657 752.632 466.165 756.219 462.776C759.806 459.387 762.18 457.854 762.18 457.854L767.31 454.187Z" fill="#fafafa" fill-rule="evenodd" opacity="1" stroke="none"/>
<path d="M742.845 473.433C743.498 473.433 744.875 473.433 744.875 473.433C744.875 473.433 745.053 474.009 745.277 474.653C745.501 475.297 745.771 475.683 745.771 476.009C744.815 475.598 743.413 474.327 742.845 473.433Z" fill="#f7f7f7" fill-rule="evenodd" opacity="1" stroke="none"/>
<path d="M641.398 490.395C644.83 490.033 648.31 490.085 651.836 490.558C663.309 492.437 674.073 496.244 684.13 501.975C675.561 501.036 667.127 500.059 658.36 499.365C649.594 498.672 649.354 499.013 649.064 499.202C646.552 496.205 643.998 493.269 641.398 490.395Z" fill="#fdfdfd" fill-rule="evenodd" opacity="1" stroke="none"/>
<path d="M698.809 536.715L693.589 534.595L678.258 528.397C678.258 528.397 670.85 526.071 667.167 524.646C661.922 516.735 656.485 508.962 650.858 501.323C659.355 501.825 667.836 502.585 676.301 503.606C681.598 504.343 686.818 505.433 691.958 506.868C695.054 509.341 695.22 508.825 701.418 514.044C707.616 519.263 710.552 523.3 716.749 527.745C722.947 532.189 722.892 530.814 726.209 531.822C724.265 536.689 722.415 541.582 720.664 546.501C716.952 545.19 709.899 541.445 709.899 541.445L698.809 536.715Z" fill="#fdfdfd" fill-rule="evenodd" opacity="1" stroke="none"/>
<path d="M432.306 801.261C433.062 801.421 433.714 801.747 434.263 802.239C434.062 802.275 433.898 802.383 433.774 802.566C433.23 802.164 432.74 801.727 432.306 801.261Z" fill="#8f8f8f" fill-rule="evenodd" opacity="1" stroke="none"/>
<path d="M717.412 448.081C722.14 447.666 723.059 447.579 731.83 446.121C734.999 445.594 737.65 445.26 740.945 444.727C747 443.749 752.542 442.279 752.542 442.279C752.542 442.279 755.811 444.772 758.93 447.26C762.05 449.749 765.018 452.277 765.018 452.277L756.666 459.449L743.807 470.818C743.807 470.818 742.588 470.826 741.54 470.764C740.492 470.702 739.616 470.57 739.616 470.57C739.616 470.57 736.943 467.899 732.719 464.456C728.495 461.013 727.23 460.098 722.606 456.797C717.982 453.496 709.876 448.685 709.876 448.685L702.782 444.727C702.782 444.727 705.059 445.592 707.158 446.121C709.257 446.649 709.224 446.771 711.177 447.389C713.129 448.006 714.947 448.105 714.947 448.105C714.947 448.105 716.89 448.127 717.412 448.081Z" fill="#ffffff" fill-rule="nonzero" opacity="1" stroke="none"/>
<g fill="#1b1c17" opacity="1" stroke="none">
<path d="M1406.09 644.566L1403.09 675.066C1393.76 679.066 1382.43 682.566 1369.09 685.566C1355.76 688.566 1342.26 690.816 1328.59 692.316C1314.93 693.816 1302.76 694.566 1292.09 694.566C1265.09 694.566 1240.09 689.982 1217.09 680.816C1194.09 671.649 1174.01 658.899 1156.84 642.566C1139.68 626.232 1126.26 606.982 1116.59 584.816C1106.93 562.649 1102.09 538.566 1102.09 512.566C1102.09 486.566 1106.93 462.482 1116.59 440.316C1126.26 418.149 1139.68 398.899 1156.84 382.566C1174.01 366.232 1194.09 353.482 1217.09 344.316C1240.09 335.149 1265.09 330.566 1292.09 330.566C1303.09 330.566 1315.43 331.399 1329.09 333.066C1342.76 334.732 1356.09 336.982 1369.09 339.816C1382.09 342.649 1393.09 345.899 1402.09 349.566L1399.59 377.566L1396.59 377.566C1384.26 366.232 1368.76 357.566 1350.09 351.566C1331.43 345.566 1312.09 342.566 1292.09 342.566C1262.09 342.566 1235.68 349.649 1212.84 363.816C1190.01 377.982 1172.18 397.816 1159.34 423.316C1146.51 448.816 1140.09 478.566 1140.09 512.566C1140.09 546.899 1146.51 576.732 1159.34 602.066C1172.18 627.399 1189.93 647.149 1212.59 661.316C1235.26 675.482 1261.76 682.566 1292.09 682.566C1314.76 682.566 1335.84 678.899 1355.34 671.566C1374.84 664.232 1390.76 655.232 1403.09 644.566L1406.09 644.566Z"/>
<path d="M1501.09 337.566L1535.09 337.566L1535.09 548.566C1535.09 588.899 1545.01 620.316 1564.84 642.816C1584.68 665.316 1612.59 676.566 1648.59 676.566C1671.26 676.566 1691.01 672.149 1707.84 663.316C1724.68 654.482 1737.68 642.232 1746.84 626.566C1756.01 610.899 1760.26 592.899 1759.59 572.566L1751.09 337.566L1785.09 337.566L1776.59 572.566C1775.26 612.566 1763.34 642.899 1740.84 663.566C1718.34 684.232 1686.26 694.566 1644.59 694.566C1599.59 694.566 1564.43 681.482 1539.09 655.316C1513.76 629.149 1501.09 593.232 1501.09 547.566L1501.09 337.566Z"/>
<path d="M1905.09 337.566L1972.09 337.566C2007.43 337.566 2034.84 344.982 2054.34 359.816C2073.84 374.649 2083.59 395.399 2083.59 422.066C2083.59 442.732 2077.51 459.899 2065.34 473.566C2053.18 487.232 2035.59 496.399 2012.59 501.066L2012.59 504.066C2034.59 508.399 2052.59 518.732 2066.59 535.066C2080.59 551.399 2091.09 571.566 2098.09 595.566C2104.43 617.566 2110.68 634.649 2116.84 646.816C2123.01 658.982 2129.84 667.732 2137.34 673.066C2144.84 678.399 2153.76 682.232 2164.09 684.566L2164.09 687.566L2143.59 687.566C2128.93 687.566 2116.84 684.899 2107.34 679.566C2097.84 674.232 2089.76 665.232 2083.09 652.566C2076.43 639.899 2070.09 622.399 2064.09 600.066C2054.43 565.732 2041.59 541.399 2025.59 527.066C2009.59 512.732 1990.09 505.566 1967.09 505.566L1964.09 505.566L1964.09 496.566L1967.09 496.566C2020.76 496.566 2047.59 471.899 2047.59 422.566C2047.59 373.899 2022.43 349.566 1972.09 349.566L1939.09 349.566L1939.09 687.566L1905.09 687.566L1905.09 337.566Z"/>
<path d="M2226.09 687.566L2226.09 337.566L2260.09 337.566L2260.09 687.566L2226.09 687.566Z"/>
<path d="M2365.09 512.566C2365.09 486.899 2369.68 462.982 2378.84 440.816C2388.01 418.649 2400.84 399.316 2417.34 382.816C2433.84 366.316 2453.18 353.482 2475.34 344.316C2497.51 335.149 2521.43 330.566 2547.09 330.566C2572.76 330.566 2596.68 335.149 2618.84 344.316C2641.01 353.482 2660.34 366.316 2676.84 382.816C2693.34 399.316 2706.18 418.649 2715.34 440.816C2724.51 462.982 2729.09 486.899 2729.09 512.566C2729.09 538.232 2724.51 562.149 2715.34 584.316C2706.18 606.482 2693.34 625.816 2676.84 642.316C2660.34 658.816 2641.01 671.649 2618.84 680.816C2596.68 689.982 2572.76 694.566 2547.09 694.566C2521.43 694.566 2497.51 689.982 2475.34 680.816C2453.18 671.649 2433.84 658.816 2417.34 642.316C2400.84 625.816 2388.01 606.482 2378.84 584.316C2369.68 562.149 2365.09 538.232 2365.09 512.566ZM2403.09 512.566C2403.09 546.566 2409.09 576.316 2421.09 601.816C2433.09 627.316 2449.93 647.149 2471.59 661.316C2493.26 675.482 2518.43 682.566 2547.09 682.566C2575.76 682.566 2600.93 675.482 2622.59 661.316C2644.26 647.149 2661.09 627.232 2673.09 601.566C2685.09 575.899 2691.09 546.232 2691.09 512.566C2691.09 478.899 2685.09 449.316 2673.09 423.816C2661.09 398.316 2644.26 378.399 2622.59 364.066C2600.93 349.732 2575.76 342.566 2547.09 342.566C2518.43 342.566 2493.34 349.649 2471.84 363.816C2450.34 377.982 2433.51 397.816 2421.34 423.316C2409.18 448.816 2403.09 478.566 2403.09 512.566Z"/>
</g>
</g>
</svg>
