<?xml version="1.0" encoding="UTF-8" standalone="no"?>
<!DOCTYPE svg PUBLIC "-//W3C//DTD SVG 1.1//EN" "http://www.w3.org/Graphics/SVG/1.1/DTD/svg11.dtd">
<svg height="100%" stroke-miterlimit="10" style="fill-rule:nonzero;clip-rule:evenodd;stroke-linecap:round;stroke-linejoin:round;" version="1.1" viewBox="0 0 384 96" width="100%" xml:space="preserve" xmlns="http://www.w3.org/2000/svg" xmlns:xlink="http://www.w3.org/1999/xlink">
<defs/>
<g id="Layer-1">
<path d="M40.9347 50.9624C40.9347 50.9624 36.9442 51.7209 35.4925 53.9966C34.0407 56.2724 33.7723 57.9071 35.1277 60.0654C36.483 62.2237 38.9662 63.7915 41.457 64.9329C43.9479 66.0742 45.091 64.6308 45.091 64.6308L44.1933 61.4279C44.1933 61.4279 39.4412 61.8478 38.3728 58.6611C37.4538 55.9201 42.0434 54.5088 42.0434 54.5088L40.9347 50.9624Z" fill="#f8f2ec" fill-rule="nonzero" opacity="1" stroke="none"/>
<path d="M41.6489 45.1928C40.1231 51.4891 48.1992 68.7561 48.1992 68.7561L82.6901 78.2082C82.6901 78.2082 96.7261 85.6222 101.664 84.2929C106.601 82.9636 105.274 77.0582 102.441 72.8909C99.6071 68.7235 88.2453 66.2126 88.2453 66.2126L92.0422 48.6443L52.4549 39.4282C52.4549 39.4282 43.1747 38.8966 41.6489 45.1928Z" fill="#f8f2ec" fill-rule="nonzero" opacity="1" stroke="none"/>
<path d="M48.1992 42.9661C48.1992 38.8304 58.8893 35.4777 72.0763 35.4777C85.2632 35.4777 95.9533 38.8304 95.9533 42.9661C95.9533 47.1019 85.2632 50.4546 72.0763 50.4546C58.8893 50.4546 48.1992 47.1019 48.1992 42.9661Z" fill="#ccb9ac" fill-rule="nonzero" opacity="1" stroke="none"/>
<path d="M41.9539 54.3225L46.5402 66.5985C46.5402 66.5985 26.6975 71.7746 30.4851 77.8182C34.2726 83.8618 41.5536 86.4647 57.9085 89.3663C74.2634 92.2678 89.7181 87.7452 100.622 83.7231C106.035 81.7266 102.833 76.9313 92.5119 73.3024C88.7567 71.9822 80.7119 73.719 76.2581 72.7633C68.2921 71.0539 64.4063 67.1197 64.4063 67.1197C64.4063 67.1197 59.7592 59.2752 54.1461 56.0759C48.533 52.8766 41.9539 54.3225 41.9539 54.3225Z" fill="#ddd7d3" fill-rule="nonzero" opacity="1" stroke="none"/>
<path d="M66.125 3.6875C66.0011 3.86369 65.3783 4.61189 65.3438 4.65625C63.8841 6.53075 63.46 8.4864 64.375 11.625C64.9133 13.4714 65.9658 15.1537 67.7812 17.375C71.271 21.6449 71.0094 21.2439 71.0938 22C71.254 23.4367 70.31 24.2428 67.1562 25.6875C66.9882 25.7645 66.9819 25.7662 66.8125 25.8438C62.71 27.7238 61.1333 29.0764 61.375 32C61.4706 33.1563 61.7222 34.415 62.0938 35.7812C62.1778 36.0905 62.3414 36.434 62.4375 36.75C57.6862 36.9659 53.9286 37.4271 49.3438 38.75C47.4302 39.3021 45.7771 40.0312 44.375 40.875C42.2303 42.1657 40.9962 43.4938 40.4688 44.4375C40.3979 44.5854 40.3711 44.6696 40.3438 44.7812C40.0188 46.1064 40.8289 47.5678 43.1875 48.75C44.5466 49.4312 46.4123 50.0281 48.8438 50.5C59.7358 52.614 74.2171 52.6203 85.0312 50.5C87.4601 50.0238 89.3385 49.3609 90.7188 48.5625C90.7977 48.5169 90.7996 48.4526 90.875 48.4062C90.7449 49.1171 90.6753 49.6042 90.5938 50.0312C89.8531 53.9079 89.028 57.7912 88.1875 61.4062C87.7034 63.4884 87.2839 64.51 86.8125 66.25C82.2209 65.6846 76.9387 65.3483 69.2188 65.3125C67.9706 65.3067 66.9891 65.2828 64.75 65.2812C55.7269 65.2751 50.8664 65.041 46.9688 64.625C46.896 64.4143 46.8233 64.2457 46.75 64.0312C45.7002 60.9611 44.6333 57.667 43.625 54.375C43.272 53.2225 42.3279 50.0535 42.3125 50C42.1564 49.459 41.599 49.1416 41.0625 49.3125C40.8144 49.3915 40.4001 49.5256 39.875 49.75C39.0036 50.1224 38.1321 50.5963 37.3125 51.125C34.8325 52.7247 33.3069 54.7016 33.3438 57.1562C33.4 60.904 36.5451 64.73 41.125 65.875C42.3413 66.1791 44.054 66.2775 45.4688 66.4688C45.8246 67.479 46.1907 68.5254 46.5312 69.4375C48.2416 74.0179 49.6671 77.1066 50.8125 78.4688C52.9393 80.9978 59.647 83.1562 66.9375 83.1562C74.2436 83.1562 81.6671 80.9647 84.25 78.5312C84.9939 77.8304 85.6993 76.5634 86.4375 74.7188C87.0128 73.2812 87.649 70.5488 88.25 68.4688C89.5492 68.6662 91.1298 68.7615 92.2812 69.0312C98.8202 70.5635 104.312 74.7085 104.312 78.9375C104.312 83.4556 99.1718 86.0707 84.6562 88.8125C77.7879 90.1099 72.804 90.5692 66.9375 90.5312C60.9866 90.4928 55.508 90.0005 49.2188 88.8125C34.8177 86.0923 29.5625 83.371 29.5625 78.8125C29.5625 76.2598 31.7453 73.0573 34.875 71.1562C35.431 70.8185 36.055 70.4995 36.75 70.2188C37.7852 69.8007 38.9122 69.4743 40.0312 69.2188C40.4235 69.1292 40.7686 69.0579 41.0938 69C41.2856 68.9658 41.4339 68.9468 41.5 68.9375L41.2188 66.9375C41.1292 66.9501 40.9667 66.9926 40.75 67.0312C40.3943 67.0946 39.9873 67.153 39.5625 67.25C38.347 67.5275 37.1437 67.913 36 68.375C35.21 68.6941 34.4671 69.0399 33.8125 69.4375C30.13 71.6744 27.5625 75.4902 27.5625 78.8125C27.5625 84.8016 33.4959 87.8822 48.8438 90.7812C55.2563 91.9925 60.8708 92.4921 66.9375 92.5312C72.934 92.57 78.0373 92.1023 85.0312 90.7812C100.508 87.8578 106.312 84.8976 106.312 78.9375C106.312 73.5108 100.088 68.8132 92.75 67.0938C91.6149 66.8278 90.0739 66.7286 88.8125 66.5312C89.2677 64.8363 89.6914 63.8432 90.1562 61.8438C91.0034 58.2 91.786 54.307 92.5312 50.4062C92.792 49.0413 93.4886 45.2855 93.5 45.2188L93.4375 45.2188C93.4423 45.1666 93.5 45.0785 93.5 45.0312C93.5 43.8059 91.737 43.6671 91.5312 44.875C91.5309 44.8769 91.5015 45.0227 91.5 45.0312C91.5 45.0286 91.4686 45.1584 91.3438 45.375C91.0751 45.8412 90.5794 46.3459 89.7188 46.8438C88.5448 47.5228 86.8809 48.095 84.6562 48.5312C74.0959 50.6018 59.8588 50.5964 49.2188 48.5312C46.9536 48.0916 45.2731 47.5599 44.0938 46.9688C43.1512 46.4963 42.5967 46.0337 42.375 45.625C42.28 45.4499 42.2702 45.3522 42.2812 45.2812C42.2822 45.2752 42.2799 45.2554 42.2812 45.25C42.3364 45.1682 42.5403 44.9549 42.875 44.5938C43.5048 43.9139 44.328 43.2114 45.4062 42.5625C46.6583 41.809 48.159 41.1916 49.9062 40.6875C54.5161 39.3574 58.1989 38.9068 63.125 38.7188C63.3383 39.3073 63.4736 39.8665 63.7188 40.4688C64.2301 41.7249 64.7651 42.9415 65.3125 44.0625C65.5044 44.4554 66.0236 45.4596 66.0625 45.5312C66.2443 45.8663 66.5879 46.0466 66.9688 46.0312C67.0932 46.0262 68.7741 45.926 69.4062 45.875C71.2143 45.729 72.9937 45.524 74.6875 45.25C75.7946 45.0709 76.8284 44.8867 77.75 44.6562C78.9608 44.3536 80.1992 43.9867 81.4688 43.5625C82.7344 43.1396 83.9681 42.6717 85.0938 42.2188C85.4883 42.06 86.4597 41.6258 86.5312 41.5938C87.3155 41.2423 87.3437 40.1396 86.5625 39.7812C86.5132 39.7586 85.8585 39.4789 85.5938 39.375C84.8413 39.0797 83.997 38.8063 83.0938 38.5312C82.048 38.2128 80.981 37.9285 79.9062 37.7188C75.9899 36.9543 70.5008 36.5115 66.9375 36.5312C65.937 36.5368 65.3819 36.6356 64.5 36.6562C64.3556 36.2042 64.1497 35.7168 64.0312 35.2812C63.6897 34.025 63.4596 32.8669 63.375 31.8438C63.2323 30.1171 64.3002 29.1942 67.6562 27.6562C67.8245 27.5792 67.831 27.5774 68 27.5C71.9385 25.6958 73.3618 24.4653 73.0625 21.7812C72.9679 20.9326 72.5136 20.0716 71.6875 18.9688C71.3878 18.5686 71.0528 18.1506 70.5625 17.5625C70.4307 17.4044 69.5273 16.3183 69.3438 16.0938C67.6861 14.0655 66.7249 12.5842 66.2812 11.0625C65.5524 8.56249 65.8598 7.25895 66.9375 5.875C66.9332 5.88051 67.5786 5.08753 67.75 4.84375L66.125 3.6875ZM66.9375 38.5312C70.376 38.5122 75.7544 38.9503 79.5312 39.6875C80.5353 39.8835 81.5171 40.1382 82.5 40.4375C82.8085 40.5314 83.0525 40.6521 83.3438 40.75C82.5317 41.0614 81.7178 41.3642 80.8438 41.6562C79.6207 42.065 78.4386 42.4294 77.2812 42.7188C76.4188 42.9344 75.4298 43.1106 74.375 43.2812C72.7397 43.5458 70.9777 43.733 69.2188 43.875C68.7689 43.9113 68.0709 43.9678 67.5312 44C67.369 43.6834 67.2342 43.4111 67.125 43.1875C66.5963 42.1048 66.0556 40.9301 65.5625 39.7188C65.4074 39.3377 65.3292 38.9997 65.1875 38.625C65.8447 38.6133 66.2134 38.5353 66.9375 38.5312ZM40.7188 51.5625C41.0014 52.514 41.4465 54.0799 41.7188 54.9688C42.6966 58.1613 43.6989 61.3469 44.7188 64.3438C43.7589 64.1894 42.4521 64.1208 41.5938 63.9062C37.8773 62.9771 35.3861 59.9488 35.3438 57.125C35.3195 55.5101 36.4146 54.0458 38.375 52.7812C39.0914 52.3191 39.8819 51.9247 40.6562 51.5938C40.6863 51.5809 40.6896 51.5748 40.7188 51.5625ZM47.7188 66.7812C51.5982 67.1223 56.4343 67.2756 64.75 67.2812C66.9865 67.2828 67.9741 67.3067 69.2188 67.3125C76.6918 67.3472 81.8086 67.662 86.25 68.1875C85.6951 70.0859 85.1174 72.6602 84.5938 73.9688C83.9567 75.5606 83.3486 76.6476 82.875 77.0938C80.7205 79.1235 73.7798 81.1563 66.9375 81.1562C60.1798 81.1562 54.0202 79.1811 52.3438 77.1875C51.4028 76.0686 50.0302 73.0678 48.4062 68.7188C48.184 68.1235 47.9481 67.4206 47.7188 66.7812Z" fill="#433b35" fill-rule="nonzero" opacity="1" stroke="none"/>
<g opacity="1">
<path d="M168.855 82.0957L168.423 86.4877C167.079 87.0637 165.447 87.5677 163.527 87.9997C161.607 88.4317 159.663 88.7557 157.695 88.9717C155.727 89.1877 153.975 89.2957 152.439 89.2957C148.551 89.2957 144.951 88.6357 141.639 87.3157C138.327 85.9957 135.435 84.1597 132.963 81.8077C130.491 79.4557 128.559 76.6837 127.167 73.4917C125.775 70.2997 125.079 66.8317 125.079 63.0877C125.079 59.3437 125.775 55.8757 127.167 52.6837C128.559 49.4917 130.491 46.7197 132.963 44.3677C135.435 42.0157 138.327 40.1797 141.639 38.8597C144.951 37.5397 148.551 36.8797 152.439 36.8797C154.023 36.8797 155.799 36.9997 157.767 37.2397C159.735 37.4797 161.655 37.8037 163.527 38.2117C165.399 38.6197 166.983 39.0877 168.279 39.6157L167.919 43.6477L167.487 43.6477C165.711 42.0157 163.479 40.7677 160.791 39.9037C158.103 39.0397 155.319 38.6077 152.439 38.6077C148.119 38.6077 144.315 39.6277 141.027 41.6677C137.739 43.7077 135.171 46.5637 133.323 50.2357C131.475 53.9077 130.551 58.1917 130.551 63.0877C130.551 68.0317 131.475 72.3277 133.323 75.9757C135.171 79.6237 137.727 82.4677 140.991 84.5077C144.255 86.5477 148.071 87.5677 152.439 87.5677C155.703 87.5677 158.739 87.0397 161.547 85.9837C164.355 84.9277 166.647 83.6317 168.423 82.0957L168.855 82.0957Z" fill="#433b35" fill-rule="nonzero" opacity="1" stroke="none"/>
<path d="M182.535 37.8877L187.431 37.8877L187.431 68.2717C187.431 74.0797 188.859 78.6037 191.715 81.8437C194.571 85.0837 198.591 86.7037 203.775 86.7037C207.039 86.7037 209.883 86.0677 212.307 84.7957C214.731 83.5237 216.603 81.7597 217.923 79.5037C219.243 77.2477 219.855 74.6557 219.759 71.7277L218.535 37.8877L223.431 37.8877L222.207 71.7277C222.015 77.4877 220.299 81.8557 217.059 84.8317C213.819 87.8077 209.199 89.2957 203.199 89.2957C196.719 89.2957 191.655 87.4117 188.007 83.6437C184.359 79.8757 182.535 74.7037 182.535 68.1277L182.535 37.8877Z" fill="#433b35" fill-rule="nonzero" opacity="1" stroke="none"/>
<path d="M240.711 37.8877L250.359 37.8877C255.447 37.8877 259.395 38.9557 262.203 41.0917C265.011 43.2277 266.415 46.2157 266.415 50.0557C266.415 53.0317 265.539 55.5037 263.787 57.4717C262.035 59.4397 259.503 60.7597 256.191 61.4317L256.191 61.8637C259.359 62.4877 261.951 63.9757 263.967 66.3277C265.983 68.6797 267.495 71.5837 268.503 75.0397C269.415 78.2077 270.315 80.6677 271.203 82.4197C272.091 84.1717 273.075 85.4317 274.155 86.1997C275.235 86.9677 276.519 87.5197 278.007 87.8557L278.007 88.2877L275.055 88.2877C272.943 88.2877 271.203 87.9037 269.835 87.1357C268.467 86.3677 267.303 85.0717 266.343 83.2477C265.383 81.4237 264.471 78.9037 263.607 75.6877C262.215 70.7437 260.367 67.2397 258.063 65.1757C255.759 63.1117 252.951 62.0797 249.639 62.0797L249.207 62.0797L249.207 60.7837L249.639 60.7837C257.367 60.7837 261.231 57.2317 261.231 50.1277C261.231 43.1197 257.607 39.6157 250.359 39.6157L245.607 39.6157L245.607 88.2877L240.711 88.2877L240.711 37.8877Z" fill="#433b35" fill-rule="nonzero" opacity="1" stroke="none"/>
<path d="M286.935 88.2877L286.935 37.8877L291.831 37.8877L291.831 88.2877L286.935 88.2877Z" fill="#433b35" fill-rule="nonzero" opacity="1" stroke="none"/>
<path d="M306.951 63.0877C306.951 59.3917 307.611 55.9477 308.931 52.7557C310.251 49.5637 312.099 46.7797 314.475 44.4037C316.851 42.0277 319.635 40.1797 322.827 38.8597C326.019 37.5397 329.463 36.8797 333.159 36.8797C336.855 36.8797 340.299 37.5397 343.491 38.8597C346.683 40.1797 349.467 42.0277 351.843 44.4037C354.219 46.7797 356.067 49.5637 357.387 52.7557C358.707 55.9477 359.367 59.3917 359.367 63.0877C359.367 66.7837 358.707 70.2277 357.387 73.4197C356.067 76.6117 354.219 79.3957 351.843 81.7717C349.467 84.1477 346.683 85.9957 343.491 87.3157C340.299 88.6357 336.855 89.2957 333.159 89.2957C329.463 89.2957 326.019 88.6357 322.827 87.3157C319.635 85.9957 316.851 84.1477 314.475 81.7717C312.099 79.3957 310.251 76.6117 308.931 73.4197C307.611 70.2277 306.951 66.7837 306.951 63.0877ZM312.423 63.0877C312.423 67.9837 313.287 72.2677 315.015 75.9397C316.743 79.6117 319.167 82.4677 322.287 84.5077C325.407 86.5477 329.031 87.5677 333.159 87.5677C337.287 87.5677 340.911 86.5477 344.031 84.5077C347.151 82.4677 349.575 79.5997 351.303 75.9037C353.031 72.2077 353.895 67.9357 353.895 63.0877C353.895 58.2397 353.031 53.9797 351.303 50.3077C349.575 46.6357 347.151 43.7677 344.031 41.7037C340.911 39.6397 337.287 38.6077 333.159 38.6077C329.031 38.6077 325.419 39.6277 322.323 41.6677C319.227 43.7077 316.803 46.5637 315.051 50.2357C313.299 53.9077 312.423 58.1917 312.423 63.0877Z" fill="#433b35" fill-rule="nonzero" opacity="1" stroke="none"/>
</g>
</g>
</svg>
