<?xml version="1.0" encoding="UTF-8" standalone="no"?>
<!DOCTYPE svg PUBLIC "-//W3C//DTD SVG 1.1//EN" "http://www.w3.org/Graphics/SVG/1.1/DTD/svg11.dtd">
<!-- Created with Vectornator (http://vectornator.io/) -->
<svg height="100%" stroke-miterlimit="10" style="fill-rule:nonzero;clip-rule:evenodd;stroke-linecap:round;stroke-linejoin:round;" version="1.1" viewBox="0 0 2318 2318" width="100%" xml:space="preserve" xmlns="http://www.w3.org/2000/svg" xmlns:xlink="http://www.w3.org/1999/xlink">
<defs/>
<g id="Layer-6">
<path d="M2054.05 877.43L2243.59 914.146C2243.59 914.146 2049.15 992.586 1896.56 1113.45C1743.97 1234.32 1590.64 1422.32 1590.64 1422.32L1445.59 1338.81L1249.53 1192.34L1467.51 1293.47L1819.89 1058.05L2054.05 877.43Z" fill="#cf5656" fill-rule="nonzero" opacity="1" stroke="none"/>
</g>
<g id="Layer-5">
<path d="M1380.59 321.183L1406.4 533.253L1236.84 527.51C1236.84 527.51 1305.48 388.656 1342.05 338.698C1378.62 288.739 1380.59 321.183 1380.59 321.183Z" fill="#cca690" fill-rule="nonzero" opacity="1" stroke="none"/>
<path d="M1889.06 637.745C1878.01 652.654 1821.46 692.442 1793.18 718.293C1752.37 755.606 1738.66 778.513 1738.66 778.513L1690.02 673.299L1766.28 639.734L1861.42 614.662C1861.42 614.662 1916.07 601.317 1889.06 637.745Z" fill="#cca690" fill-rule="nonzero" opacity="1" stroke="none"/>
</g>
<g id="Layer-4">
<path d="M252.222 1019.28C252.222 1019.28 261.189 1277.98 445.534 1526.17C629.88 1774.37 677.229 1974.42 1024.1 2020.27C1198.9 2043.38 1289.52 2036.01 1488.64 1962.79C1687.75 1889.56 1820.55 1727.38 1820.55 1727.38L1884.06 1548.99C1884.06 1548.99 1895.72 1547.13 1909.31 1561.51C1913.93 1566.39 1931.52 1573.78 1917.72 1620.64C1903.91 1667.5 1909.38 1675.87 1852.5 1748.81C1795.61 1821.74 1696.96 1907.67 1696.96 1907.67C1696.96 1907.67 1620.7 1987.36 1425.17 2048.83C1245.17 2105.41 1124.68 2116.36 955.051 2094.58C794.876 2074.01 628.143 2037.91 485.071 1866.15C341.999 1694.4 276.561 1534.73 276.561 1534.73C276.561 1534.73 213.411 1396.73 212.713 1268.18C212.015 1139.64 252.222 1019.28 252.222 1019.28Z" fill="#766d60" fill-rule="nonzero" opacity="1" stroke="none"/>
<path d="M985.498 1878.56L1067.8 1831.39C1067.8 1831.39 1118.74 1802.78 1167.73 1752.02C1216.72 1701.26 1211.2 1666.84 1262.37 1641.31C1313.54 1615.79 1367.49 1660.18 1413.84 1662.91C1460.18 1665.65 1462.61 1633.67 1462.61 1633.67C1462.61 1633.67 1362.87 1573.34 1299.36 1562.14C1235.84 1550.95 1231.26 1559.73 1189.76 1613.8C1153.65 1660.86 1161.31 1674.04 1095.36 1743.04C1029.41 1812.03 944.755 1864.86 944.755 1864.86L985.498 1878.56Z" fill="#766d60" fill-rule="nonzero" opacity="1" stroke="none"/>
<path d="M1709.74 1198.06C1709.74 1198.06 1661.34 1243.06 1620.7 1313.12C1580.06 1383.18 1581.4 1403.01 1547.19 1478.31C1512.99 1553.62 1486.5 1607.33 1486.5 1607.33C1486.5 1607.33 1486.78 1568.7 1521.86 1478.35C1556.95 1387.99 1571.87 1314.98 1624.22 1252.9C1676.57 1190.82 1709.74 1198.06 1709.74 1198.06Z" fill="#766d60" fill-rule="nonzero" opacity="1" stroke="none"/>
<path d="M931.413 917.793C931.413 917.793 923.724 971.335 1008.89 1041.36C1037.78 1065.12 1087.09 1073.67 1120.37 1094.04C1185.21 1133.7 1230 1177.08 1230 1177.08C1230 1177.08 1279.76 1170.1 1334.61 1193.03C1389.47 1215.96 1465.75 1278.73 1465.75 1278.73C1465.75 1278.73 1435.81 1231.21 1369.83 1185.14C1303.85 1139.07 1264.6 1137.99 1180.15 1093.46C1095.69 1048.94 1095.53 1048.72 1032.02 1007.04C968.501 965.349 931.413 917.793 931.413 917.793Z" fill="#766d60" fill-rule="nonzero" opacity="1" stroke="none"/>
<path d="M1125.38 779.001C1125.38 779.001 1130.7 826.94 1167.73 884.692C1204.76 942.445 1288.01 1019.28 1288.01 1019.28C1288.01 1019.28 1358.55 1066.45 1402.52 1086.37C1446.48 1106.29 1463.86 1098.96 1463.86 1098.96L1385.63 1051.53C1385.63 1051.53 1416.71 1070.94 1476.15 1058.23C1535.58 1045.52 1582.59 1027.25 1636.79 983.648C1673.35 954.237 1703.18 919.328 1719.13 876.623C1736.16 831.031 1740.41 820.438 1738.07 778.513C1735.72 736.589 1709.74 708.924 1709.74 708.924C1709.74 708.924 1687.59 875.324 1618.15 948.471C1548.71 1021.62 1514.74 995.143 1425.17 985.283C1335.6 975.424 1259.87 909.032 1259.87 909.032L1125.38 779.001Z" fill="#766d60" fill-rule="nonzero" opacity="1" stroke="none"/>
</g>
<g id="Layer-3">
<path d="M1465.75 415.286C1465.75 415.286 1531.53 435.046 1588.12 472.213C1644.71 509.38 1692.11 569.472 1692.11 569.472L1840.04 606.317L1708.92 654.712C1708.92 654.712 1706.72 683.96 1712.78 718.117C1718.85 752.275 1697.16 876.031 1661.1 922.388C1607.08 991.835 1521.86 1007.04 1521.86 1007.04C1521.86 1007.04 1447.67 1070.09 1352.17 1016.17C1256.68 962.244 1159.73 871.209 1130.1 773.229C1129.83 772.313 1157.93 898.43 1236.84 974.018C1320.84 1054.48 1465.75 1102.86 1465.75 1102.86L1521.86 1158.79L1486.5 1244.76L1471.7 1281.09L1424.77 1239.76C1424.77 1239.76 1364.75 1190.24 1342.05 1177.08C1276.85 1139.29 1132.37 1081.35 1064.19 1035.05C964.999 967.674 931.233 922.388 931.233 922.388C931.233 922.388 982.867 1013.82 1008.89 1035.05C1026.33 1049.27 1065.56 1064.18 1101.15 1087.04C1160.38 1125.08 1165.02 1117.39 1218.9 1172C1272.78 1226.61 1316.66 1305.47 1316.66 1305.47C1316.66 1305.47 1378.47 1384.04 1402.52 1397.54C1426.57 1411.04 1438.25 1367.71 1438.25 1367.71C1438.25 1367.71 1485.41 1251.97 1514.6 1193.03C1543.78 1134.09 1537.28 1150.13 1554.99 1131.94C1572.7 1113.75 1596.05 1099.24 1596.05 1099.24C1596.05 1099.24 1644.97 1076.74 1650.61 1080C1665.18 1088.41 1663.16 1087.04 1663.16 1087.04C1663.16 1087.04 1686.77 1085.55 1696.72 1091.28C1710.83 1099.42 1718.69 1120.01 1721.64 1127.76C1722.82 1130.86 1743.43 1139.3 1728.42 1172C1715.32 1200.5 1665.66 1200.79 1625.98 1260.32C1586.3 1319.86 1601.03 1319.85 1554.99 1415.22C1497.82 1533.64 1488.64 1587.17 1488.64 1587.17C1488.64 1587.17 1475.33 1649.57 1425.17 1645.75C1375.02 1641.92 1349.27 1574.79 1288.01 1571.86C1226.76 1568.93 1187.35 1619.31 1180.15 1634.03C1121.94 1752.83 957.21 1865.75 957.21 1865.75C957.21 1865.75 1097.74 1912.71 1262.37 1878.81C1477.74 1834.47 1607.49 1716.88 1788.2 1579.57C1856.06 1528 1883.21 1540.38 1884 1560.03C1886.72 1627.65 1793.06 1891.42 1521.86 1965.2C1250.66 2038.98 1067.6 2108.41 794.876 1966.62C522.155 1824.84 374.861 1449.61 374.861 1449.61C374.861 1449.61 221.985 1235.05 257.603 998.795C293.22 762.537 357.613 633.175 517.331 504.577C677.049 375.979 777.126 350.549 966.665 305.885C1156.2 261.221 1323.68 371.337 1323.68 371.337L1253.79 518.5C1253.79 518.5 1281.13 507.593 1323.68 509.747C1366.22 511.901 1402.52 528.236 1402.52 528.236C1402.52 528.236 1387.65 466.839 1384.08 415.286C1380.51 363.734 1388.25 322.026 1388.25 322.026L1465.75 415.286Z" fill="#a39f8d" fill-rule="nonzero" opacity="1" stroke="none"/>
</g>
<g id="Layer-1">
<path d="M1462.54 413.409C1462.54 413.409 1496.96 477.725 1508.75 512.092C1511.54 522.474 1505.74 536.834 1500.4 541.508C1496.88 544.59 1493.12 541.386 1491.16 537.547C1490.28 535.198 1484.6 518.165 1482.79 511.996C1483.08 511.703 1476.77 495.038 1473.53 485.599C1464.49 463.778 1444.77 421.477 1444.77 421.477L1419.33 373.935C1419.33 373.935 1407.77 352.9 1401.85 342.474C1401.1 341.574 1391.74 323.721 1384.19 317.445C1383.9 317.885 1383.6 318.325 1383.31 318.765C1388.9 335.711 1400.44 370.159 1400.44 370.159C1400.44 370.159 1426.05 455.061 1438.26 499.29C1440.47 507.717 1438.19 518.974 1434.81 526.982C1432.76 529.621 1417.7 542.4 1410.15 522.241C1402.59 502.081 1401.15 480.634 1393.17 455.734C1383.33 418.414 1382.93 418.252 1374.44 389.608C1365.95 360.963 1369.08 368.112 1363.68 346.758C1360.74 335.139 1357.53 333.006 1354.22 336.789C1350.23 340.486 1335.32 374.026 1335.32 374.026C1335.32 374.026 1303.82 441.477 1288.66 461.772C1272.77 483.057 1263.43 501.911 1256.31 510.164C1238.41 530.907 1241.56 513.776 1241.56 513.776C1241.56 513.776 1241.12 506.084 1242.88 502.33C1261.99 456.049 1298.53 390.427 1298.53 390.427C1298.53 390.427 1282.65 378.5 1258.72 370.737C1234.78 362.974 1192.26 347.119 1120.32 348.42C1095.84 348.863 1019.45 353.134 948.526 375.763C810.984 419.645 644.039 505.652 566.057 578.083C447.861 687.865 434.252 716.326 358.018 848.423C275.581 991.268 258.305 1171.09 258.305 1171.09C258.305 1171.09 251.785 1266.55 275.664 1359.81C303.253 1467.56 363.111 1577.72 386.004 1620.94C428.712 1701.57 482.935 1764.45 482.935 1764.45C482.935 1764.45 550.376 1844.05 629.943 1908.87C709.51 1973.69 755.565 1989.6 805.793 2011.9C837.715 2024.34 902.162 2048.69 1008.18 2055.31C1064.54 2058.83 1155.38 2061.46 1243.84 2045.28C1341.02 2027.51 1435.8 1989.63 1489.42 1965.81C1594.66 1919.08 1677.05 1857.98 1677.05 1857.98C1677.05 1857.98 1765.46 1789.22 1790.1 1754.7C1820.03 1712.76 1833.44 1697.81 1859.41 1648.39C1885.38 1598.97 1887.35 1574.39 1877.41 1566.8C1872.26 1563.91 1833.16 1581.2 1794.97 1608.56C1749.48 1641.15 1702.15 1686.54 1671.82 1708.37C1638.74 1732.18 1545.19 1798.21 1471.81 1827.63C1437.81 1841.27 1365.78 1882.4 1276.13 1901.98C1216.77 1914.95 1184.81 1924.79 1116.3 1919C1047.8 1913.22 1026.8 1906.85 981.792 1892.01C936.569 1877.1 932.519 1868.99 932.519 1868.99C932.519 1868.99 917.364 1871.91 907.043 1873.87C893.271 1876.49 877.105 1876.84 875.318 1876.59C875.263 1876.28 896.872 1869.88 916.053 1861.38C934.84 1853.05 959.454 1842.78 959.454 1842.78C959.454 1842.78 1000.02 1822.19 1049.49 1790.34C1103.75 1755.41 1141.26 1703.45 1150.7 1685.4C1172.8 1643.16 1185.38 1618.48 1197.33 1601.91C1227.56 1567.01 1268.56 1594.2 1311.99 1611.2C1338.97 1621.9 1365.08 1634.23 1390.35 1648.18C1406.73 1655.35 1422.58 1654.17 1437.89 1644.66C1446.43 1639.94 1457.7 1615.92 1457.7 1615.92C1457.7 1615.92 1488.92 1563.66 1501.72 1535.41C1516.2 1502.54 1538.97 1450.51 1538.97 1450.51C1538.97 1450.51 1578.83 1345.97 1602.97 1299.1C1624.88 1260.47 1651.14 1225.1 1681.76 1193.01C1692.36 1183.87 1703.23 1175.07 1714.34 1166.6C1723.28 1160.1 1729.06 1154.12 1722.77 1145.07C1715.86 1136.19 1708.58 1132.43 1697.63 1132.86C1693.6 1133.02 1685.1 1137.76 1679.46 1138.28C1673.81 1138.79 1670.93 1132 1668.44 1131.23C1671.48 1129.49 1675.68 1127.59 1679.9 1125.88C1683.54 1124.41 1686.54 1122.02 1694.05 1119.98C1704.23 1117.22 1712.28 1120.51 1712.28 1120.51C1712.28 1120.51 1715.58 1123.22 1721.52 1118.38C1727.47 1113.54 1732.23 1108.64 1738.99 1103.21C1740.08 1102.2 1783.01 1069.75 1783.01 1069.75L1819.11 1042.02L1857.85 1010.77L1900.11 983.473L1941.48 957.061L1978.46 936.371C1978.46 936.371 2004.43 923.216 2007.21 921.827C2010.82 918.952 1981.74 832.108 1981.74 832.108L2010.51 815.725C2011.07 817.96 2012.07 834.798 2015.18 850.544C2019.25 871.123 2031.74 892.042 2031.74 892.042C2031.74 892.042 2037.47 901.933 2039.04 907.412C2039.84 909.119 2048.33 914.222 2048.77 915.253C2049.57 917.096 2046.84 926.573 2046 929.264C2039.92 932.212 1999.31 954.643 1959.61 980.308C1933.36 997.272 1893.24 1023.53 1893.24 1023.53C1893.24 1023.53 1845.65 1056.84 1823.05 1072.77C1797.19 1091 1773.11 1111.74 1745.66 1133.68C1742.86 1136.34 1729.15 1126.26 1726.67 1129.18C1727.55 1130.04 1739.48 1133.22 1745.12 1138.68C1751.64 1144.97 1751.82 1153.92 1750.25 1159.68C1746.99 1171.33 1737.05 1183.55 1727.1 1190.38C1712.26 1199.71 1670.65 1244.81 1670.65 1244.81L1621.78 1312.71C1621.78 1312.71 1654.76 1268.33 1685.22 1238.14C1705.72 1217.82 1744.81 1181.52 1758.27 1169.56C1776.02 1153.79 1839.16 1095.23 1914.41 1043.78C1980.94 998.29 2059.89 959.397 2082.35 945.615C2092.81 939.947 2113.16 928.447 2113.16 928.447C2113.16 928.447 2116.97 926.677 2110.52 924.926C2096.09 921.003 2074.75 913.672 2057.7 905.997C2050.73 902.84 2045.88 897.704 2043.17 890.59C2042.25 884.832 2044.74 881.604 2050.66 880.905C2064.99 885.128 2078.39 888.829 2093.79 892.791C2109.2 896.753 2101.17 894.882 2113.16 897.633C2125.16 900.384 2130.05 900.181 2143.1 904.086C2155.55 908.447 2235.03 923.934 2224.55 937.527C2220.39 941.738 2177.74 952.729 2167.7 959.11C2144.38 971.724 2139.66 974.556 2116.32 986.887C2088.89 1003.59 2017.19 1040.68 1946.84 1088.45C1867.06 1142.62 1788.17 1208.24 1761.86 1231.74C1712.34 1275.98 1635.93 1348.51 1598.55 1396.97C1596.26 1399.41 1597.6 1405.77 1573.62 1463.84C1549.65 1521.92 1545.77 1559.35 1502.65 1629.25C1487.9 1650.21 1455.27 1692.45 1422.25 1691.28C1401.31 1690.54 1333.28 1656.04 1304.81 1645.38C1259.5 1630.06 1236.76 1622.62 1211.17 1663.29C1200.97 1679.5 1185.08 1730.33 1154.09 1765.99C1121.66 1803.31 1074.08 1825.27 1062.58 1831.74C1035.64 1846.89 1005.24 1854.34 1003.54 1855.04C1041.79 1866.65 1124.25 1867.87 1139.43 1867.84C1185.34 1867.76 1237.5 1859.62 1285.58 1845.39C1306.71 1839.14 1450.31 1787.38 1503.92 1758.23C1560.57 1728.58 1614.27 1694.24 1665.04 1655.22C1678.42 1644.7 1737.68 1590.33 1791.94 1556.57C1813.08 1543.41 1845.01 1526.24 1868.51 1523.97C1876.11 1523.23 1892.18 1524.91 1902.55 1534.09C1913.23 1543.53 1918.13 1560.69 1919.91 1574.67C1923.44 1602.22 1915.07 1635.55 1910.67 1647.48C1895.94 1687.37 1870.17 1720.08 1864.01 1730.65C1861.4 1734.22 1819.75 1795.67 1771.57 1842.92C1718.52 1894.93 1681.51 1922.81 1665.92 1932.55C1656.38 1937.68 1604.03 1971.86 1546.38 1999.72C1489.67 2027.12 1427.78 2048.17 1402.68 2056.69C1374.83 2066.13 1300.68 2086.89 1224.75 2099.18C1162.65 2109.24 1098.62 2112.04 1063.81 2111.61C1028.52 2111.19 951.904 2114.6 847.099 2089.98C742.294 2065.37 678.773 2032.13 644.587 2013.15C575.843 1974.99 521.842 1926.2 518.462 1923.49C479.378 1886.03 452.836 1856.68 411.787 1804.95C370.738 1753.23 321.252 1678.07 295.17 1625.91C282.733 1601.03 249.228 1538.87 228.928 1484.98C220.477 1462.54 201.438 1385.03 194.964 1343.9C184.374 1276.63 188.771 1240.99 189.914 1215.46C198.833 1133.31 215.855 1053.78 240.981 976.879C263.329 908.476 292.088 842.149 327.258 777.898C342.648 751.932 355.21 731.676 375.68 701.302C396.149 670.928 409.135 656.402 409.135 656.402C409.135 656.402 481.928 575.184 547.408 520.819C612.888 466.454 698.019 418.471 765.26 391.839C801.184 377.611 873.501 343.336 941.356 324.314C1000.51 307.731 1056.6 305.4 1077.99 303.859C1121.92 300.694 1159.72 308.831 1184.08 313.06C1244.63 323.57 1304.07 348.699 1304.07 348.699C1304.07 348.699 1314.86 353 1315.19 353.806C1324.53 339.339 1346.33 300.895 1353.5 294.43C1366.69 288.07 1376.4 300.227 1381.11 313.923C1381.53 313.088 1382.69 308.117 1385.44 308.667C1388.19 309.217 1387.19 308.528 1393.06 314.817C1398.94 321.106 1407.1 331.806 1408.94 333.823C1423.18 349.674 1443.83 382.137 1445.37 384.356C1450.67 394.349 1462.54 413.409 1462.54 413.409Z" fill="#0a0b08" fill-rule="evenodd" opacity="1" stroke="none"/>
<path d="M1533.03 431.61C1546.29 436.552 1573.37 445.72 1599.39 458.93C1620.88 469.841 1641.64 484.33 1653.29 494.208C1679.04 516.045 1680.69 516.855 1694.33 535.013C1707.98 553.172 1703.19 564.811 1703.19 564.811L1712.95 563.509C1712.95 563.509 1723.65 561.686 1746.08 564.013C1763.68 565.839 1761.95 565.309 1793.73 570.875C1825.52 576.441 1868.52 585.088 1873.23 586.276C1883.4 588.848 1888.06 589.321 1896.79 590.592C1899.03 591.961 1901.42 597.666 1902.4 600.112C1903.75 605.319 1903.74 612.526 1902.98 617.883C1901.42 623.357 1897.36 627.013 1891.89 628.583C1888.75 629.007 1880.24 629.605 1880.24 629.605C1880.24 629.605 1874.37 640.859 1871.88 643.501C1851.19 665.411 1825.1 696.34 1797.34 722.337C1792.92 727.552 1783.54 734.169 1777.13 741.787C1769.14 751.286 1764.26 761.703 1761.92 765.495C1793.08 768.176 1800.89 765.222 1837.19 768.215C1873.5 771.208 1875.78 772.093 1907.14 777.467C1938.5 782.841 1965.88 791.537 1965.88 791.537C1965.88 791.537 2005.23 802.487 2016.23 809.232C2027.23 815.976 1995.98 825.567 1993.01 826.813C1986.73 829.456 1927.7 858.798 1915.49 864.851C1903.28 870.903 1870.99 887.105 1870.99 887.105C1870.99 887.105 1795.1 929.388 1782.59 936.692C1770.42 943.799 1732.37 965.432 1702.63 985.792C1695.72 990.522 1689.48 995.111 1684.1 999.248C1670.83 1009.46 1662.33 1016.12 1662.33 1016.12C1662.33 1016.12 1672.96 1019.5 1686.64 1025.13C1698.77 1030.12 1713.16 1037.05 1726.57 1042.24C1734.81 1045.26 1758.08 1057.8 1764.8 1063.3C1765.39 1063.89 1765.34 1064.57 1764.75 1065.16C1752.41 1057.62 1738.42 1051.47 1724.64 1046.98C1699.36 1037.96 1679.67 1028.99 1653.9 1022.16C1652.38 1023.43 1644.3 1028.79 1642.59 1029.87C1662.2 1038.35 1679.42 1045.56 1697.17 1055.61C1704.89 1059.98 1710.08 1063.93 1718.09 1068.61C1726.73 1074.47 1738.53 1083.62 1746.03 1090.96C1747.12 1092.18 1746.95 1095.32 1746.15 1096.45C1732.55 1084.81 1718.56 1074.51 1702.81 1065.91C1702.16 1065.58 1687.52 1056.85 1686.88 1056.52C1665.95 1045.84 1657.32 1043.45 1635.56 1034.56C1631.17 1037.2 1621.89 1044.86 1620.17 1046.02C1616.38 1048.62 1613.63 1049.79 1610.38 1053.05C1616.65 1057.22 1623.42 1060.01 1630.06 1063.76C1632.69 1063.24 1650.91 1058.13 1651.32 1058.01C1660.68 1055.41 1666.6 1058.44 1665.16 1067.79C1664.11 1071.5 1660.45 1075.94 1657.09 1077.81C1673.26 1073.44 1688.72 1070.33 1704.84 1075.29C1720.56 1080.88 1729 1089.65 1730.89 1106.36C1730.68 1107.86 1728.1 1113.75 1723.97 1117.56C1719.58 1121.6 1713.61 1123.43 1712.81 1120.25C1709.14 1111.89 1708.47 1096.84 1692.32 1092.2C1669.9 1085.77 1643.38 1091.32 1622.18 1108.17C1619.96 1109.93 1617.68 1111.76 1615.52 1113.8C1615.67 1113.93 1613.7 1109.54 1614.74 1107.12C1616.53 1102.97 1617.24 1101.56 1623 1096.47C1628.77 1091.38 1630.03 1090.72 1636.56 1086.96C1643.08 1083.19 1649.1 1081.41 1649.1 1081.41C1649.1 1081.41 1637.65 1081.68 1628.17 1084.38C1618.7 1087.07 1604.36 1095.6 1603.34 1097.03C1603.02 1097.49 1618.95 1118.59 1618.95 1118.59C1618.95 1118.59 1620.82 1121.96 1619.58 1120.96C1618.38 1120 1615.25 1117.05 1615.25 1117.07C1609.81 1111.64 1604.54 1106.32 1599.11 1100.89C1598.52 1100.3 1577.17 1114.5 1565.99 1126.38C1561.47 1131.18 1548.28 1144.77 1539.91 1157.61C1527.57 1176.53 1519.56 1196.58 1514.99 1207.01C1496.17 1254.79 1482.49 1311.8 1463.16 1359.09C1455.49 1376.49 1445.33 1401.3 1435.39 1417.36C1432 1422.81 1413.81 1457.88 1406.66 1455.9C1399.51 1453.93 1387.68 1424.96 1387.68 1424.96C1387.68 1424.96 1394.7 1419.6 1401.44 1413.01C1403.39 1411.1 1407.14 1406.51 1408.99 1404.41C1416.96 1395.36 1421.3 1387.24 1422 1386.21C1424.26 1382.87 1433.1 1369.24 1438.06 1358.46C1440.08 1354.08 1412.03 1333.56 1381.41 1312.87C1350.78 1292.19 1314.16 1273.38 1315.54 1275.72C1316.2 1276.82 1334.63 1296.56 1346.83 1311.63C1364.07 1332.96 1377.05 1351.92 1380.69 1355.75C1386.32 1361.68 1416.06 1395.86 1416.06 1395.86C1416.06 1395.86 1407.95 1406.53 1401.94 1412.52C1395.94 1418.52 1387.58 1424.98 1387.58 1424.98C1387.58 1424.98 1338.87 1361.72 1328.59 1350.43C1314.04 1334.44 1244.24 1243.39 1210.67 1205.31C1181.27 1174.27 1144.01 1141.24 1107.39 1119.74C1030.7 1073.2 958.99 1063.23 868.982 1062.52C816.051 1061.32 767.021 1076.57 727.24 1099.89C679.651 1127.79 674.665 1126.33 660.834 1135.75C659.366 1136.34 657.572 1120.62 676.349 1101.29C695.127 1081.95 720.975 1066.85 735.943 1058.43C772.939 1039.64 812.264 1029.37 853.917 1027.61C1001.84 1020.84 1119.74 1048.9 1224.2 1152.51C1231.35 1151.59 1264.46 1155.48 1307.66 1171.49C1350.87 1187.51 1382.67 1208.78 1400.65 1223.06C1417.38 1236.35 1438.26 1248.39 1450.41 1258.05C1453.34 1260.04 1466.02 1267.74 1468.62 1278.68C1468.65 1278.84 1467.91 1300.11 1456.53 1295.94C1445.13 1291.77 1431.1 1282.2 1405.77 1266.33C1405.77 1266.33 1354.24 1236.57 1333.23 1227.69C1288.01 1208.56 1272.2 1206.33 1272.2 1206.33L1303.56 1227.07C1303.56 1227.07 1446.64 1324.85 1447.71 1328.18C1448.86 1331.78 1460.67 1308.23 1467.93 1284.23C1470.79 1274.76 1476.02 1256.99 1476.58 1242.6C1476.96 1232.81 1473.88 1224.95 1471.52 1220.86C1470.93 1219.69 1465.6 1211.89 1466.19 1210.72C1468.58 1209.46 1472.75 1210.18 1476.32 1214.15C1479.82 1218.05 1481.1 1218.05 1483.44 1223.32C1492.17 1198.52 1494.81 1186.85 1507.79 1164.11C1508.38 1162.94 1512.04 1157.52 1511.45 1156.35C1499.59 1144.49 1492.46 1139.27 1479.86 1128.16C1469.1 1119.51 1464.84 1116.77 1447.23 1103.79C1429.62 1090.8 1417.86 1085.49 1404.71 1077.34C1387.8 1068.74 1356.27 1046.89 1356.27 1046.89L1310.08 1020.07C1310.08 1020.07 1307.55 1016.79 1307.96 1015.49C1308.37 1014.18 1308.7 1014.47 1311.73 1014.85C1314.76 1015.22 1315.68 1015.73 1321.86 1017.66C1331 1020.51 1347.83 1027.61 1347.83 1027.61L1405.94 1055.75C1405.94 1055.75 1435.47 1070.76 1458.36 1086.6C1481.25 1102.45 1489.05 1106.12 1489.05 1106.12C1489.05 1106.12 1495.69 1106.49 1498.54 1106.65C1501.38 1106.81 1507.52 1106.7 1507.52 1106.7L1533.43 1089.65C1533.43 1089.65 1540.78 1084.84 1547.55 1079.36C1553.19 1074.81 1557.85 1070.74 1560.57 1068.42C1556.63 1065.02 1553.19 1062.72 1549.31 1059.53C1542.85 1054.22 1537.35 1050.21 1537.35 1050.21C1537.35 1050.21 1511.51 1057.15 1493.17 1061.18C1474.83 1065.22 1475.34 1064.63 1464.35 1066.17C1455.25 1067.45 1446.53 1067.52 1443.71 1067.11C1437.47 1066.22 1429.41 1059.76 1427.11 1058.22C1425.94 1057.05 1428.49 1052.91 1432.44 1051.75C1436.39 1050.59 1438.39 1050.55 1443.9 1050.11C1449.4 1049.67 1448.71 1049.6 1458.06 1048.5C1467.42 1047.4 1492.41 1042.72 1492.41 1042.72C1492.41 1042.72 1514.66 1038.4 1519.54 1036.94C1506.11 1027.56 1496.13 1019.48 1482.75 1012.36C1478.74 1008.67 1479.98 1006.31 1485.17 1006.48C1499.14 1014.49 1528.58 1034.67 1528.58 1034.67C1528.58 1034.67 1533.22 1033.87 1537.95 1032.03C1542.67 1030.18 1544.72 1029.28 1544.72 1029.28C1544.72 1029.28 1527.86 1019.13 1509.82 1011.11C1502.93 1008.04 1494.76 1004.45 1489.39 1002.5C1485.32 998.559 1486.97 996.082 1492.21 995.917C1513.27 1004.76 1553.05 1025.13 1553.05 1025.13C1553.05 1025.13 1559.28 1022.32 1564.59 1019.49C1569.9 1016.66 1574.3 1013.81 1574.3 1013.81C1574.3 1013.81 1579.45 1015.12 1559.87 1009.82C1540.28 1004.51 1520.26 1000 1499.73 995.017C1497.54 993.304 1497.35 989.508 1498.38 987.113C1527.36 993.479 1553.48 1000.63 1582.01 1009.23C1584.77 1008.52 1589.57 1004.34 1589.57 1004.34C1589.57 1004.34 1534.58 992.329 1507.18 987.113C1504.37 986.209 1504 982.098 1504.46 979.186C1507.7 979.041 1511.69 979.255 1514.91 979.695C1542.83 986.13 1573.09 992.585 1599.29 996.989C1616.36 989.443 1641 965.058 1641 965.058C1641 965.058 1661.71 947.145 1677.97 922.469C1694.24 897.792 1706.06 862.766 1706.06 862.766C1706.06 862.766 1725.58 792.702 1729.47 768.895C1730.42 764.566 1730.69 758.833 1738.78 746.641C1746.88 734.45 1754.21 728.933 1761.84 720.129C1771.74 711.109 1779.93 700.806 1801.22 682.62C1822.51 664.434 1829.18 660.87 1843.93 647.774C1858.68 634.678 1868.53 632.046 1869.51 630.24C1868.35 629.249 1834.49 634.824 1834.49 634.824C1834.49 634.824 1800.46 641.783 1768.81 651.939C1737.17 662.095 1727.43 670.594 1709.81 681.611C1704.69 686.024 1699.36 687.187 1692.39 688.842C1690.66 688.002 1685.89 683.583 1685.46 682.051C1683.16 669.21 1685.98 658.309 1696.21 650.314C1704.14 645.464 1735.41 626.826 1747.52 622.204C1759.62 617.582 1779.68 612.191 1799.49 607.454C1819.31 602.717 1820.7 605.376 1826.77 603.255C1818.54 600.603 1820.86 599.813 1797.81 593.282C1778.48 587.802 1715.47 583.488 1703.34 584.355C1695.99 584.881 1688.15 584.001 1687.86 584.588C1686.98 583.708 1688.51 582.414 1678.91 569.117C1673.94 562.229 1649.97 533.305 1614 509.457C1580.53 487.271 1535.17 470.054 1523.56 464.147C1499.48 451.892 1489.71 448.006 1485.63 446.844C1489.74 445.215 1483.24 428.85 1487.27 428.916C1493.14 429.011 1508.82 422.586 1533.03 431.61Z" fill="#0a0b08" fill-rule="evenodd" opacity="1" stroke="none"/>
<path d="M1128.18 704.41C1129.41 734.694 1128.66 753.767 1136.06 780.487C1169.68 793.263 1201.11 810.195 1232.93 827.059C1251.76 837.971 1269.05 850.051 1285.44 864.377C1288.96 866.431 1293.61 869.28 1297.13 871.334C1298.99 872.446 1299.44 876.206 1299.34 878.322C1295.21 877.972 1290.82 877.4 1287.33 875.109C1266.25 857.819 1243.68 842.96 1220.14 829.141C1211.36 824.631 1199.85 817.803 1188.25 812.163C1163.46 800.109 1138.25 789.372 1138.25 789.372C1138.25 789.372 1146.04 813.84 1151.27 825.406C1196.08 835.495 1237.16 852.834 1276.87 875.613C1280.49 878.086 1284.52 881.088 1287.66 884.191C1288.09 885.329 1288.04 887.678 1287.9 888.887C1286 889 1282.39 890.091 1280.76 889.098C1248.25 868.001 1219.27 854.652 1186.11 842.933C1168.22 837.357 1162.78 835.361 1154.93 833.596C1159.75 844.107 1163.89 853.793 1169.64 863.825C1193.21 865.749 1212 868.975 1237.71 876.121C1263.43 883.267 1264.99 886.871 1272.49 892.409C1273.48 894.033 1274.62 896.599 1274.51 898.496C1273.01 898.637 1269.94 900.624 1268.5 900.189C1237.8 883.414 1208.99 875.098 1173.96 873.678C1182.56 887.855 1188.36 898.074 1197.65 911.778C1208.11 926.333 1219.71 939.686 1232.43 951.836C1233.27 952.261 1243.99 962.342 1256.2 973.957C1268.41 985.571 1283.9 998.734 1283.9 998.734C1283.9 998.734 1290.24 1006.13 1283.75 1006.9C1277.26 1007.67 1269.53 1006.13 1255.79 1000.54C1242.05 994.956 1238.67 990.712 1228.77 984.549C1218.87 978.386 1211.08 971.768 1190.64 950.525C1164.3 923.151 1161.31 910.537 1142.05 868.902C1116.88 866.045 1090.14 865.515 1064.83 864.557C1067.22 863.627 1067.72 861.761 1077.68 860.721C1087.64 859.681 1096.41 860.355 1104.67 860.397C1116.09 860.456 1126.2 861.213 1139.05 861.604C1134.07 849.625 1129.45 839.982 1124.46 827.898C1102.08 821.988 1067.23 813.758 1045.46 808.644C1037.81 806.848 1035.83 804.779 1035.83 804.779C1035.83 804.779 1049.06 806.133 1055.47 807.449C1078.69 812.123 1122.04 820.613 1122.63 820.32C1118.22 807.344 1114.88 793.878 1112.25 780.441C1097.86 774.52 1075.73 768.043 1060.78 763.692C1064.04 763.305 1069.19 763.731 1081.63 765.978C1094.07 768.224 1110.52 772.678 1110.52 772.678C1110.52 772.678 1107.25 754.14 1106.63 729.723C1106.04 706.983 1105.34 701.353 1106.45 682.422C1110.47 650.922 1117.11 626.54 1129.82 597.292C1136.39 584.874 1142.05 576.752 1149.53 565.307C1157.01 553.861 1161.12 549.86 1161.12 549.86C1161.12 549.86 1173.5 533.326 1166.33 553.205C1162.81 562.959 1148 591.964 1139.28 623.239C1130.23 655.706 1127.34 690.539 1128.18 704.41Z" fill="#0a0b08" fill-rule="evenodd" opacity="1" stroke="none"/>
<path d="M1285.58 711.244C1286.66 711.596 1296.93 738.159 1300.54 745.177C1303.48 750.908 1300.21 745.342 1314.28 760.523C1328.35 775.704 1346.29 778.934 1357.04 801.123C1357.63 802.759 1364.84 817.973 1367.24 828.975C1369.29 838.319 1366.41 848.429 1366.33 850.128C1365.89 859.153 1361.57 863.633 1360.76 869.805C1360.39 872.003 1351.98 877.772 1350.29 879.095C1350.02 871.2 1352.86 863.27 1352.22 854.087C1349.8 842.637 1347.2 834.866 1335.01 823.066C1321.3 809.797 1314.4 812.324 1303.06 797.247C1291.73 782.17 1291.32 775.717 1287.25 765.823C1284.32 756.294 1282.35 720.497 1285.58 711.244Z" fill="#0a0b08" fill-rule="evenodd" opacity="1" stroke="none"/>
<path d="M922.18 912.72C899.707 875.269 893.753 834.476 905.367 792.104C905.999 791.266 910.882 778.318 911.718 778.861C911.682 789.239 911.222 807.475 912.538 825.023C913.782 841.617 916.812 853.306 919.279 861.985C924.754 881.248 928.448 886.883 934.856 900.146C939.198 909.133 945.91 916.936 946.134 918.125C946.688 921.069 945.817 920.556 944.702 920.828C957.175 932.713 960 938.63 971.885 951.103C986.595 968.162 1009.03 987.771 1019.56 1007.69C1020.64 1011.29 1029.97 1021.4 1025.09 1028.14C1020.2 1034.88 1006.48 1036.12 1000.01 1034.66C996.717 1033.12 981.152 1025.63 978.87 1022.76C932.384 955.254 891.203 908.35 829.399 854.061C825.703 850.95 817.685 842.975 812.618 837.535C803.598 827.85 795.469 820.193 794.876 820.277C794.876 818.809 794.876 817.342 794.876 815.875C799.17 817.356 803.278 819.263 807.202 821.597C822.458 831.181 852.103 851.531 852.103 851.531C852.103 851.531 868.919 864.407 886.438 879.704C903.958 895.001 910.302 902.22 922.18 912.72Z" fill="#0a0b08" fill-rule="evenodd" opacity="1" stroke="none"/>
<path d="M1614.01 914.091C1629.47 916.203 1629.9 913.416 1639.26 914.393C1645.39 914.696 1651.35 917.757 1648.14 922.737C1646.91 923.761 1638.99 931.173 1635.6 933.242C1634.02 934.208 1629.66 939.349 1623.86 940.803C1615.39 942.924 1612.34 943.802 1598.4 942.23C1584.45 940.659 1580.51 939.318 1568.08 934.518C1556.49 930.05 1548.63 927.102 1538.19 925.528C1524.9 923.527 1520.9 925.522 1512.41 925.926C1511.27 925.717 1510.39 926.01 1509.77 926.806C1504.76 930.874 1498.83 937.496 1493.55 939.697C1488.27 941.898 1483.6 940.88 1482.55 939.221C1486.5 932.19 1498.45 924.031 1506.25 921.964C1508.84 921.877 1510.65 920.643 1510.65 920.643C1510.65 920.643 1521.61 908.648 1540.1 905.786C1549.19 904.379 1562.92 904.975 1577.41 905.947C1592.37 906.951 1598.54 911.98 1614.01 914.091Z" fill="#0a0b08" fill-rule="evenodd" opacity="1" stroke="none"/>
<path d="M1400.88 960.448C1410.92 966.483 1419.31 970.371 1421.4 971.12C1426.76 973.126 1441.21 980.4 1439.69 986.124C1438.18 991.849 1422.78 994.066 1416.18 996.206C1409.58 998.346 1401.18 998.662 1401.18 998.662C1401.18 998.662 1391.12 1000.03 1388.24 1000.9C1386.09 1004.43 1382.25 1011.22 1382.54 1017.07C1382.68 1019.82 1386.55 1028.25 1395.19 1032.72C1404.9 1037.74 1419.92 1038.64 1428.56 1037.97C1429.46 1038.41 1429.22 1041.81 1425.69 1045.03C1422.17 1048.24 1418.49 1050.54 1414.47 1050.83C1402.4 1051.7 1388.5 1048.38 1377.65 1039.17C1376.12 1037.85 1374.16 1037.25 1372.17 1035.05C1364 1027.47 1363.79 1021.46 1366.68 1010.56C1363.35 1011.49 1355.88 1016.71 1348.93 1017.7C1339.04 1019.11 1329.13 1016.03 1324.45 1014.73C1321.79 1013.98 1312.46 1010.28 1307.26 1004.98C1299.29 996.852 1295.03 985.538 1292.5 979.897C1292.06 976.976 1293.96 968.921 1293.96 968.921C1293.96 968.921 1294.39 968.039 1297.69 970.79C1300.99 973.541 1308.13 982.095 1313.14 985.502C1324.43 993.168 1331.85 996.353 1348.21 996.358C1357.57 996.361 1360.42 990.462 1367.45 986.357C1364.37 981.015 1359.82 972.358 1357.91 967.956C1354.44 962.7 1351.1 952.277 1355.45 947.555C1358.09 945.1 1361.14 942.9 1364.13 942.575C1368.4 942.568 1372.09 942.514 1381.27 946.983C1390.46 951.451 1390.85 954.414 1400.88 960.448Z" fill="#0a0b08" fill-rule="evenodd" opacity="1" stroke="none"/>
</g>
<g id="Layer-2">
<path d="M1952.43 818.242C1947.02 821.827 1955.31 816.765 1919.34 833.822C1883.37 850.878 1860.16 862.778 1818.7 884.927C1777.24 907.076 1737.13 933.595 1736.09 934.492C1721.43 942.79 1675.48 980.767 1675.48 980.767L1651.42 999.621L1638.65 1009.15C1638.65 1009.15 1635.75 1008.48 1627.03 1005.28C1640.93 994.75 1652.64 987.547 1666.33 976.65C1702.05 941.598 1725.32 903.696 1737.42 854.817C1742.62 832.724 1752.33 795.362 1752.33 795.362C1752.33 795.362 1758.89 793.867 1782.25 794.896C1805.61 795.926 1809.01 794.919 1845.77 799.481C1882.52 804.044 1912.53 811.229 1928.16 813.81C1943.79 816.39 1949.22 817.366 1952.43 818.242Z" fill="#fdfdfd" fill-rule="evenodd" opacity="1" stroke="none"/>
<path d="M2006.97 921.976C2004.19 923.365 1940.1 959.251 1940.1 959.251L1828.89 1033.67C1828.89 1033.67 1747.24 1097.41 1746.15 1098.43C1741.45 1102.2 1724.81 1115.92 1725.2 1115.39C1728.72 1110.55 1730.09 1107.97 1730.09 1105.92C1728.2 1089.21 1718.64 1081.71 1702.91 1076.12C1686.79 1071.16 1672.57 1073.61 1656.41 1077.98C1659.76 1076.12 1664.07 1070.98 1665.12 1067.28C1666.57 1057.92 1658.12 1056.35 1648.75 1058.95C1646.9 1059.47 1629.95 1064.15 1629.95 1064.15C1629.95 1064.15 1615.93 1057.59 1609.65 1053.42C1612.91 1050.16 1631.27 1036.77 1635.67 1034.12C1638.92 1035.45 1665.76 1045.44 1684.22 1054.92C1690.62 1058.42 1709.54 1068.93 1709.54 1068.93C1709.54 1068.93 1737.64 1087.96 1745.72 1094.87C1746.52 1093.74 1746.37 1092.57 1745.28 1091.35C1737.77 1084.01 1723.37 1071.09 1697.3 1055.85C1671.24 1040.6 1670.3 1042.02 1642.16 1029.86C1645.54 1027.72 1650.53 1024.25 1653.6 1021.68C1679.22 1029.4 1700.18 1037.88 1725.47 1046.89C1739.25 1051.38 1752.3 1057.4 1764.64 1064.94C1765.23 1064.35 1765.23 1063.77 1764.64 1063.18C1757.92 1057.68 1735.43 1045.77 1727.19 1042.75C1698.63 1031.71 1689.32 1027.11 1662.11 1016.16C1665.75 1012.82 1666.79 1013.09 1676.94 1005.12C1687.1 997.158 1703.42 985.319 1703.42 985.319C1703.42 985.319 1763.99 941.871 1817.24 911.312C1870.5 880.752 1916.48 860.24 1916.48 860.24L1981.61 831.42C1981.61 831.42 2012.55 918.615 2006.97 921.976Z" fill="#fdfdfd" fill-rule="evenodd" opacity="1" stroke="none"/>
<path d="M1618.64 1011.49C1618.64 1011.49 1622.8 1011.55 1631.65 1015.09C1628.57 1017.65 1625.63 1019.65 1622.25 1021.78C1613.84 1018.15 1609.81 1016.76 1609.81 1016.76L1618.64 1011.49Z" fill="#f9f9f9" fill-rule="evenodd" opacity="1" stroke="none"/>
<path d="M1600.67 1021.9C1600.67 1021.9 1607.12 1023.02 1615.69 1026.95C1613.72 1028.87 1608.67 1032.11 1603.99 1035.27C1597.53 1039.61 1590.76 1044.14 1590.76 1044.14L1574.25 1036.13C1574.25 1036.13 1581.53 1032.75 1588.56 1028.99C1595.59 1025.23 1600.67 1021.9 1600.67 1021.9Z" fill="#fbfbfb" fill-rule="evenodd" opacity="1" stroke="none"/>
<path d="M1564.64 1040.23L1584.89 1049.52L1576.89 1055.71L1567.98 1062.16C1567.98 1062.16 1558.53 1055.81 1547.85 1047.78C1555.03 1044.98 1564.64 1040.23 1564.64 1040.23Z" fill="#fbfbfb" fill-rule="evenodd" opacity="1" stroke="none"/>
<path d="M1603.28 1058.18C1603.28 1058.18 1614.78 1062.71 1621.93 1066.88C1617.86 1068.16 1616.19 1068.89 1607 1074.44C1602.3 1077.27 1597.97 1081.11 1592.53 1084.41C1588.85 1080.88 1585.54 1078.44 1581.59 1075.22C1589.67 1069.34 1603.28 1058.18 1603.28 1058.18Z" fill="#f9f9f9" fill-rule="evenodd" opacity="1" stroke="none"/>
<path d="M1575.02 1080.87C1575.02 1080.87 1581.75 1085.84 1585.3 1089.36C1577.36 1094.5 1563.46 1104.69 1563.46 1104.69C1563.46 1104.69 1539.06 1122.79 1528.49 1137.47C1526.4 1132.05 1524.27 1126.68 1524.27 1126.68C1524.27 1126.68 1537.47 1115.03 1547.16 1105.89C1556.84 1096.74 1575.02 1080.87 1575.02 1080.87Z" fill="#fafafa" fill-rule="evenodd" opacity="1" stroke="none"/>
<path d="M1510.65 1131.94C1512.41 1131.94 1515.07 1132.12 1515.07 1132.12C1515.07 1132.12 1515.76 1133.45 1516.36 1135.19C1516.97 1136.93 1517.69 1137.63 1517.69 1138.51C1515.11 1137.4 1512.18 1134.35 1510.65 1131.94Z" fill="#f7f7f7" fill-rule="evenodd" opacity="1" stroke="none"/>
<path d="M1443.93 1067.11C1450.71 1068.06 1461.93 1066.27 1461.93 1066.27C1461.93 1066.27 1471.13 1065.15 1483.9 1062.84C1507.36 1058.6 1537.32 1050.26 1537.32 1050.26C1537.32 1050.26 1542.6 1054.37 1551.02 1061.08C1559.44 1067.8 1560.77 1068.22 1560.77 1068.22C1560.77 1068.22 1552 1077.12 1538.58 1086.42C1525.17 1095.73 1507.29 1106.93 1507.29 1106.93C1507.29 1106.93 1503.46 1107.05 1500.63 1106.88C1497.8 1106.72 1489.24 1106.18 1489.24 1106.18C1489.24 1106.18 1470.66 1095.45 1458.18 1086.54C1445.7 1077.63 1424.72 1065.76 1424.72 1065.76L1406.48 1055.82C1406.48 1055.82 1408.66 1056.8 1414.33 1058.23C1419.99 1059.65 1419.9 1059.98 1425.17 1061.65C1430.44 1063.31 1435.26 1063.72 1435.26 1063.72C1435.26 1063.72 1439.35 1066.47 1443.93 1067.11Z" fill="#ffffff" fill-rule="nonzero" opacity="1" stroke="none"/>
</g>
</svg>
